<ttFont>
    <TTGlyph name="A" xMin="27" yMin="1" xMax="432" yMax="701">
      <contour>
        <pt x="319" y="255" on="1"/>
        <pt x="237" y="635" on="1"/>
        <pt x="224" y="635" on="1"/>
        <pt x="141" y="255" on="1"/>
        <pt x="319" y="255" on="1"/>
      </contour>
      <contour>
        <pt x="125" y="196" on="1"/>
        <pt x="81" y="1" on="1"/>
        <pt x="27" y="1" on="1"/>
        <pt x="187" y="701" on="1"/>
        <pt x="272" y="701" on="1"/>
        <pt x="432" y="1" on="1"/>
        <pt x="379" y="1" on="1"/>
        <pt x="334" y="196" on="1"/>
        <pt x="125" y="196" on="1"/>
      </contour>
    </TTGlyph>
    <TTGlyph name="AE" xMin="14" yMin="1" xMax="690" yMax="700">
      <contour>
        <pt x="356" y="635" on="1"/>
        <pt x="186" y="255" on="1"/>
        <pt x="407" y="254" on="1"/>
        <pt x="408" y="634" on="1"/>
      </contour>
      <contour>
        <pt x="334" y="700" on="1"/>
        <pt x="688" y="700" on="1"/>
        <pt x="688" y="643" on="1"/>
        <pt x="461" y="643" on="1"/>
        <pt x="461" y="381" on="1"/>
        <pt x="639" y="381" on="1"/>
        <pt x="639" y="323" on="1"/>
        <pt x="461" y="323" on="1"/>
        <pt x="461" y="59" on="1"/>
        <pt x="690" y="59" on="1"/>
        <pt x="690" y="1" on="1"/>
        <pt x="407" y="1" on="1"/>
        <pt x="407" y="196" on="1"/>
        <pt x="157" y="196" on="1"/>
        <pt x="68" y="1" on="1"/>
        <pt x="14" y="1" on="1"/>
      </contour>
    </TTGlyph>
    <TTGlyph name="Aacute" xMin="27" yMin="1" xMax="432" yMax="937">
      <component glyphName="A" x="0" y="0" flags="0x1204"/>
      <component glyphName="acute" x="0" y="200" flags="0x1004"/>
    </TTGlyph>
    <TTGlyph name="Acircumflex" xMin="27" yMin="1" xMax="432" yMax="951">
      <component glyphName="A" x="0" y="0" flags="0x1204"/>
      <component glyphName="circumflex" x="32" y="200" flags="0x1004"/>
    </TTGlyph>
    <TTGlyph name="Adieresis" xMin="27" yMin="1" xMax="432" yMax="877">
      <component glyphName="A" x="0" y="0" flags="0x1204"/>
      <component glyphName="dieresis" x="0" y="200" flags="0x1004"/>
    </TTGlyph>
    <TTGlyph name="Agrave" xMin="27" yMin="1" xMax="432" yMax="936">
      <component glyphName="A" x="0" y="0" flags="0x1204"/>
      <component glyphName="grave" x="-11" y="200" flags="0x1004"/>
    </TTGlyph>
    <TTGlyph name="Atilde" xMin="27" yMin="1" xMax="432" yMax="855">
      <component glyphName="A" x="0" y="0" flags="0x1204"/>
      <component glyphName="tilde" x="-18" y="200" flags="0x1004"/>
    </TTGlyph>
    <TTGlyph name="B" xMin="78" yMin="0" xMax="423" yMax="710">
      <contour>
        <pt x="134" y="327" on="1"/>
        <pt x="134" y="58" on="1"/>
        <pt x="260" y="58" on="1"/>
        <pt x="290" y="58" on="0"/>
        <pt x="330" y="79" on="0"/>
        <pt x="354" y="115" on="0"/>
        <pt x="364" y="163" on="0"/>
        <pt x="364" y="190" on="1"/>
        <pt x="364" y="218" on="0"/>
        <pt x="354" y="268" on="0"/>
        <pt x="330" y="305" on="0"/>
        <pt x="290" y="327" on="0"/>
        <pt x="260" y="327" on="1"/>
      </contour>
      <contour>
        <pt x="341" y="517" on="1"/>
        <pt x="340" y="544" on="0"/>
        <pt x="324" y="593" on="0"/>
        <pt x="302" y="623" on="0"/>
        <pt x="291" y="632" on="1"/>
        <pt x="289" y="634" on="0"/>
        <pt x="286" y="635" on="1"/>
        <pt x="285" y="635" on="0"/>
        <pt x="285" y="636" on="1"/>
        <pt x="284" y="636" on="0"/>
        <pt x="283" y="637" on="1"/>
        <pt x="278" y="640" on="0"/>
        <pt x="257" y="652" on="0"/>
        <pt x="232" y="652" on="1"/>
        <pt x="222" y="652" on="0"/>
        <pt x="176" y="644" on="0"/>
        <pt x="134" y="626" on="1"/>
        <pt x="134" y="385" on="1"/>
        <pt x="237" y="385" on="1"/>
        <pt x="267" y="385" on="0"/>
        <pt x="307" y="406" on="0"/>
        <pt x="331" y="442" on="0"/>
        <pt x="341" y="490" on="0"/>
      </contour>
      <contour>
        <pt x="240" y="710" on="1"/>
        <pt x="276" y="710" on="0"/>
        <pt x="310" y="692" on="0"/>
        <pt x="315" y="689" on="1"/>
        <pt x="338" y="675" on="0"/>
        <pt x="378" y="626" on="0"/>
        <pt x="402" y="558" on="0"/>
        <pt x="402" y="521" on="1"/>
        <pt x="402" y="476" on="0"/>
        <pt x="380" y="390" on="0"/>
        <pt x="338" y="355" on="1"/>
        <pt x="365" y="337" on="0"/>
        <pt x="398" y="298" on="0"/>
        <pt x="416" y="258" on="0"/>
        <pt x="423" y="214" on="0"/>
        <pt x="423" y="190" on="1"/>
        <pt x="423" y="151" on="0"/>
        <pt x="403" y="82" on="0"/>
        <pt x="378" y="50" on="0"/>
        <pt x="373" y="44" on="1"/>
        <pt x="355" y="26" on="0"/>
        <pt x="302" y="0" on="0"/>
        <pt x="260" y="0" on="1"/>
        <pt x="78" y="0" on="1"/>
        <pt x="78" y="671" on="1"/>
        <pt x="116" y="686" on="0"/>
        <pt x="173" y="702" on="0"/>
        <pt x="185" y="704" on="1"/>
        <pt x="214" y="710" on="0"/>
      </contour>
    </TTGlyph>
    <TTGlyph name="C" xMin="67" yMin="-10" xMax="405" yMax="710">
      <contour>
        <pt x="121" y="188" on="1"/>
        <pt x="121" y="156" on="0"/>
        <pt x="143" y="104" on="0"/>
        <pt x="179" y="68" on="0"/>
        <pt x="227" y="47" on="0"/>
        <pt x="253" y="46" on="1"/>
        <pt x="261" y="46" on="0"/>
        <pt x="278" y="49" on="0"/>
        <pt x="305" y="59" on="0"/>
        <pt x="348" y="76" on="0"/>
        <pt x="383" y="90" on="1"/>
        <pt x="405" y="33" on="1"/>
        <pt x="324" y="4" on="1"/>
        <pt x="307" y="-2" on="0"/>
        <pt x="267" y="-10" on="0"/>
        <pt x="253" y="-10" on="1"/>
        <pt x="215" y="-10" on="0"/>
        <pt x="148" y="17" on="0"/>
        <pt x="97" y="67" on="0"/>
        <pt x="67" y="138" on="0"/>
        <pt x="67" y="183" on="1"/>
        <pt x="67" y="193" on="1"/>
        <pt x="67" y="506" on="1"/>
        <pt x="67" y="548" on="0"/>
        <pt x="96" y="621" on="0"/>
        <pt x="114" y="640" on="1"/>
        <pt x="132" y="660" on="0"/>
        <pt x="154" y="679" on="0"/>
        <pt x="166" y="686" on="1"/>
        <pt x="176" y="691" on="0"/>
        <pt x="216" y="710" on="0"/>
        <pt x="255" y="710" on="1"/>
        <pt x="269" y="710" on="0"/>
        <pt x="309" y="700" on="0"/>
        <pt x="325" y="695" on="1"/>
        <pt x="403" y="664" on="1"/>
        <pt x="385" y="612" on="1"/>
        <pt x="298" y="646" on="1"/>
        <pt x="288" y="650" on="0"/>
        <pt x="266" y="656" on="0"/>
        <pt x="256" y="656" on="1"/>
        <pt x="229" y="656" on="0"/>
        <pt x="181" y="631" on="0"/>
        <pt x="144" y="589" on="0"/>
        <pt x="123" y="535" on="0"/>
        <pt x="123" y="506" on="1"/>
      </contour>
    </TTGlyph>
    <TTGlyph name="Ccedilla" xMin="67" yMin="-222" xMax="405" yMax="710">
      <component glyphName="C" x="0" y="0" flags="0x1204"/>
      <component glyphName="cedilla" x="40" y="0" flags="0x1004"/>
    </TTGlyph>
    <TTGlyph name="D" xMin="73" yMin="-10" xMax="410" yMax="710">
      <contour>
        <pt x="73" y="671" on="1"/>
        <pt x="133" y="696" on="0"/>
        <pt x="214" y="710" on="0"/>
        <pt x="228" y="710" on="1"/>
        <pt x="267" y="710" on="0"/>
        <pt x="334" y="677" on="0"/>
        <pt x="382" y="622" on="0"/>
        <pt x="410" y="548" on="0"/>
        <pt x="410" y="507" on="1"/>
        <pt x="410" y="185" on="1"/>
        <pt x="410" y="143" on="0"/>
        <pt x="378" y="72" on="0"/>
        <pt x="325" y="19" on="0"/>
        <pt x="255" y="-10" on="0"/>
        <pt x="217" y="-10" on="1"/>
        <pt x="209" y="-10" on="0"/>
        <pt x="188" y="-8" on="0"/>
        <pt x="154" y="-1" on="0"/>
        <pt x="106" y="14" on="0"/>
        <pt x="73" y="27" on="1"/>
      </contour>
      <contour>
        <pt x="350" y="507" on="1"/>
        <pt x="350" y="552" on="0"/>
        <pt x="309" y="619" on="0"/>
        <pt x="284" y="635" on="1"/>
        <pt x="253" y="652" on="0"/>
        <pt x="228" y="652" on="1"/>
        <pt x="205" y="652" on="0"/>
        <pt x="151" y="632" on="0"/>
        <pt x="129" y="623" on="1"/>
        <pt x="129" y="73" on="1"/>
        <pt x="151" y="63" on="0"/>
        <pt x="183" y="53" on="0"/>
        <pt x="205" y="49" on="0"/>
        <pt x="220" y="49" on="0"/>
        <pt x="225" y="49" on="1"/>
        <pt x="250" y="49" on="0"/>
        <pt x="296" y="73" on="0"/>
        <pt x="331" y="113" on="0"/>
        <pt x="352" y="165" on="0"/>
        <pt x="352" y="194" on="1"/>
      </contour>
    </TTGlyph>
    <TTGlyph name="E" xMin="79" yMin="1" xMax="363" yMax="700">
      <contour>
        <pt x="361" y="700" on="1"/>
        <pt x="361" y="643" on="1"/>
        <pt x="136" y="643" on="1"/>
        <pt x="136" y="381" on="1"/>
        <pt x="312" y="381" on="1"/>
        <pt x="312" y="323" on="1"/>
        <pt x="136" y="323" on="1"/>
        <pt x="136" y="59" on="1"/>
        <pt x="363" y="59" on="1"/>
        <pt x="363" y="1" on="1"/>
        <pt x="79" y="1" on="1"/>
        <pt x="79" y="700" on="1"/>
      </contour>
    </TTGlyph>
    <TTGlyph name="Eacute" xMin="79" yMin="1" xMax="363" yMax="931">
      <component glyphName="E" x="0" y="0" flags="0x1204"/>
      <component glyphName="acute" x="-26" y="194" flags="0x1004"/>
    </TTGlyph>
    <TTGlyph name="Ecircumflex" xMin="69" yMin="1" xMax="363" yMax="951">
      <component glyphName="E" x="0" y="0" flags="0x1204"/>
      <component glyphName="circumflex" x="-1" y="200" flags="0x1004"/>
    </TTGlyph>
    <TTGlyph name="Edieresis" xMin="79" yMin="1" xMax="363" yMax="877">
      <component glyphName="E" x="0" y="0" flags="0x1204"/>
      <component glyphName="dieresis" x="-15" y="200" flags="0x1004"/>
    </TTGlyph>
    <TTGlyph name="Egrave" xMin="79" yMin="1" xMax="363" yMax="936">
      <component glyphName="E" x="0" y="0" flags="0x1204"/>
      <component glyphName="grave" x="-17" y="200" flags="0x1004"/>
    </TTGlyph>
    <TTGlyph name="Euro" xMin="42" yMin="0" xMax="412" yMax="664">
      <contour>
        <pt x="412" y="163" on="1"/>
        <pt x="412" y="137" on="1"/>
        <pt x="412" y="108" on="0"/>
        <pt x="391" y="58" on="0"/>
        <pt x="355" y="21" on="0"/>
        <pt x="307" y="0" on="0"/>
        <pt x="279" y="0" on="1"/>
        <pt x="246" y="0" on="1"/>
        <pt x="218" y="0" on="0"/>
        <pt x="170" y="21" on="0"/>
        <pt x="134" y="58" on="0"/>
        <pt x="114" y="108" on="0"/>
        <pt x="114" y="137" on="1"/>
        <pt x="114" y="250" on="1"/>
        <pt x="42" y="250" on="1"/>
        <pt x="42" y="294" on="1"/>
        <pt x="114" y="294" on="1"/>
        <pt x="114" y="370" on="1"/>
        <pt x="42" y="370" on="1"/>
        <pt x="42" y="414" on="1"/>
        <pt x="114" y="414" on="1"/>
        <pt x="114" y="527" on="1"/>
        <pt x="114" y="556" on="0"/>
        <pt x="135" y="606" on="0"/>
        <pt x="171" y="643" on="0"/>
        <pt x="219" y="664" on="0"/>
        <pt x="247" y="664" on="1"/>
        <pt x="280" y="664" on="1"/>
        <pt x="307" y="664" on="0"/>
        <pt x="355" y="643" on="0"/>
        <pt x="391" y="606" on="0"/>
        <pt x="412" y="556" on="0"/>
        <pt x="412" y="527" on="1"/>
        <pt x="412" y="504" on="1"/>
        <pt x="361" y="504" on="1"/>
        <pt x="361" y="527" on="1"/>
        <pt x="361" y="567" on="0"/>
        <pt x="305" y="610" on="0"/>
        <pt x="268" y="610" on="1"/>
        <pt x="247" y="610" on="0"/>
        <pt x="210" y="602" on="0"/>
        <pt x="182" y="582" on="0"/>
        <pt x="165" y="551" on="0"/>
        <pt x="165" y="527" on="1"/>
        <pt x="165" y="414" on="1"/>
        <pt x="318" y="414" on="1"/>
        <pt x="318" y="370" on="1"/>
        <pt x="165" y="370" on="1"/>
        <pt x="165" y="294" on="1"/>
        <pt x="318" y="294" on="1"/>
        <pt x="318" y="250" on="1"/>
        <pt x="165" y="250" on="1"/>
        <pt x="165" y="140" on="1"/>
        <pt x="165" y="104" on="0"/>
        <pt x="212" y="53" on="0"/>
        <pt x="247" y="53" on="1"/>
        <pt x="279" y="53" on="1"/>
        <pt x="313" y="53" on="0"/>
        <pt x="361" y="104" on="0"/>
        <pt x="361" y="140" on="1"/>
        <pt x="361" y="163" on="1"/>
      </contour>
    </TTGlyph>
    <TTGlyph name="F" xMin="78" yMin="0" xMax="360" yMax="700">
      <contour>
        <pt x="360" y="700" on="1"/>
        <pt x="360" y="643" on="1"/>
        <pt x="135" y="643" on="1"/>
        <pt x="135" y="380" on="1"/>
        <pt x="311" y="380" on="1"/>
        <pt x="311" y="323" on="1"/>
        <pt x="135" y="323" on="1"/>
        <pt x="135" y="0" on="1"/>
        <pt x="78" y="0" on="1"/>
        <pt x="78" y="700" on="1"/>
      </contour>
    </TTGlyph>
    <TTGlyph name="G" xMin="67" yMin="-10" xMax="394" yMax="710">
      <contour>
        <pt x="124" y="509" on="1"/>
        <pt x="124" y="177" on="1"/>
        <pt x="124" y="149" on="0"/>
        <pt x="145" y="101" on="0"/>
        <pt x="181" y="65" on="0"/>
        <pt x="228" y="44" on="0"/>
        <pt x="253" y="44" on="1"/>
        <pt x="263" y="44" on="0"/>
        <pt x="300" y="52" on="0"/>
        <pt x="338" y="72" on="1"/>
        <pt x="338" y="261" on="1"/>
        <pt x="394" y="261" on="1"/>
        <pt x="394" y="36" on="1"/>
        <pt x="337" y="6" on="0"/>
        <pt x="264" y="-10" on="0"/>
        <pt x="250" y="-10" on="1"/>
        <pt x="210" y="-10" on="0"/>
        <pt x="143" y="22" on="0"/>
        <pt x="94" y="77" on="0"/>
        <pt x="67" y="150" on="0"/>
        <pt x="67" y="191" on="1"/>
        <pt x="67" y="509" on="1"/>
        <pt x="71" y="603" on="0"/>
        <pt x="171" y="710" on="0"/>
        <pt x="252" y="710" on="1"/>
        <pt x="266" y="709" on="0"/>
        <pt x="306" y="701" on="0"/>
        <pt x="322" y="695" on="1"/>
        <pt x="385" y="671" on="1"/>
        <pt x="365" y="614" on="1"/>
        <pt x="295" y="641" on="1"/>
        <pt x="270" y="651" on="0"/>
        <pt x="252" y="651" on="1"/>
        <pt x="226" y="651" on="0"/>
        <pt x="179" y="628" on="0"/>
        <pt x="144" y="589" on="0"/>
        <pt x="124" y="537" on="0"/>
      </contour>
    </TTGlyph>
    <TTGlyph name="H" xMin="79" yMin="1" xMax="436" yMax="700">
      <contour>
        <pt x="79" y="700" on="1"/>
        <pt x="135" y="700" on="1"/>
        <pt x="135" y="383" on="1"/>
        <pt x="379" y="383" on="1"/>
        <pt x="379" y="700" on="1"/>
        <pt x="436" y="700" on="1"/>
        <pt x="436" y="1" on="1"/>
        <pt x="379" y="1" on="1"/>
        <pt x="379" y="324" on="1"/>
        <pt x="135" y="324" on="1"/>
        <pt x="135" y="1" on="1"/>
        <pt x="79" y="1" on="1"/>
        <pt x="79" y="700" on="1"/>
      </contour>
    </TTGlyph>
    <TTGlyph name="I" xMin="78" yMin="0" xMax="130" yMax="700">
      <contour>
        <pt x="78" y="700" on="1"/>
        <pt x="130" y="700" on="1"/>
        <pt x="130" y="0" on="1"/>
        <pt x="78" y="0" on="1"/>
      </contour>
    </TTGlyph>
    <TTGlyph name="Iacute" xMin="78" yMin="0" xMax="246" yMax="937">
      <component glyphName="I" x="0" y="0" flags="0x1204"/>
      <component glyphName="acute" x="-117" y="200" flags="0x1004"/>
    </TTGlyph>
    <TTGlyph name="Icircumflex" xMin="-22" yMin="0" xMax="233" yMax="951">
      <component glyphName="I" x="0" y="0" flags="0x1204"/>
      <component glyphName="circumflex" x="-92" y="200" flags="0x1004"/>
    </TTGlyph>
    <TTGlyph name="Idieresis" xMin="-23" yMin="0" xMax="233" yMax="877">
      <component glyphName="I" x="0" y="0" flags="0x1204"/>
      <component glyphName="dieresis" x="-127" y="200" flags="0x1004"/>
    </TTGlyph>
    <TTGlyph name="Igrave" xMin="-28" yMin="0" xMax="130" yMax="936">
      <component glyphName="I" x="0" y="0" flags="0x1204"/>
      <component glyphName="grave" x="-128" y="200" flags="0x1004"/>
    </TTGlyph>
    <TTGlyph name="J" xMin="15" yMin="-10" xMax="227" yMax="700">
      <contour>
        <pt x="227" y="136" on="1"/>
        <pt x="227" y="94" on="0"/>
        <pt x="218" y="38" on="0"/>
        <pt x="192" y="4" on="0"/>
        <pt x="145" y="-10" on="0"/>
        <pt x="108" y="-10" on="1"/>
        <pt x="104" y="-10" on="0"/>
        <pt x="79" y="-9" on="0"/>
        <pt x="49" y="-6" on="0"/>
        <pt x="22" y="-3" on="0"/>
        <pt x="15" y="-1" on="1"/>
        <pt x="26" y="58" on="1"/>
        <pt x="30" y="57" on="0"/>
        <pt x="55" y="54" on="0"/>
        <pt x="81" y="52" on="0"/>
        <pt x="103" y="50" on="0"/>
        <pt x="105" y="50" on="1"/>
        <pt x="118" y="50" on="0"/>
        <pt x="142" y="55" on="0"/>
        <pt x="160" y="72" on="0"/>
        <pt x="171" y="103" on="0"/>
        <pt x="171" y="129" on="1"/>
        <pt x="171" y="700" on="1"/>
        <pt x="227" y="700" on="1"/>
        <pt x="227" y="136" on="1"/>
      </contour>
    </TTGlyph>
    <TTGlyph name="K" xMin="78" yMin="0" xMax="367" yMax="700">
      <contour>
        <pt x="303" y="0" on="1"/>
        <pt x="162" y="319" on="1"/>
        <pt x="134" y="319" on="1"/>
        <pt x="134" y="0" on="1"/>
        <pt x="78" y="0" on="1"/>
        <pt x="78" y="700" on="1"/>
        <pt x="134" y="700" on="1"/>
        <pt x="134" y="379" on="1"/>
        <pt x="161" y="379" on="1"/>
        <pt x="305" y="698" on="1"/>
        <pt x="367" y="698" on="1"/>
        <pt x="214" y="348" on="1"/>
        <pt x="365" y="0" on="1"/>
      </contour>
    </TTGlyph>
    <TTGlyph name="L" xMin="78" yMin="0" xMax="357" yMax="700">
      <contour>
        <pt x="78" y="700" on="1"/>
        <pt x="135" y="700" on="1"/>
        <pt x="135" y="56" on="1"/>
        <pt x="357" y="56" on="1"/>
        <pt x="357" y="0" on="1"/>
        <pt x="78" y="0" on="1"/>
      </contour>
    </TTGlyph>
    <TTGlyph name="Lslash" xMin="12" yMin="1" xMax="360" yMax="700">
      <contour>
        <pt x="360" y="57" on="1"/>
        <pt x="360" y="1" on="1"/>
        <pt x="81" y="1" on="1"/>
        <pt x="81" y="210" on="1"/>
        <pt x="12" y="210" on="1"/>
        <pt x="12" y="264" on="1"/>
        <pt x="81" y="264" on="1"/>
        <pt x="81" y="700" on="1"/>
        <pt x="138" y="700" on="1"/>
        <pt x="138" y="264" on="1"/>
        <pt x="357" y="264" on="1"/>
        <pt x="357" y="210" on="1"/>
        <pt x="138" y="210" on="1"/>
        <pt x="138" y="57" on="1"/>
        <pt x="360" y="57" on="1"/>
      </contour>
    </TTGlyph>
    <TTGlyph name="M" xMin="78" yMin="0" xMax="530" yMax="700">
      <contour>
        <pt x="311" y="265" on="1"/>
        <pt x="443" y="700" on="1"/>
        <pt x="530" y="700" on="1"/>
        <pt x="530" y="0" on="1"/>
        <pt x="476" y="0" on="1"/>
        <pt x="476" y="582" on="1"/>
        <pt x="463" y="582" on="1"/>
        <pt x="346" y="206" on="1"/>
        <pt x="259" y="206" on="1"/>
        <pt x="143" y="582" on="1"/>
        <pt x="131" y="582" on="1"/>
        <pt x="131" y="0" on="1"/>
        <pt x="78" y="0" on="1"/>
        <pt x="78" y="700" on="1"/>
        <pt x="165" y="700" on="1"/>
        <pt x="295" y="265" on="1"/>
      </contour>
    </TTGlyph>
    <TTGlyph name="N" xMin="78" yMin="0" xMax="476" yMax="700">
      <contour>
        <pt x="476" y="700" on="1"/>
        <pt x="476" y="0" on="1"/>
        <pt x="379" y="0" on="1"/>
        <pt x="141" y="582" on="1"/>
        <pt x="129" y="582" on="1"/>
        <pt x="129" y="0" on="1"/>
        <pt x="78" y="0" on="1"/>
        <pt x="78" y="700" on="1"/>
        <pt x="150" y="700" on="1"/>
        <pt x="411" y="69" on="1"/>
        <pt x="424" y="69" on="1"/>
        <pt x="424" y="700" on="1"/>
      </contour>
    </TTGlyph>
    <TTGlyph name="Ntilde" xMin="78" yMin="0" xMax="476" yMax="855">
      <component glyphName="N" x="0" y="0" flags="0x1204"/>
      <component glyphName="tilde" x="28" y="200" flags="0x1004"/>
    </TTGlyph>
    <TTGlyph name="O" xMin="68" yMin="-9" xMax="452" yMax="709">
      <contour>
        <pt x="397" y="172" on="1"/>
        <pt x="397" y="523" on="1"/>
        <pt x="397" y="563" on="0"/>
        <pt x="366" y="612" on="0"/>
        <pt x="323" y="639" on="0"/>
        <pt x="276" y="648" on="0"/>
        <pt x="260" y="648" on="1"/>
        <pt x="244" y="648" on="0"/>
        <pt x="197" y="638" on="0"/>
        <pt x="153" y="611" on="0"/>
        <pt x="122" y="562" on="0"/>
        <pt x="122" y="522" on="1"/>
        <pt x="122" y="171" on="1"/>
        <pt x="122" y="131" on="0"/>
        <pt x="153" y="84" on="0"/>
        <pt x="197" y="59" on="0"/>
        <pt x="244" y="52" on="0"/>
        <pt x="260" y="52" on="1"/>
        <pt x="276" y="52" on="0"/>
        <pt x="323" y="60" on="0"/>
        <pt x="366" y="85" on="0"/>
        <pt x="397" y="132" on="0"/>
      </contour>
      <contour>
        <pt x="452" y="172" on="1"/>
        <pt x="452" y="150" on="0"/>
        <pt x="435" y="88" on="0"/>
        <pt x="391" y="31" on="0"/>
        <pt x="316" y="-9" on="0"/>
        <pt x="259" y="-9" on="1"/>
        <pt x="203" y="-9" on="0"/>
        <pt x="129" y="31" on="0"/>
        <pt x="86" y="88" on="0"/>
        <pt x="68" y="150" on="0"/>
        <pt x="68" y="172" on="1"/>
        <pt x="68" y="522" on="1"/>
        <pt x="68" y="544" on="0"/>
        <pt x="85" y="608" on="0"/>
        <pt x="129" y="667" on="0"/>
        <pt x="203" y="709" on="0"/>
        <pt x="260" y="709" on="1"/>
        <pt x="316" y="709" on="0"/>
        <pt x="390" y="667" on="0"/>
        <pt x="434" y="609" on="0"/>
        <pt x="452" y="545" on="0"/>
        <pt x="452" y="523" on="1"/>
      </contour>
    </TTGlyph>
    <TTGlyph name="OE" xMin="68" yMin="1" xMax="680" yMax="719">
      <contour>
        <pt x="396" y="551" on="1"/>
        <pt x="392" y="585" on="0"/>
        <pt x="360" y="627" on="0"/>
        <pt x="318" y="650" on="0"/>
        <pt x="275" y="658" on="0"/>
        <pt x="260" y="658" on="1"/>
        <pt x="244" y="658" on="0"/>
        <pt x="197" y="648" on="0"/>
        <pt x="153" y="621" on="0"/>
        <pt x="122" y="572" on="0"/>
        <pt x="122" y="532" on="1"/>
        <pt x="122" y="181" on="1"/>
        <pt x="122" y="141" on="0"/>
        <pt x="153" y="94" on="0"/>
        <pt x="197" y="69" on="0"/>
        <pt x="244" y="62" on="0"/>
        <pt x="260" y="62" on="1"/>
        <pt x="275" y="62" on="0"/>
        <pt x="318" y="69" on="0"/>
        <pt x="360" y="90" on="0"/>
        <pt x="392" y="130" on="0"/>
        <pt x="396" y="164" on="1"/>
      </contour>
      <contour>
        <pt x="396" y="50" on="1"/>
        <pt x="373" y="29" on="0"/>
        <pt x="307" y="1" on="0"/>
        <pt x="259" y="1" on="1"/>
        <pt x="203" y="1" on="0"/>
        <pt x="129" y="41" on="0"/>
        <pt x="86" y="98" on="0"/>
        <pt x="68" y="160" on="0"/>
        <pt x="68" y="182" on="1"/>
        <pt x="68" y="532" on="1"/>
        <pt x="68" y="554" on="0"/>
        <pt x="85" y="618" on="0"/>
        <pt x="129" y="677" on="0"/>
        <pt x="203" y="719" on="0"/>
        <pt x="260" y="719" on="1"/>
        <pt x="307" y="719" on="0"/>
        <pt x="373" y="689" on="0"/>
        <pt x="396" y="666" on="1"/>
        <pt x="396" y="710" on="1"/>
        <pt x="678" y="710" on="1"/>
        <pt x="678" y="653" on="1"/>
        <pt x="453" y="653" on="1"/>
        <pt x="453" y="391" on="1"/>
        <pt x="629" y="391" on="1"/>
        <pt x="629" y="333" on="1"/>
        <pt x="453" y="333" on="1"/>
        <pt x="453" y="69" on="1"/>
        <pt x="680" y="69" on="1"/>
        <pt x="680" y="11" on="1"/>
        <pt x="396" y="11" on="1"/>
      </contour>
    </TTGlyph>
    <TTGlyph name="Oacute" xMin="68" yMin="-9" xMax="452" yMax="937">
      <component glyphName="O" x="0" y="0" flags="0x1204"/>
      <component glyphName="acute" x="35" y="200" flags="0x1004"/>
    </TTGlyph>
    <TTGlyph name="Ocircumflex" xMin="68" yMin="-9" xMax="452" yMax="951">
      <component glyphName="O" x="0" y="0" flags="0x1204"/>
      <component glyphName="circumflex" x="62" y="200" flags="0x1004"/>
    </TTGlyph>
    <TTGlyph name="Odieresis" xMin="68" yMin="-9" xMax="452" yMax="877">
      <component glyphName="O" x="0" y="0" flags="0x1204"/>
      <component glyphName="dieresis" x="31" y="200" flags="0x1004"/>
    </TTGlyph>
    <TTGlyph name="Ograve" xMin="68" yMin="-9" xMax="452" yMax="936">
      <component glyphName="O" x="0" y="0" flags="0x1204"/>
      <component glyphName="grave" x="33" y="200" flags="0x1004"/>
    </TTGlyph>
    <TTGlyph name="Oslash" xMin="68" yMin="-66" xMax="452" yMax="766">
      <contour>
        <pt x="397" y="172" on="1"/>
        <pt x="397" y="523" on="1"/>
        <pt x="397" y="563" on="0"/>
        <pt x="366" y="612" on="0"/>
        <pt x="323" y="639" on="0"/>
        <pt x="276" y="648" on="0"/>
        <pt x="260" y="648" on="1"/>
        <pt x="244" y="648" on="0"/>
        <pt x="197" y="638" on="0"/>
        <pt x="153" y="611" on="0"/>
        <pt x="122" y="562" on="0"/>
        <pt x="122" y="522" on="1"/>
        <pt x="122" y="171" on="1"/>
        <pt x="122" y="131" on="0"/>
        <pt x="153" y="84" on="0"/>
        <pt x="197" y="59" on="0"/>
        <pt x="244" y="52" on="0"/>
        <pt x="260" y="52" on="1"/>
        <pt x="276" y="52" on="0"/>
        <pt x="323" y="60" on="0"/>
        <pt x="366" y="85" on="0"/>
        <pt x="397" y="132" on="0"/>
      </contour>
      <contour>
        <pt x="452" y="172" on="1"/>
        <pt x="452" y="150" on="0"/>
        <pt x="435" y="88" on="0"/>
        <pt x="391" y="31" on="0"/>
        <pt x="316" y="-9" on="0"/>
        <pt x="259" y="-9" on="1"/>
        <pt x="203" y="-9" on="0"/>
        <pt x="129" y="31" on="0"/>
        <pt x="86" y="88" on="0"/>
        <pt x="68" y="150" on="0"/>
        <pt x="68" y="172" on="1"/>
        <pt x="68" y="522" on="1"/>
        <pt x="68" y="544" on="0"/>
        <pt x="85" y="608" on="0"/>
        <pt x="129" y="667" on="0"/>
        <pt x="203" y="709" on="0"/>
        <pt x="260" y="709" on="1"/>
        <pt x="316" y="709" on="0"/>
        <pt x="390" y="667" on="0"/>
        <pt x="434" y="609" on="0"/>
        <pt x="452" y="545" on="0"/>
        <pt x="452" y="523" on="1"/>
      </contour>
      <contour>
        <pt x="291" y="766" on="1"/>
        <pt x="351" y="766" on="1"/>
        <pt x="229" y="-66" on="1"/>
        <pt x="169" y="-66" on="1"/>
      </contour>
    </TTGlyph>
    <TTGlyph name="Otilde" xMin="68" yMin="-9" xMax="452" yMax="855">
      <component glyphName="O" x="0" y="0" flags="0x1204"/>
      <component glyphName="tilde" x="12" y="200" flags="0x1004"/>
    </TTGlyph>
    <TTGlyph name="P" xMin="78" yMin="0" xMax="460" yMax="710">
      <contour>
        <pt x="243" y="652" on="1"/>
        <pt x="225" y="652" on="0"/>
        <pt x="187" y="643" on="0"/>
        <pt x="170" y="638" on="1"/>
        <pt x="151" y="632" on="0"/>
        <pt x="132" y="625" on="1"/>
        <pt x="132" y="344" on="1"/>
        <pt x="243" y="344" on="1"/>
        <pt x="315" y="344" on="0"/>
        <pt x="403" y="424" on="0"/>
        <pt x="403" y="503" on="1"/>
        <pt x="403" y="581" on="0"/>
        <pt x="314" y="652" on="0"/>
      </contour>
      <contour>
        <pt x="251" y="710" on="1"/>
        <pt x="292" y="710" on="0"/>
        <pt x="368" y="681" on="0"/>
        <pt x="426" y="627" on="0"/>
        <pt x="460" y="550" on="0"/>
        <pt x="460" y="503" on="1"/>
        <pt x="460" y="455" on="0"/>
        <pt x="428" y="375" on="0"/>
        <pt x="372" y="318" on="0"/>
        <pt x="295" y="286" on="0"/>
        <pt x="250" y="286" on="1"/>
        <pt x="131" y="286" on="1"/>
        <pt x="131" y="0" on="1"/>
        <pt x="78" y="0" on="1"/>
        <pt x="78" y="671" on="1"/>
        <pt x="104" y="681" on="0"/>
        <pt x="133" y="690" on="1"/>
        <pt x="158" y="698" on="0"/>
        <pt x="219" y="710" on="0"/>
      </contour>
    </TTGlyph>
    <TTGlyph name="Q" xMin="68" yMin="-101" xMax="452" yMax="709">
      <contour>
        <pt x="395" y="521" on="1"/>
        <pt x="395" y="561" on="0"/>
        <pt x="365" y="611" on="0"/>
        <pt x="322" y="640" on="0"/>
        <pt x="276" y="651" on="0"/>
        <pt x="260" y="651" on="1"/>
        <pt x="244" y="651" on="0"/>
        <pt x="198" y="640" on="0"/>
        <pt x="155" y="612" on="0"/>
        <pt x="124" y="562" on="0"/>
        <pt x="124" y="522" on="1"/>
        <pt x="124" y="171" on="1"/>
        <pt x="124" y="131" on="0"/>
        <pt x="155" y="84" on="0"/>
        <pt x="198" y="59" on="0"/>
        <pt x="244" y="52" on="0"/>
        <pt x="260" y="52" on="1"/>
        <pt x="276" y="52" on="0"/>
        <pt x="322" y="59" on="0"/>
        <pt x="365" y="84" on="0"/>
        <pt x="395" y="131" on="0"/>
        <pt x="395" y="171" on="1"/>
      </contour>
      <contour>
        <pt x="452" y="171" on="1"/>
        <pt x="452" y="151" on="0"/>
        <pt x="438" y="97" on="0"/>
        <pt x="405" y="45" on="0"/>
        <pt x="349" y="3" on="0"/>
        <pt x="306" y="-5" on="1"/>
        <pt x="316" y="-29" on="0"/>
        <pt x="340" y="-40" on="1"/>
        <pt x="323" y="-101" on="1"/>
        <pt x="294" y="-89" on="0"/>
        <pt x="252" y="-44" on="0"/>
        <pt x="243" y="-9" on="1"/>
        <pt x="192" y="-6" on="0"/>
        <pt x="125" y="35" on="0"/>
        <pt x="84" y="91" on="0"/>
        <pt x="68" y="151" on="0"/>
        <pt x="68" y="172" on="1"/>
        <pt x="68" y="521" on="1"/>
        <pt x="68" y="543" on="0"/>
        <pt x="85" y="607" on="0"/>
        <pt x="129" y="667" on="0"/>
        <pt x="203" y="709" on="0"/>
        <pt x="260" y="709" on="1"/>
        <pt x="316" y="709" on="0"/>
        <pt x="390" y="667" on="0"/>
        <pt x="434" y="607" on="0"/>
        <pt x="452" y="543" on="0"/>
        <pt x="452" y="521" on="1"/>
      </contour>
    </TTGlyph>
    <TTGlyph name="R" xMin="78" yMin="0" xMax="469" yMax="710">
      <contour>
        <pt x="243" y="652" on="1"/>
        <pt x="225" y="652" on="0"/>
        <pt x="187" y="644" on="0"/>
        <pt x="170" y="639" on="1"/>
        <pt x="151" y="633" on="0"/>
        <pt x="132" y="626" on="1"/>
        <pt x="132" y="345" on="1"/>
        <pt x="243" y="345" on="1"/>
        <pt x="315" y="345" on="0"/>
        <pt x="403" y="431" on="0"/>
        <pt x="403" y="510" on="1"/>
        <pt x="403" y="549" on="0"/>
        <pt x="379" y="603" on="0"/>
        <pt x="337" y="637" on="0"/>
        <pt x="278" y="652" on="0"/>
      </contour>
      <contour>
        <pt x="345" y="305" on="1"/>
        <pt x="469" y="0" on="1"/>
        <pt x="413" y="0" on="1"/>
        <pt x="289" y="290" on="1"/>
        <pt x="271" y="287" on="0"/>
        <pt x="250" y="287" on="1"/>
        <pt x="131" y="287" on="1"/>
        <pt x="131" y="0" on="1"/>
        <pt x="78" y="0" on="1"/>
        <pt x="78" y="671" on="1"/>
        <pt x="105" y="681" on="0"/>
        <pt x="134" y="690" on="1"/>
        <pt x="159" y="698" on="0"/>
        <pt x="220" y="710" on="0"/>
        <pt x="251" y="710" on="1"/>
        <pt x="292" y="710" on="0"/>
        <pt x="368" y="683" on="0"/>
        <pt x="426" y="632" on="0"/>
        <pt x="460" y="558" on="0"/>
        <pt x="460" y="510" on="1"/>
        <pt x="460" y="476" on="0"/>
        <pt x="444" y="411" on="0"/>
        <pt x="414" y="357" on="0"/>
        <pt x="371" y="316" on="0"/>
      </contour>
    </TTGlyph>
    <TTGlyph name="S" xMin="43" yMin="1" xMax="440" yMax="710">
      <contour>
        <pt x="440" y="205" on="1"/>
        <pt x="440" y="163" on="0"/>
        <pt x="411" y="89" on="0"/>
        <pt x="360" y="34" on="0"/>
        <pt x="290" y="1" on="0"/>
        <pt x="250" y="1" on="1"/>
        <pt x="211" y="1" on="0"/>
        <pt x="137" y="21" on="0"/>
        <pt x="108" y="33" on="1"/>
        <pt x="74" y="47" on="0"/>
        <pt x="43" y="66" on="1"/>
        <pt x="63" y="121" on="1"/>
        <pt x="97" y="103" on="0"/>
        <pt x="130" y="90" on="1"/>
        <pt x="159" y="79" on="0"/>
        <pt x="223" y="60" on="0"/>
        <pt x="249" y="60" on="1"/>
        <pt x="277" y="60" on="0"/>
        <pt x="326" y="82" on="0"/>
        <pt x="362" y="121" on="0"/>
        <pt x="382" y="173" on="0"/>
        <pt x="382" y="203" on="1"/>
        <pt x="382" y="234" on="0"/>
        <pt x="354" y="275" on="0"/>
        <pt x="311" y="302" on="0"/>
        <pt x="259" y="317" on="0"/>
        <pt x="234" y="321" on="1"/>
        <pt x="197" y="327" on="0"/>
        <pt x="132" y="357" on="0"/>
        <pt x="83" y="405" on="0"/>
        <pt x="55" y="469" on="0"/>
        <pt x="55" y="509" on="1"/>
        <pt x="55" y="550" on="0"/>
        <pt x="84" y="623" on="0"/>
        <pt x="135" y="678" on="0"/>
        <pt x="203" y="710" on="0"/>
        <pt x="241" y="710" on="1"/>
        <pt x="265" y="710" on="0"/>
        <pt x="316" y="699" on="0"/>
        <pt x="338" y="693" on="1"/>
        <pt x="363" y="685" on="0"/>
        <pt x="387" y="676" on="1"/>
        <pt x="368" y="620" on="1"/>
        <pt x="346" y="629" on="0"/>
        <pt x="323" y="636" on="1"/>
        <pt x="303" y="642" on="0"/>
        <pt x="259" y="652" on="0"/>
        <pt x="239" y="652" on="1"/>
        <pt x="212" y="652" on="0"/>
        <pt x="165" y="629" on="0"/>
        <pt x="131" y="590" on="0"/>
        <pt x="111" y="539" on="0"/>
        <pt x="111" y="512" on="1"/>
        <pt x="111" y="481" on="0"/>
        <pt x="136" y="434" on="0"/>
        <pt x="175" y="402" on="0"/>
        <pt x="223" y="383" on="0"/>
        <pt x="245" y="379" on="1"/>
        <pt x="286" y="372" on="0"/>
        <pt x="357" y="346" on="0"/>
        <pt x="410" y="305" on="0"/>
        <pt x="440" y="245" on="0"/>
      </contour>
    </TTGlyph>
    <TTGlyph name="Scaron" xMin="43" yMin="1" xMax="440" yMax="950">
      <component glyphName="S" x="0" y="0" flags="0x1204"/>
      <component glyphName="caron" x="48" y="200" flags="0x1004"/>
    </TTGlyph>
    <TTGlyph name="T" xMin="19" yMin="0" xMax="399" yMax="700">
      <contour>
        <pt x="399" y="700" on="1"/>
        <pt x="399" y="646" on="1"/>
        <pt x="239" y="646" on="1"/>
        <pt x="239" y="0" on="1"/>
        <pt x="185" y="0" on="1"/>
        <pt x="185" y="646" on="1"/>
        <pt x="19" y="646" on="1"/>
        <pt x="19" y="700" on="1"/>
        <pt x="399" y="700" on="1"/>
      </contour>
    </TTGlyph>
    <TTGlyph name="Thorn" xMin="78" yMin="-249" xMax="377" yMax="700">
      <contour>
        <pt x="130" y="71" on="1"/>
        <pt x="159" y="56" on="0"/>
        <pt x="213" y="42" on="0"/>
        <pt x="245" y="42" on="1"/>
        <pt x="262" y="42" on="0"/>
        <pt x="292" y="56" on="0"/>
        <pt x="314" y="80" on="0"/>
        <pt x="327" y="111" on="0"/>
        <pt x="327" y="129" on="1"/>
        <pt x="327" y="372" on="1"/>
        <pt x="327" y="408" on="0"/>
        <pt x="279" y="459" on="0"/>
        <pt x="244" y="459" on="1"/>
        <pt x="220" y="459" on="0"/>
        <pt x="153" y="442" on="0"/>
        <pt x="130" y="424" on="1"/>
      </contour>
      <contour>
        <pt x="129" y="482" on="1"/>
        <pt x="169" y="503" on="0"/>
        <pt x="227" y="510" on="0"/>
        <pt x="244" y="510" on="1"/>
        <pt x="272" y="510" on="0"/>
        <pt x="320" y="488" on="0"/>
        <pt x="356" y="449" on="0"/>
        <pt x="377" y="398" on="0"/>
        <pt x="377" y="369" on="1"/>
        <pt x="377" y="133" on="1"/>
        <pt x="377" y="104" on="0"/>
        <pt x="356" y="53" on="0"/>
        <pt x="320" y="15" on="0"/>
        <pt x="272" y="-7" on="0"/>
        <pt x="244" y="-7" on="1"/>
        <pt x="223" y="-7" on="0"/>
        <pt x="160" y="3" on="0"/>
        <pt x="128" y="19" on="1"/>
        <pt x="128" y="-249" on="1"/>
        <pt x="78" y="-249" on="1"/>
        <pt x="78" y="700" on="1"/>
        <pt x="79" y="700" on="1"/>
        <pt x="128" y="700" on="1"/>
        <pt x="129" y="700" on="1"/>
      </contour>
    </TTGlyph>
    <TTGlyph name="U" xMin="77" yMin="-7" xMax="457" yMax="701">
      <contour>
        <pt x="267" y="43" on="1"/>
        <pt x="285" y="43" on="0"/>
        <pt x="333" y="54" on="0"/>
        <pt x="376" y="83" on="0"/>
        <pt x="405" y="133" on="0"/>
        <pt x="405" y="173" on="1"/>
        <pt x="405" y="701" on="1"/>
        <pt x="457" y="701" on="1"/>
        <pt x="457" y="173" on="1"/>
        <pt x="457" y="144" on="0"/>
        <pt x="439" y="81" on="0"/>
        <pt x="396" y="28" on="0"/>
        <pt x="322" y="-7" on="0"/>
        <pt x="267" y="-7" on="1"/>
        <pt x="212" y="-7" on="0"/>
        <pt x="139" y="28" on="0"/>
        <pt x="95" y="81" on="0"/>
        <pt x="77" y="144" on="0"/>
        <pt x="77" y="173" on="1"/>
        <pt x="77" y="701" on="1"/>
        <pt x="129" y="701" on="1"/>
        <pt x="129" y="173" on="1"/>
        <pt x="129" y="133" on="0"/>
        <pt x="157" y="83" on="0"/>
        <pt x="198" y="54" on="0"/>
        <pt x="246" y="43" on="0"/>
      </contour>
    </TTGlyph>
    <TTGlyph name="Uacute" xMin="77" yMin="-7" xMax="457" yMax="937">
      <component glyphName="U" x="0" y="0" flags="0x1204"/>
      <component glyphName="acute" x="31" y="200" flags="0x1004"/>
    </TTGlyph>
    <TTGlyph name="Ucircumflex" xMin="77" yMin="-7" xMax="457" yMax="951">
      <component glyphName="U" x="0" y="0" flags="0x1204"/>
      <component glyphName="circumflex" x="69" y="200" flags="0x1004"/>
    </TTGlyph>
    <TTGlyph name="Udieresis" xMin="77" yMin="-7" xMax="457" yMax="877">
      <component glyphName="U" x="0" y="0" flags="0x1204"/>
      <component glyphName="dieresis" x="33" y="200" flags="0x1004"/>
    </TTGlyph>
    <TTGlyph name="Ugrave" xMin="77" yMin="-7" xMax="457" yMax="936">
      <component glyphName="U" x="0" y="0" flags="0x1204"/>
      <component glyphName="grave" x="41" y="200" flags="0x1004"/>
    </TTGlyph>
    <TTGlyph name="V" xMin="27" yMin="0" xMax="431" yMax="700">
      <contour>
        <pt x="375" y="700" on="1"/>
        <pt x="431" y="700" on="1"/>
        <pt x="269" y="0" on="1"/>
        <pt x="184" y="0" on="1"/>
        <pt x="27" y="700" on="1"/>
        <pt x="82" y="700" on="1"/>
        <pt x="221" y="66" on="1"/>
        <pt x="234" y="66" on="1"/>
        <pt x="245" y="112" on="0"/>
        <pt x="256" y="165" on="1"/>
        <pt x="266" y="210" on="0"/>
        <pt x="291" y="323" on="0"/>
        <pt x="305" y="383" on="1"/>
        <pt x="336" y="522" on="0"/>
      </contour>
    </TTGlyph>
    <TTGlyph name="W" xMin="34" yMin="1" xMax="575" yMax="700">
      <contour>
        <pt x="301" y="363" on="1"/>
        <pt x="222" y="1" on="1"/>
        <pt x="136" y="1" on="1"/>
        <pt x="34" y="700" on="1"/>
        <pt x="86" y="700" on="1"/>
        <pt x="178" y="65" on="1"/>
        <pt x="186" y="65" on="1"/>
        <pt x="267" y="427" on="1"/>
        <pt x="343" y="427" on="1"/>
        <pt x="423" y="65" on="1"/>
        <pt x="431" y="65" on="1"/>
        <pt x="523" y="700" on="1"/>
        <pt x="575" y="700" on="1"/>
        <pt x="473" y="1" on="1"/>
        <pt x="387" y="1" on="1"/>
        <pt x="309" y="363" on="1"/>
      </contour>
    </TTGlyph>
    <TTGlyph name="X" xMin="25" yMin="0" xMax="428" yMax="700">
      <contour>
        <pt x="214" y="318" on="1"/>
        <pt x="81" y="0" on="1"/>
        <pt x="25" y="0" on="1"/>
        <pt x="171" y="347" on="1"/>
        <pt x="25" y="700" on="1"/>
        <pt x="81" y="700" on="1"/>
        <pt x="218" y="378" on="1"/>
        <pt x="235" y="378" on="1"/>
        <pt x="372" y="700" on="1"/>
        <pt x="428" y="700" on="1"/>
        <pt x="282" y="347" on="1"/>
        <pt x="427" y="0" on="1"/>
        <pt x="370" y="0" on="1"/>
        <pt x="238" y="318" on="1"/>
      </contour>
    </TTGlyph>
    <TTGlyph name="Y" xMin="15" yMin="0" xMax="418" yMax="700">
      <contour>
        <pt x="260" y="318" on="1"/>
        <pt x="246" y="318" on="1"/>
        <pt x="246" y="0" on="1"/>
        <pt x="186" y="0" on="1"/>
        <pt x="186" y="318" on="1"/>
        <pt x="174" y="318" on="1"/>
        <pt x="15" y="700" on="1"/>
        <pt x="71" y="700" on="1"/>
        <pt x="208" y="378" on="1"/>
        <pt x="225" y="378" on="1"/>
        <pt x="362" y="700" on="1"/>
        <pt x="418" y="700" on="1"/>
      </contour>
    </TTGlyph>
    <TTGlyph name="Yacute" xMin="15" yMin="0" xMax="418" yMax="937">
      <component glyphName="Y" x="0" y="0" flags="0x1204"/>
      <component glyphName="acute" x="-21" y="200" flags="0x1004"/>
    </TTGlyph>
    <TTGlyph name="Ydieresis" xMin="15" yMin="0" xMax="418" yMax="877">
      <component glyphName="Y" x="0" y="0" flags="0x1204"/>
      <component glyphName="dieresis" x="-12" y="200" flags="0x1004"/>
    </TTGlyph>
    <TTGlyph name="Z" xMin="33" yMin="0" xMax="422" yMax="700">
      <contour>
        <pt x="332" y="627" on="1"/>
        <pt x="332" y="641" on="1"/>
        <pt x="56" y="641" on="1"/>
        <pt x="56" y="700" on="1"/>
        <pt x="406" y="700" on="1"/>
        <pt x="406" y="642" on="1"/>
        <pt x="107" y="75" on="1"/>
        <pt x="107" y="59" on="1"/>
        <pt x="422" y="59" on="1"/>
        <pt x="422" y="0" on="1"/>
        <pt x="33" y="0" on="1"/>
        <pt x="33" y="66" on="1"/>
      </contour>
    </TTGlyph>
    <TTGlyph name="Zcaron" xMin="33" yMin="0" xMax="422" yMax="950">
      <component glyphName="Z" x="0" y="0" flags="0x1204"/>
      <component glyphName="caron" x="29" y="200" flags="0x1004"/>
    </TTGlyph>
    <TTGlyph name="a" xMin="47" yMin="-10" xMax="364" yMax="510">
      <contour>
        <pt x="294" y="243" on="1"/>
        <pt x="294" y="244" on="0"/>
        <pt x="276" y="255" on="0"/>
        <pt x="245" y="268" on="0"/>
        <pt x="203" y="279" on="0"/>
        <pt x="180" y="279" on="1"/>
        <pt x="163" y="279" on="0"/>
        <pt x="132" y="265" on="0"/>
        <pt x="110" y="241" on="0"/>
        <pt x="97" y="210" on="0"/>
        <pt x="97" y="192" on="1"/>
        <pt x="97" y="129" on="1"/>
        <pt x="97" y="111" on="0"/>
        <pt x="110" y="80" on="0"/>
        <pt x="132" y="57" on="0"/>
        <pt x="162" y="43" on="0"/>
        <pt x="179" y="43" on="1"/>
        <pt x="194" y="43" on="0"/>
        <pt x="233" y="54" on="0"/>
        <pt x="251" y="61" on="1"/>
        <pt x="272" y="69" on="0"/>
        <pt x="294" y="79" on="1"/>
      </contour>
      <contour>
        <pt x="345" y="49" on="1"/>
        <pt x="364" y="31" on="1"/>
        <pt x="328" y="-5" on="1"/>
        <pt x="301" y="22" on="1"/>
        <pt x="269" y="4" on="0"/>
        <pt x="200" y="-10" on="0"/>
        <pt x="180" y="-10" on="1"/>
        <pt x="152" y="-10" on="0"/>
        <pt x="103" y="13" on="0"/>
        <pt x="67" y="52" on="0"/>
        <pt x="47" y="104" on="0"/>
        <pt x="47" y="133" on="1"/>
        <pt x="47" y="189" on="1"/>
        <pt x="47" y="218" on="0"/>
        <pt x="67" y="269" on="0"/>
        <pt x="103" y="307" on="0"/>
        <pt x="152" y="329" on="0"/>
        <pt x="180" y="329" on="1"/>
        <pt x="187" y="329" on="0"/>
        <pt x="216" y="327" on="0"/>
        <pt x="249" y="321" on="0"/>
        <pt x="283" y="310" on="0"/>
        <pt x="295" y="301" on="1"/>
        <pt x="295" y="335" on="1"/>
        <pt x="295" y="358" on="0"/>
        <pt x="278" y="403" on="0"/>
        <pt x="250" y="439" on="0"/>
        <pt x="212" y="461" on="0"/>
        <pt x="190" y="461" on="1"/>
        <pt x="182" y="461" on="0"/>
        <pt x="141" y="451" on="0"/>
        <pt x="119" y="446" on="1"/>
        <pt x="93" y="440" on="0"/>
        <pt x="63" y="432" on="1"/>
        <pt x="49" y="479" on="1"/>
        <pt x="82" y="487" on="0"/>
        <pt x="110" y="494" on="1"/>
        <pt x="134" y="500" on="0"/>
        <pt x="180" y="510" on="0"/>
        <pt x="190" y="510" on="1"/>
        <pt x="222" y="510" on="0"/>
        <pt x="278" y="480" on="0"/>
        <pt x="320" y="431" on="0"/>
        <pt x="344" y="368" on="0"/>
        <pt x="344" y="335" on="1"/>
      </contour>
    </TTGlyph>
    <TTGlyph name="aacute" xMin="47" yMin="-10" xMax="364" yMax="737">
      <component glyphName="a" x="0" y="0" flags="0x1204"/>
      <component glyphName="acute" x="-30" y="0" flags="0x1004"/>
    </TTGlyph>
    <TTGlyph name="acircumflex" xMin="47" yMin="-10" xMax="364" yMax="751">
      <component glyphName="a" x="0" y="0" flags="0x1204"/>
      <component glyphName="circumflex" x="8" y="0" flags="0x1004"/>
    </TTGlyph>
    <TTGlyph name="acute" xMin="205" yMin="590" xMax="363" yMax="737">
      <contour>
        <pt x="257" y="590" on="1"/>
        <pt x="205" y="590" on="1"/>
        <pt x="302" y="737" on="1"/>
        <pt x="363" y="737" on="1"/>
      </contour>
    </TTGlyph>
    <TTGlyph name="adieresis" xMin="47" yMin="-10" xMax="364" yMax="677">
      <component glyphName="a" x="0" y="0" flags="0x1204"/>
      <component glyphName="dieresis" x="-32" y="0" flags="0x1004"/>
    </TTGlyph>
    <TTGlyph name="ae" xMin="47" yMin="-10" xMax="600" yMax="510">
      <contour>
        <pt x="300" y="24" on="1"/>
        <pt x="268" y="4" on="0"/>
        <pt x="200" y="-10" on="0"/>
        <pt x="180" y="-10" on="1"/>
        <pt x="152" y="-10" on="0"/>
        <pt x="103" y="13" on="0"/>
        <pt x="67" y="52" on="0"/>
        <pt x="47" y="104" on="0"/>
        <pt x="47" y="133" on="1"/>
        <pt x="47" y="189" on="1"/>
        <pt x="47" y="218" on="0"/>
        <pt x="67" y="269" on="0"/>
        <pt x="103" y="307" on="0"/>
        <pt x="152" y="329" on="0"/>
        <pt x="180" y="329" on="1"/>
        <pt x="187" y="329" on="0"/>
        <pt x="214" y="327" on="0"/>
        <pt x="247" y="321" on="0"/>
        <pt x="281" y="311" on="0"/>
        <pt x="293" y="302" on="1"/>
        <pt x="293" y="349" on="1"/>
        <pt x="290" y="370" on="0"/>
        <pt x="272" y="411" on="0"/>
        <pt x="245" y="442" on="0"/>
        <pt x="210" y="461" on="0"/>
        <pt x="190" y="461" on="1"/>
        <pt x="182" y="461" on="0"/>
        <pt x="141" y="451" on="0"/>
        <pt x="119" y="446" on="1"/>
        <pt x="93" y="440" on="0"/>
        <pt x="63" y="432" on="1"/>
        <pt x="49" y="479" on="1"/>
        <pt x="82" y="487" on="0"/>
        <pt x="110" y="494" on="1"/>
        <pt x="134" y="500" on="0"/>
        <pt x="180" y="510" on="0"/>
        <pt x="190" y="510" on="1"/>
        <pt x="227" y="510" on="0"/>
        <pt x="290" y="471" on="0"/>
        <pt x="311" y="440" on="1"/>
        <pt x="328" y="472" on="0"/>
        <pt x="391" y="510" on="0"/>
        <pt x="429" y="510" on="1"/>
        <pt x="463" y="510" on="1"/>
        <pt x="491" y="510" on="0"/>
        <pt x="541" y="488" on="0"/>
        <pt x="579" y="450" on="0"/>
        <pt x="600" y="398" on="0"/>
        <pt x="600" y="368" on="1"/>
        <pt x="600" y="335" on="1"/>
        <pt x="600" y="293" on="0"/>
        <pt x="570" y="236" on="0"/>
        <pt x="518" y="200" on="0"/>
        <pt x="449" y="185" on="0"/>
        <pt x="410" y="185" on="1"/>
        <pt x="394" y="185" on="0"/>
        <pt x="362" y="187" on="0"/>
        <pt x="345" y="189" on="1"/>
        <pt x="345" y="129" on="1"/>
        <pt x="352" y="89" on="0"/>
        <pt x="413" y="42" on="0"/>
        <pt x="452" y="42" on="1"/>
        <pt x="456" y="42" on="0"/>
        <pt x="499" y="51" on="0"/>
        <pt x="523" y="56" on="1"/>
        <pt x="551" y="62" on="0"/>
        <pt x="585" y="70" on="1"/>
        <pt x="597" y="17" on="1"/>
        <pt x="560" y="9" on="0"/>
        <pt x="530" y="4" on="1"/>
        <pt x="504" y="-1" on="0"/>
        <pt x="457" y="-9" on="0"/>
        <pt x="452" y="-9" on="1"/>
        <pt x="434" y="-9" on="0"/>
        <pt x="396" y="0" on="0"/>
        <pt x="363" y="15" on="0"/>
        <pt x="336" y="34" on="0"/>
        <pt x="329" y="44" on="1"/>
        <pt x="325" y="42" on="0"/>
        <pt x="321" y="38" on="1"/>
        <pt x="317" y="35" on="0"/>
        <pt x="307" y="28" on="0"/>
      </contour>
      <contour>
        <pt x="180" y="279" on="1"/>
        <pt x="163" y="279" on="0"/>
        <pt x="132" y="265" on="0"/>
        <pt x="110" y="241" on="0"/>
        <pt x="97" y="210" on="0"/>
        <pt x="97" y="192" on="1"/>
        <pt x="97" y="129" on="1"/>
        <pt x="97" y="111" on="0"/>
        <pt x="110" y="80" on="0"/>
        <pt x="132" y="57" on="0"/>
        <pt x="162" y="43" on="0"/>
        <pt x="179" y="43" on="1"/>
        <pt x="194" y="43" on="0"/>
        <pt x="233" y="54" on="0"/>
        <pt x="251" y="61" on="1"/>
        <pt x="272" y="69" on="0"/>
        <pt x="294" y="79" on="1"/>
        <pt x="294" y="127" on="1"/>
        <pt x="293" y="132" on="0"/>
        <pt x="293" y="142" on="0"/>
        <pt x="293" y="147" on="1"/>
        <pt x="293" y="244" on="1"/>
        <pt x="290" y="246" on="0"/>
        <pt x="271" y="257" on="0"/>
        <pt x="241" y="269" on="0"/>
        <pt x="202" y="279" on="0"/>
      </contour>
      <contour>
        <pt x="463" y="242" on="1"/>
        <pt x="481" y="241" on="0"/>
        <pt x="512" y="255" on="0"/>
        <pt x="535" y="280" on="0"/>
        <pt x="548" y="313" on="0"/>
        <pt x="548" y="331" on="1"/>
        <pt x="548" y="373" on="1"/>
        <pt x="548" y="397" on="0"/>
        <pt x="530" y="430" on="0"/>
        <pt x="501" y="450" on="0"/>
        <pt x="462" y="459" on="0"/>
        <pt x="441" y="459" on="1"/>
        <pt x="422" y="459" on="0"/>
        <pt x="387" y="447" on="0"/>
        <pt x="361" y="425" on="0"/>
        <pt x="345" y="393" on="0"/>
        <pt x="345" y="373" on="1"/>
        <pt x="345" y="242" on="1"/>
      </contour>
    </TTGlyph>
    <TTGlyph name="agrave" xMin="47" yMin="-10" xMax="364" yMax="736">
      <component glyphName="a" x="0" y="0" flags="0x1204"/>
      <component glyphName="grave" x="-23" y="0" flags="0x1004"/>
    </TTGlyph>
    <TTGlyph name="ampersand" xMin="31" yMin="-9" xMax="591" yMax="714">
      <contour>
        <pt x="416" y="129" on="1"/>
        <pt x="217" y="342" on="1"/>
        <pt x="162" y="310" on="1"/>
        <pt x="127" y="289" on="0"/>
        <pt x="86" y="232" on="0"/>
        <pt x="86" y="192" on="1"/>
        <pt x="86" y="159" on="0"/>
        <pt x="111" y="104" on="0"/>
        <pt x="153" y="66" on="0"/>
        <pt x="209" y="45" on="0"/>
        <pt x="241" y="45" on="1"/>
        <pt x="301" y="45" on="0"/>
        <pt x="385" y="90" on="0"/>
      </contour>
      <contour>
        <pt x="484" y="359" on="1"/>
        <pt x="532" y="359" on="1"/>
        <pt x="532" y="331" on="0"/>
        <pt x="527" y="269" on="0"/>
        <pt x="516" y="208" on="0"/>
        <pt x="496" y="151" on="0"/>
        <pt x="481" y="129" on="1"/>
        <pt x="591" y="0" on="1"/>
        <pt x="527" y="0" on="1"/>
        <pt x="454" y="89" on="1"/>
        <pt x="416" y="44" on="0"/>
        <pt x="308" y="-9" on="0"/>
        <pt x="241" y="-9" on="1"/>
        <pt x="197" y="-9" on="0"/>
        <pt x="121" y="19" on="0"/>
        <pt x="64" y="71" on="0"/>
        <pt x="31" y="145" on="0"/>
        <pt x="31" y="191" on="1"/>
        <pt x="31" y="245" on="0"/>
        <pt x="82" y="321" on="0"/>
        <pt x="128" y="348" on="1"/>
        <pt x="184" y="381" on="1"/>
        <pt x="132" y="439" on="1"/>
        <pt x="106" y="468" on="0"/>
        <pt x="83" y="522" on="0"/>
        <pt x="83" y="556" on="1"/>
        <pt x="83" y="589" on="0"/>
        <pt x="108" y="647" on="0"/>
        <pt x="152" y="689" on="0"/>
        <pt x="214" y="714" on="0"/>
        <pt x="250" y="714" on="1"/>
        <pt x="285" y="714" on="0"/>
        <pt x="347" y="692" on="0"/>
        <pt x="393" y="651" on="0"/>
        <pt x="420" y="592" on="0"/>
        <pt x="420" y="556" on="1"/>
        <pt x="420" y="505" on="0"/>
        <pt x="374" y="438" on="0"/>
        <pt x="333" y="414" on="1"/>
        <pt x="259" y="370" on="1"/>
        <pt x="447" y="167" on="1"/>
        <pt x="469" y="206" on="0"/>
        <pt x="484" y="301" on="0"/>
      </contour>
      <contour>
        <pt x="369" y="556" on="1"/>
        <pt x="369" y="607" on="0"/>
        <pt x="301" y="666" on="0"/>
        <pt x="250" y="666" on="1"/>
        <pt x="227" y="666" on="0"/>
        <pt x="185" y="650" on="0"/>
        <pt x="154" y="622" on="0"/>
        <pt x="136" y="581" on="0"/>
        <pt x="136" y="556" on="1"/>
        <pt x="136" y="543" on="0"/>
        <pt x="144" y="519" on="0"/>
        <pt x="164" y="486" on="0"/>
        <pt x="200" y="441" on="0"/>
        <pt x="228" y="407" on="1"/>
        <pt x="307" y="456" on="1"/>
        <pt x="336" y="474" on="0"/>
        <pt x="369" y="524" on="0"/>
      </contour>
      <contour>
        <pt x="527" y="0" on="1"/>
        <pt x="454" y="89" on="1"/>
      </contour>
    </TTGlyph>
    <TTGlyph name="asciitilde" xMin="46" yMin="226" xMax="415" yMax="320">
      <contour>
        <pt x="415" y="283" on="1"/>
        <pt x="397" y="265" on="0"/>
        <pt x="369" y="243" on="0"/>
        <pt x="345" y="231" on="0"/>
        <pt x="321" y="226" on="0"/>
        <pt x="307" y="226" on="1"/>
        <pt x="288" y="226" on="0"/>
        <pt x="249" y="241" on="0"/>
        <pt x="210" y="259" on="0"/>
        <pt x="171" y="274" on="0"/>
        <pt x="151" y="274" on="1"/>
        <pt x="133" y="274" on="0"/>
        <pt x="104" y="261" on="0"/>
        <pt x="79" y="236" on="1"/>
        <pt x="46" y="263" on="1"/>
        <pt x="64" y="281" on="0"/>
        <pt x="91" y="303" on="0"/>
        <pt x="116" y="315" on="0"/>
        <pt x="140" y="320" on="0"/>
        <pt x="154" y="320" on="1"/>
        <pt x="175" y="320" on="0"/>
        <pt x="213" y="305" on="0"/>
        <pt x="251" y="287" on="0"/>
        <pt x="288" y="272" on="0"/>
        <pt x="309" y="272" on="1"/>
        <pt x="327" y="272" on="0"/>
        <pt x="356" y="285" on="0"/>
        <pt x="381" y="310" on="1"/>
      </contour>
    </TTGlyph>
    <TTGlyph name="asterisk" xMin="51" yMin="163" xMax="347" yMax="481">
      <contour>
        <pt x="326" y="224" on="1"/>
        <pt x="217" y="289" on="1"/>
        <pt x="221" y="163" on="1"/>
        <pt x="177" y="163" on="1"/>
        <pt x="180" y="289" on="1"/>
        <pt x="73" y="224" on="1"/>
        <pt x="51" y="262" on="1"/>
        <pt x="161" y="322" on="1"/>
        <pt x="51" y="382" on="1"/>
        <pt x="73" y="419" on="1"/>
        <pt x="180" y="355" on="1"/>
        <pt x="177" y="481" on="1"/>
        <pt x="221" y="481" on="1"/>
        <pt x="217" y="355" on="1"/>
        <pt x="326" y="419" on="1"/>
        <pt x="347" y="382" on="1"/>
        <pt x="237" y="322" on="1"/>
        <pt x="347" y="262" on="1"/>
      </contour>
    </TTGlyph>
    <TTGlyph name="at" xMin="45" yMin="-69" xMax="823" yMax="742">
      <contour>
        <pt x="823" y="401" on="1"/>
        <pt x="823" y="354" on="0"/>
        <pt x="800" y="258" on="0"/>
        <pt x="754" y="180" on="0"/>
        <pt x="681" y="130" on="0"/>
        <pt x="632" y="130" on="1"/>
        <pt x="598" y="130" on="0"/>
        <pt x="548" y="174" on="0"/>
        <pt x="542" y="209" on="1"/>
        <pt x="533" y="192" on="0"/>
        <pt x="504" y="163" on="0"/>
        <pt x="470" y="143" on="0"/>
        <pt x="431" y="132" on="0"/>
        <pt x="412" y="132" on="1"/>
        <pt x="374" y="132" on="0"/>
        <pt x="315" y="161" on="0"/>
        <pt x="276" y="209" on="0"/>
        <pt x="256" y="273" on="0"/>
        <pt x="256" y="308" on="1"/>
        <pt x="256" y="349" on="0"/>
        <pt x="281" y="427" on="0"/>
        <pt x="328" y="489" on="0"/>
        <pt x="397" y="526" on="0"/>
        <pt x="442" y="526" on="1"/>
        <pt x="477" y="526" on="0"/>
        <pt x="538" y="493" on="0"/>
        <pt x="552" y="460" on="1"/>
        <pt x="565" y="517" on="1"/>
        <pt x="602" y="517" on="1"/>
        <pt x="582" y="253" on="1"/>
        <pt x="582" y="244" on="1"/>
        <pt x="582" y="212" on="0"/>
        <pt x="610" y="173" on="0"/>
        <pt x="637" y="173" on="1"/>
        <pt x="671" y="173" on="0"/>
        <pt x="724" y="212" on="0"/>
        <pt x="758" y="277" on="0"/>
        <pt x="776" y="359" on="0"/>
        <pt x="776" y="401" on="1"/>
        <pt x="776" y="471" on="0"/>
        <pt x="726" y="581" on="0"/>
        <pt x="639" y="657" on="0"/>
        <pt x="521" y="696" on="0"/>
        <pt x="454" y="696" on="1"/>
        <pt x="371" y="696" on="0"/>
        <pt x="238" y="641" on="0"/>
        <pt x="145" y="543" on="0"/>
        <pt x="94" y="407" on="0"/>
        <pt x="94" y="326" on="1"/>
        <pt x="94" y="254" on="0"/>
        <pt x="142" y="126" on="0"/>
        <pt x="230" y="32" on="0"/>
        <pt x="353" y="-23" on="0"/>
        <pt x="427" y="-23" on="1"/>
        <pt x="493" y="-23" on="0"/>
        <pt x="619" y="0" on="0"/>
        <pt x="680" y="26" on="1"/>
        <pt x="680" y="-21" on="1"/>
        <pt x="615" y="-49" on="0"/>
        <pt x="494" y="-69" on="0"/>
        <pt x="424" y="-69" on="1"/>
        <pt x="339" y="-69" on="0"/>
        <pt x="199" y="-8" on="0"/>
        <pt x="100" y="99" on="0"/>
        <pt x="45" y="243" on="0"/>
        <pt x="45" y="326" on="1"/>
        <pt x="45" y="418" on="0"/>
        <pt x="103" y="571" on="0"/>
        <pt x="210" y="681" on="0"/>
        <pt x="361" y="742" on="0"/>
        <pt x="454" y="742" on="1"/>
        <pt x="531" y="742" on="0"/>
        <pt x="665" y="696" on="0"/>
        <pt x="765" y="608" on="0"/>
        <pt x="823" y="481" on="0"/>
      </contour>
      <contour>
        <pt x="543" y="350" on="1"/>
        <pt x="543" y="376" on="0"/>
        <pt x="532" y="424" on="0"/>
        <pt x="506" y="461" on="0"/>
        <pt x="465" y="483" on="0"/>
        <pt x="435" y="483" on="1"/>
        <pt x="403" y="483" on="0"/>
        <pt x="354" y="451" on="0"/>
        <pt x="321" y="401" on="0"/>
        <pt x="304" y="339" on="0"/>
        <pt x="304" y="308" on="1"/>
        <pt x="304" y="280" on="0"/>
        <pt x="318" y="231" on="0"/>
        <pt x="345" y="195" on="0"/>
        <pt x="386" y="174" on="0"/>
        <pt x="414" y="174" on="1"/>
        <pt x="449" y="174" on="0"/>
        <pt x="498" y="208" on="0"/>
        <pt x="529" y="259" on="0"/>
        <pt x="543" y="321" on="0"/>
      </contour>
    </TTGlyph>
    <TTGlyph name="atilde" xMin="47" yMin="-10" xMax="364" yMax="655">
      <component glyphName="a" x="0" y="0" flags="0x1204"/>
      <component glyphName="tilde" x="-44" y="0" flags="0x1004"/>
    </TTGlyph>
    <TTGlyph name="b" xMin="45" yMin="-8" xMax="362" yMax="700">
      <contour>
        <pt x="115" y="79" on="1"/>
        <pt x="118" y="70" on="0"/>
        <pt x="148" y="57" on="0"/>
        <pt x="185" y="48" on="0"/>
        <pt x="221" y="43" on="0"/>
        <pt x="230" y="43" on="1"/>
        <pt x="247" y="43" on="0"/>
        <pt x="277" y="57" on="0"/>
        <pt x="299" y="80" on="0"/>
        <pt x="312" y="111" on="0"/>
        <pt x="312" y="129" on="1"/>
        <pt x="312" y="372" on="1"/>
        <pt x="312" y="408" on="0"/>
        <pt x="264" y="459" on="0"/>
        <pt x="229" y="459" on="1"/>
        <pt x="220" y="459" on="0"/>
        <pt x="191" y="455" on="0"/>
        <pt x="159" y="446" on="0"/>
        <pt x="127" y="433" on="0"/>
        <pt x="115" y="424" on="1"/>
      </contour>
      <contour>
        <pt x="114" y="482" on="1"/>
        <pt x="154" y="503" on="0"/>
        <pt x="212" y="510" on="0"/>
        <pt x="229" y="510" on="1"/>
        <pt x="257" y="510" on="0"/>
        <pt x="305" y="488" on="0"/>
        <pt x="341" y="449" on="0"/>
        <pt x="362" y="398" on="0"/>
        <pt x="362" y="369" on="1"/>
        <pt x="362" y="133" on="1"/>
        <pt x="362" y="104" on="0"/>
        <pt x="341" y="52" on="0"/>
        <pt x="305" y="14" on="0"/>
        <pt x="257" y="-8" on="0"/>
        <pt x="229" y="-8" on="1"/>
        <pt x="207" y="-8" on="0"/>
        <pt x="140" y="5" on="0"/>
        <pt x="107" y="23" on="1"/>
        <pt x="80" y="-3" on="1"/>
        <pt x="45" y="32" on="1"/>
        <pt x="64" y="52" on="1"/>
        <pt x="64" y="700" on="1"/>
        <pt x="114" y="700" on="1"/>
      </contour>
    </TTGlyph>
    <TTGlyph name="backslash" xMin="30" yMin="-57" xMax="353" yMax="768">
      <contour>
        <pt x="300" y="-57" on="1"/>
        <pt x="30" y="768" on="1"/>
        <pt x="84" y="768" on="1"/>
        <pt x="353" y="-57" on="1"/>
      </contour>
    </TTGlyph>
    <TTGlyph name="bar" xMin="68" yMin="-10" xMax="118" yMax="700">
      <contour>
        <pt x="68" y="-10" on="1"/>
        <pt x="68" y="700" on="1"/>
        <pt x="118" y="700" on="1"/>
        <pt x="118" y="-10" on="1"/>
      </contour>
    </TTGlyph>
    <TTGlyph name="braceleft" xMin="65" yMin="-74" xMax="202" yMax="774">
      <contour>
        <pt x="179" y="-74" on="1"/>
        <pt x="145" y="-74" on="0"/>
        <pt x="104" y="-61" on="0"/>
        <pt x="91" y="-48" on="1"/>
        <pt x="77" y="-34" on="0"/>
        <pt x="65" y="4" on="0"/>
        <pt x="65" y="39" on="1"/>
        <pt x="65" y="661" on="1"/>
        <pt x="65" y="696" on="0"/>
        <pt x="77" y="734" on="0"/>
        <pt x="91" y="748" on="1"/>
        <pt x="104" y="761" on="0"/>
        <pt x="145" y="774" on="0"/>
        <pt x="179" y="774" on="1"/>
        <pt x="202" y="774" on="1"/>
        <pt x="202" y="725" on="1"/>
        <pt x="184" y="725" on="1"/>
        <pt x="161" y="725" on="0"/>
        <pt x="137" y="722" on="0"/>
        <pt x="129" y="714" on="1"/>
        <pt x="120" y="705" on="0"/>
        <pt x="115" y="673" on="0"/>
        <pt x="115" y="649" on="1"/>
        <pt x="115" y="47" on="1"/>
        <pt x="115" y="23" on="0"/>
        <pt x="120" y="-6" on="0"/>
        <pt x="129" y="-14" on="1"/>
        <pt x="137" y="-22" on="0"/>
        <pt x="161" y="-25" on="0"/>
        <pt x="184" y="-25" on="1"/>
        <pt x="202" y="-25" on="1"/>
        <pt x="202" y="-74" on="1"/>
      </contour>
    </TTGlyph>
    <TTGlyph name="braceright" xMin="32" yMin="-72" xMax="173" yMax="776">
      <contour>
        <pt x="173" y="41" on="1"/>
        <pt x="173" y="6" on="0"/>
        <pt x="161" y="-32" on="0"/>
        <pt x="147" y="-46" on="1"/>
        <pt x="133" y="-59" on="0"/>
        <pt x="92" y="-72" on="0"/>
        <pt x="58" y="-72" on="1"/>
        <pt x="32" y="-72" on="1"/>
        <pt x="32" y="-23" on="1"/>
        <pt x="53" y="-23" on="1"/>
        <pt x="66" y="-23" on="1"/>
        <pt x="83" y="-23" on="0"/>
        <pt x="102" y="-20" on="0"/>
        <pt x="109" y="-13" on="1"/>
        <pt x="117" y="-5" on="0"/>
        <pt x="123" y="24" on="0"/>
        <pt x="123" y="48" on="1"/>
        <pt x="123" y="655" on="1"/>
        <pt x="123" y="679" on="0"/>
        <pt x="117" y="708" on="0"/>
        <pt x="109" y="716" on="1"/>
        <pt x="101" y="724" on="0"/>
        <pt x="76" y="727" on="0"/>
        <pt x="53" y="727" on="1"/>
        <pt x="32" y="727" on="1"/>
        <pt x="32" y="776" on="1"/>
        <pt x="58" y="776" on="1"/>
        <pt x="92" y="776" on="0"/>
        <pt x="133" y="763" on="0"/>
        <pt x="147" y="750" on="1"/>
        <pt x="161" y="736" on="0"/>
        <pt x="173" y="698" on="0"/>
        <pt x="173" y="663" on="1"/>
        <pt x="173" y="41" on="1"/>
      </contour>
    </TTGlyph>
    <TTGlyph name="bracketleft" xMin="67" yMin="-84" xMax="206" yMax="777">
      <contour>
        <pt x="67" y="-84" on="1"/>
        <pt x="67" y="777" on="1"/>
        <pt x="206" y="777" on="1"/>
        <pt x="206" y="728" on="1"/>
        <pt x="117" y="728" on="1"/>
        <pt x="117" y="-35" on="1"/>
        <pt x="206" y="-35" on="1"/>
        <pt x="206" y="-84" on="1"/>
      </contour>
    </TTGlyph>
    <TTGlyph name="bracketright" xMin="31" yMin="-85" xMax="170" yMax="776">
      <contour>
        <pt x="31" y="-85" on="1"/>
        <pt x="31" y="-36" on="1"/>
        <pt x="120" y="-36" on="1"/>
        <pt x="120" y="727" on="1"/>
        <pt x="31" y="727" on="1"/>
        <pt x="31" y="776" on="1"/>
        <pt x="170" y="776" on="1"/>
        <pt x="170" y="-85" on="1"/>
      </contour>
    </TTGlyph>
    <TTGlyph name="brokenbar" xMin="69" yMin="0" xMax="121" yMax="700">
      <contour>
        <pt x="69" y="700" on="1"/>
        <pt x="121" y="700" on="1"/>
        <pt x="121" y="388" on="1"/>
        <pt x="69" y="388" on="1"/>
      </contour>
      <contour>
        <pt x="69" y="312" on="1"/>
        <pt x="121" y="312" on="1"/>
        <pt x="121" y="0" on="1"/>
        <pt x="69" y="0" on="1"/>
      </contour>
    </TTGlyph>
    <TTGlyph name="bullet" xMin="45" yMin="143" xMax="252" yMax="351">
      <contour>
        <pt x="252" y="247" on="1"/>
        <pt x="252" y="226" on="0"/>
        <pt x="236" y="188" on="0"/>
        <pt x="207" y="159" on="0"/>
        <pt x="169" y="143" on="0"/>
        <pt x="148" y="143" on="1"/>
        <pt x="127" y="143" on="0"/>
        <pt x="89" y="159" on="0"/>
        <pt x="61" y="188" on="0"/>
        <pt x="45" y="226" on="0"/>
        <pt x="45" y="247" on="1"/>
        <pt x="45" y="268" on="0"/>
        <pt x="61" y="306" on="0"/>
        <pt x="89" y="335" on="0"/>
        <pt x="127" y="351" on="0"/>
        <pt x="148" y="351" on="1"/>
        <pt x="169" y="351" on="0"/>
        <pt x="207" y="335" on="0"/>
        <pt x="236" y="306" on="0"/>
        <pt x="252" y="268" on="0"/>
      </contour>
    </TTGlyph>
    <TTGlyph name="c" xMin="55" yMin="-8" xMax="318" yMax="511">
      <contour>
        <pt x="105" y="148" on="1"/>
        <pt x="105" y="124" on="0"/>
        <pt x="122" y="85" on="0"/>
        <pt x="152" y="57" on="0"/>
        <pt x="191" y="42" on="0"/>
        <pt x="213" y="42" on="1"/>
        <pt x="223" y="42" on="0"/>
        <pt x="253" y="47" on="0"/>
        <pt x="267" y="50" on="1"/>
        <pt x="284" y="54" on="0"/>
        <pt x="302" y="59" on="1"/>
        <pt x="318" y="13" on="1"/>
        <pt x="298" y="6" on="0"/>
        <pt x="280" y="2" on="1"/>
        <pt x="264" y="-2" on="0"/>
        <pt x="227" y="-8" on="0"/>
        <pt x="213" y="-8" on="1"/>
        <pt x="180" y="-8" on="0"/>
        <pt x="123" y="15" on="0"/>
        <pt x="80" y="57" on="0"/>
        <pt x="55" y="114" on="0"/>
        <pt x="55" y="148" on="1"/>
        <pt x="55" y="357" on="1"/>
        <pt x="55" y="391" on="0"/>
        <pt x="80" y="448" on="0"/>
        <pt x="122" y="488" on="0"/>
        <pt x="179" y="511" on="0"/>
        <pt x="212" y="511" on="1"/>
        <pt x="228" y="511" on="0"/>
        <pt x="263" y="503" on="0"/>
        <pt x="278" y="498" on="1"/>
        <pt x="296" y="493" on="0"/>
        <pt x="313" y="486" on="1"/>
        <pt x="301" y="443" on="1"/>
        <pt x="286" y="448" on="0"/>
        <pt x="270" y="452" on="1"/>
        <pt x="256" y="456" on="0"/>
        <pt x="226" y="462" on="0"/>
        <pt x="212" y="462" on="1"/>
        <pt x="168" y="462" on="0"/>
        <pt x="105" y="405" on="0"/>
        <pt x="105" y="357" on="1"/>
      </contour>
    </TTGlyph>
    <TTGlyph name="caron" xMin="71" yMin="625" xMax="326" yMax="750">
      <contour>
        <pt x="120" y="750" on="1"/>
        <pt x="198" y="669" on="1"/>
        <pt x="276" y="750" on="1"/>
        <pt x="326" y="750" on="1"/>
        <pt x="226" y="625" on="1"/>
        <pt x="171" y="625" on="1"/>
        <pt x="71" y="750" on="1"/>
      </contour>
    </TTGlyph>
    <TTGlyph name="ccedilla" xMin="55" yMin="-222" xMax="318" yMax="511">
      <component glyphName="c" x="0" y="0" flags="0x1204"/>
      <component glyphName="cedilla" x="0" y="0" flags="0x1004"/>
    </TTGlyph>
    <TTGlyph name="cedilla" xMin="149" yMin="-222" xMax="234" yMax="-46">
      <contour>
        <pt x="234" y="-98" on="1"/>
        <pt x="234" y="-154" on="0"/>
        <pt x="204" y="-210" on="0"/>
        <pt x="178" y="-222" on="1"/>
        <pt x="149" y="-186" on="1"/>
        <pt x="166" y="-178" on="0"/>
        <pt x="186" y="-133" on="0"/>
        <pt x="186" y="-97" on="1"/>
        <pt x="186" y="-46" on="1"/>
        <pt x="234" y="-46" on="1"/>
        <pt x="234" y="-98" on="1"/>
      </contour>
    </TTGlyph>
    <TTGlyph name="cent" xMin="52" yMin="-131" xMax="315" yMax="637">
      <contour>
        <pt x="172" y="508" on="1"/>
        <pt x="172" y="637" on="1"/>
        <pt x="222" y="637" on="1"/>
        <pt x="222" y="511" on="1"/>
        <pt x="237" y="509" on="0"/>
        <pt x="268" y="501" on="0"/>
        <pt x="281" y="497" on="1"/>
        <pt x="296" y="492" on="0"/>
        <pt x="310" y="487" on="1"/>
        <pt x="298" y="444" on="1"/>
        <pt x="283" y="449" on="0"/>
        <pt x="267" y="453" on="1"/>
        <pt x="253" y="457" on="0"/>
        <pt x="223" y="463" on="0"/>
        <pt x="209" y="463" on="1"/>
        <pt x="165" y="463" on="0"/>
        <pt x="102" y="406" on="0"/>
        <pt x="102" y="358" on="1"/>
        <pt x="102" y="149" on="1"/>
        <pt x="102" y="125" on="0"/>
        <pt x="119" y="86" on="0"/>
        <pt x="149" y="58" on="0"/>
        <pt x="188" y="43" on="0"/>
        <pt x="210" y="43" on="1"/>
        <pt x="220" y="43" on="0"/>
        <pt x="250" y="48" on="0"/>
        <pt x="264" y="51" on="1"/>
        <pt x="281" y="55" on="0"/>
        <pt x="299" y="60" on="1"/>
        <pt x="315" y="14" on="1"/>
        <pt x="299" y="9" on="0"/>
        <pt x="283" y="5" on="1"/>
        <pt x="269" y="1" on="0"/>
        <pt x="236" y="-5" on="0"/>
        <pt x="222" y="-6" on="1"/>
        <pt x="222" y="-131" on="1"/>
        <pt x="172" y="-131" on="1"/>
        <pt x="172" y="-3" on="1"/>
        <pt x="120" y="9" on="0"/>
        <pt x="52" y="91" on="0"/>
        <pt x="52" y="149" on="1"/>
        <pt x="52" y="358" on="1"/>
        <pt x="52" y="417" on="0"/>
        <pt x="120" y="497" on="0"/>
      </contour>
    </TTGlyph>
    <TTGlyph name="circumflex" xMin="70" yMin="626" xMax="325" yMax="751">
      <contour>
        <pt x="276" y="626" on="1"/>
        <pt x="198" y="707" on="1"/>
        <pt x="120" y="626" on="1"/>
        <pt x="70" y="626" on="1"/>
        <pt x="170" y="751" on="1"/>
        <pt x="225" y="751" on="1"/>
        <pt x="325" y="626" on="1"/>
      </contour>
    </TTGlyph>
    <TTGlyph name="colon" xMin="61" yMin="1" xMax="131" yMax="411">
      <contour>
        <pt x="131" y="321" on="1"/>
        <pt x="62" y="321" on="1"/>
        <pt x="62" y="411" on="1"/>
        <pt x="131" y="411" on="1"/>
      </contour>
      <contour>
        <pt x="130" y="1" on="1"/>
        <pt x="61" y="1" on="1"/>
        <pt x="61" y="89" on="1"/>
        <pt x="130" y="89" on="1"/>
      </contour>
    </TTGlyph>
    <TTGlyph name="comma" xMin="15" yMin="-92" xMax="116" yMax="100">
      <contour>
        <pt x="116" y="48" on="1"/>
        <pt x="116" y="-8" on="0"/>
        <pt x="70" y="-76" on="0"/>
        <pt x="32" y="-92" on="1"/>
        <pt x="15" y="-32" on="1"/>
        <pt x="32" y="-24" on="0"/>
        <pt x="58" y="13" on="0"/>
        <pt x="58" y="49" on="1"/>
        <pt x="58" y="100" on="1"/>
        <pt x="116" y="100" on="1"/>
        <pt x="116" y="48" on="1"/>
      </contour>
    </TTGlyph>
    <TTGlyph name="copyright" xMin="41" yMin="-10" xMax="758" yMax="708">
      <contour>
        <pt x="758" y="349" on="1"/>
        <pt x="758" y="275" on="0"/>
        <pt x="702" y="144" on="0"/>
        <pt x="605" y="46" on="0"/>
        <pt x="474" y="-10" on="0"/>
        <pt x="400" y="-10" on="1"/>
        <pt x="326" y="-10" on="0"/>
        <pt x="195" y="46" on="0"/>
        <pt x="97" y="144" on="0"/>
        <pt x="41" y="275" on="0"/>
        <pt x="41" y="349" on="1"/>
        <pt x="41" y="423" on="0"/>
        <pt x="97" y="554" on="0"/>
        <pt x="195" y="651" on="0"/>
        <pt x="326" y="708" on="0"/>
        <pt x="400" y="708" on="1"/>
        <pt x="474" y="708" on="0"/>
        <pt x="605" y="651" on="0"/>
        <pt x="702" y="554" on="0"/>
        <pt x="758" y="423" on="0"/>
      </contour>
      <contour>
        <pt x="708" y="349" on="1"/>
        <pt x="708" y="413" on="0"/>
        <pt x="660" y="526" on="0"/>
        <pt x="576" y="610" on="0"/>
        <pt x="464" y="658" on="0"/>
        <pt x="400" y="658" on="1"/>
        <pt x="336" y="658" on="0"/>
        <pt x="224" y="610" on="0"/>
        <pt x="140" y="526" on="0"/>
        <pt x="91" y="413" on="0"/>
        <pt x="91" y="349" on="1"/>
        <pt x="91" y="284" on="0"/>
        <pt x="140" y="172" on="0"/>
        <pt x="224" y="88" on="0"/>
        <pt x="336" y="40" on="0"/>
        <pt x="400" y="40" on="1"/>
        <pt x="464" y="40" on="0"/>
        <pt x="576" y="88" on="0"/>
        <pt x="660" y="172" on="0"/>
        <pt x="708" y="284" on="0"/>
      </contour>
      <contour>
        <pt x="325" y="271" on="1"/>
        <pt x="325" y="233" on="0"/>
        <pt x="376" y="187" on="0"/>
        <pt x="411" y="187" on="1"/>
        <pt x="419" y="187" on="0"/>
        <pt x="442" y="191" on="0"/>
        <pt x="453" y="194" on="1"/>
        <pt x="466" y="197" on="0"/>
        <pt x="481" y="201" on="1"/>
        <pt x="493" y="165" on="1"/>
        <pt x="478" y="160" on="0"/>
        <pt x="463" y="156" on="1"/>
        <pt x="450" y="153" on="0"/>
        <pt x="422" y="148" on="0"/>
        <pt x="411" y="148" on="1"/>
        <pt x="385" y="148" on="0"/>
        <pt x="340" y="166" on="0"/>
        <pt x="306" y="199" on="0"/>
        <pt x="286" y="244" on="0"/>
        <pt x="286" y="271" on="1"/>
        <pt x="286" y="440" on="1"/>
        <pt x="286" y="467" on="0"/>
        <pt x="305" y="511" on="0"/>
        <pt x="339" y="543" on="0"/>
        <pt x="384" y="561" on="0"/>
        <pt x="410" y="561" on="1"/>
        <pt x="422" y="561" on="0"/>
        <pt x="450" y="555" on="0"/>
        <pt x="462" y="551" on="1"/>
        <pt x="476" y="547" on="0"/>
        <pt x="489" y="541" on="1"/>
        <pt x="480" y="507" on="1"/>
        <pt x="468" y="510" on="0"/>
        <pt x="456" y="514" on="1"/>
        <pt x="445" y="517" on="0"/>
        <pt x="421" y="522" on="0"/>
        <pt x="410" y="522" on="1"/>
        <pt x="375" y="522" on="0"/>
        <pt x="325" y="477" on="0"/>
        <pt x="325" y="440" on="1"/>
      </contour>
    </TTGlyph>
    <TTGlyph name="d" xMin="56" yMin="-9" xMax="376" yMax="699">
      <contour>
        <pt x="303" y="78" on="1"/>
        <pt x="303" y="423" on="1"/>
        <pt x="268" y="446" on="0"/>
        <pt x="206" y="458" on="0"/>
        <pt x="189" y="458" on="1"/>
        <pt x="154" y="458" on="0"/>
        <pt x="106" y="407" on="0"/>
        <pt x="106" y="371" on="1"/>
        <pt x="106" y="128" on="1"/>
        <pt x="106" y="110" on="0"/>
        <pt x="119" y="79" on="0"/>
        <pt x="141" y="56" on="0"/>
        <pt x="171" y="42" on="0"/>
        <pt x="188" y="42" on="1"/>
        <pt x="197" y="42" on="0"/>
        <pt x="233" y="47" on="0"/>
        <pt x="270" y="56" on="0"/>
        <pt x="300" y="69" on="0"/>
      </contour>
      <contour>
        <pt x="304" y="481" on="1"/>
        <pt x="304" y="699" on="1"/>
        <pt x="354" y="699" on="1"/>
        <pt x="354" y="48" on="1"/>
        <pt x="376" y="26" on="1"/>
        <pt x="340" y="-9" on="1"/>
        <pt x="310" y="21" on="1"/>
        <pt x="278" y="3" on="0"/>
        <pt x="210" y="-9" on="0"/>
        <pt x="189" y="-9" on="1"/>
        <pt x="161" y="-9" on="0"/>
        <pt x="113" y="13" on="0"/>
        <pt x="77" y="51" on="0"/>
        <pt x="56" y="103" on="0"/>
        <pt x="56" y="132" on="1"/>
        <pt x="56" y="368" on="1"/>
        <pt x="56" y="397" on="0"/>
        <pt x="77" y="448" on="0"/>
        <pt x="113" y="487" on="0"/>
        <pt x="161" y="509" on="0"/>
        <pt x="189" y="509" on="1"/>
        <pt x="206" y="509" on="0"/>
        <pt x="264" y="502" on="0"/>
      </contour>
    </TTGlyph>
    <TTGlyph name="degree" xMin="40" yMin="461" xMax="290" yMax="711">
      <contour>
        <pt x="290" y="586" on="1"/>
        <pt x="290" y="560" on="0"/>
        <pt x="270" y="515" on="0"/>
        <pt x="236" y="481" on="0"/>
        <pt x="190" y="461" on="0"/>
        <pt x="164" y="461" on="1"/>
        <pt x="138" y="461" on="0"/>
        <pt x="93" y="481" on="0"/>
        <pt x="60" y="515" on="0"/>
        <pt x="40" y="560" on="0"/>
        <pt x="40" y="586" on="1"/>
        <pt x="40" y="612" on="0"/>
        <pt x="60" y="657" on="0"/>
        <pt x="93" y="691" on="0"/>
        <pt x="138" y="711" on="0"/>
        <pt x="164" y="711" on="1"/>
        <pt x="190" y="711" on="0"/>
        <pt x="236" y="692" on="0"/>
        <pt x="270" y="658" on="0"/>
        <pt x="290" y="612" on="0"/>
      </contour>
      <contour>
        <pt x="244" y="586" on="1"/>
        <pt x="244" y="619" on="0"/>
        <pt x="197" y="665" on="0"/>
        <pt x="164" y="665" on="1"/>
        <pt x="132" y="665" on="0"/>
        <pt x="85" y="619" on="0"/>
        <pt x="85" y="586" on="1"/>
        <pt x="85" y="554" on="0"/>
        <pt x="132" y="508" on="0"/>
        <pt x="164" y="508" on="1"/>
        <pt x="197" y="508" on="0"/>
        <pt x="244" y="554" on="0"/>
      </contour>
    </TTGlyph>
    <TTGlyph name="dieresis" xMin="104" yMin="600" xMax="360" yMax="677">
      <contour>
        <pt x="302" y="600" on="1"/>
        <pt x="302" y="677" on="1"/>
        <pt x="360" y="677" on="1"/>
        <pt x="360" y="600" on="1"/>
      </contour>
      <contour>
        <pt x="104" y="600" on="1"/>
        <pt x="104" y="677" on="1"/>
        <pt x="162" y="677" on="1"/>
        <pt x="162" y="600" on="1"/>
      </contour>
    </TTGlyph>
    <TTGlyph name="divide" xMin="57" yMin="1" xMax="400" yMax="411">
      <component glyphName="colon" x="136" y="0" flags="0x1004"/>
      <component glyphName="minus" x="-12" y="-71" flags="0x1004"/>
    </TTGlyph>
    <TTGlyph name="dollar" xMin="47" yMin="-73" xMax="432" yMax="764">
      <contour>
        <pt x="204" y="764" on="1"/>
        <pt x="259" y="764" on="1"/>
        <pt x="259" y="695" on="1"/>
        <pt x="270" y="693" on="0"/>
        <pt x="292" y="686" on="0"/>
        <pt x="300" y="683" on="1"/>
        <pt x="385" y="648" on="1"/>
        <pt x="366" y="592" on="1"/>
        <pt x="355" y="597" on="0"/>
        <pt x="321" y="613" on="0"/>
        <pt x="283" y="629" on="0"/>
        <pt x="246" y="640" on="0"/>
        <pt x="231" y="640" on="1"/>
        <pt x="204" y="640" on="0"/>
        <pt x="158" y="618" on="0"/>
        <pt x="125" y="580" on="0"/>
        <pt x="106" y="530" on="0"/>
        <pt x="106" y="503" on="1"/>
        <pt x="106" y="472" on="0"/>
        <pt x="129" y="425" on="0"/>
        <pt x="166" y="394" on="0"/>
        <pt x="214" y="379" on="0"/>
        <pt x="240" y="379" on="1"/>
        <pt x="280" y="379" on="0"/>
        <pt x="350" y="352" on="0"/>
        <pt x="402" y="304" on="0"/>
        <pt x="432" y="236" on="0"/>
        <pt x="432" y="196" on="1"/>
        <pt x="432" y="157" on="0"/>
        <pt x="406" y="88" on="0"/>
        <pt x="359" y="36" on="0"/>
        <pt x="296" y="3" on="0"/>
        <pt x="259" y="0" on="1"/>
        <pt x="259" y="-73" on="1"/>
        <pt x="204" y="-73" on="1"/>
        <pt x="204" y="3" on="1"/>
        <pt x="180" y="11" on="0"/>
        <pt x="131" y="29" on="0"/>
        <pt x="89" y="46" on="0"/>
        <pt x="56" y="61" on="0"/>
        <pt x="47" y="65" on="1"/>
        <pt x="67" y="120" on="1"/>
        <pt x="118" y="97" on="0"/>
        <pt x="179" y="72" on="0"/>
        <pt x="214" y="60" on="0"/>
        <pt x="232" y="57" on="0"/>
        <pt x="242" y="57" on="1"/>
        <pt x="270" y="57" on="0"/>
        <pt x="318" y="78" on="0"/>
        <pt x="354" y="114" on="0"/>
        <pt x="374" y="164" on="0"/>
        <pt x="374" y="194" on="1"/>
        <pt x="374" y="225" on="0"/>
        <pt x="350" y="271" on="0"/>
        <pt x="312" y="302" on="0"/>
        <pt x="264" y="317" on="0"/>
        <pt x="240" y="317" on="1"/>
        <pt x="200" y="317" on="0"/>
        <pt x="130" y="344" on="0"/>
        <pt x="77" y="393" on="0"/>
        <pt x="47" y="460" on="0"/>
        <pt x="47" y="500" on="1"/>
        <pt x="47" y="537" on="0"/>
        <pt x="71" y="603" on="0"/>
        <pt x="113" y="655" on="0"/>
        <pt x="171" y="690" on="0"/>
        <pt x="204" y="696" on="1"/>
      </contour>
    </TTGlyph>
    <TTGlyph name="e" xMin="55" yMin="-9" xMax="362" yMax="510">
      <contour>
        <pt x="225" y="241" on="1"/>
        <pt x="227" y="241" on="1"/>
        <pt x="245" y="241" on="0"/>
        <pt x="275" y="256" on="0"/>
        <pt x="297" y="281" on="0"/>
        <pt x="310" y="313" on="0"/>
        <pt x="310" y="331" on="1"/>
        <pt x="310" y="373" on="1"/>
        <pt x="310" y="397" on="0"/>
        <pt x="292" y="430" on="0"/>
        <pt x="263" y="450" on="0"/>
        <pt x="224" y="459" on="0"/>
        <pt x="203" y="459" on="1"/>
        <pt x="184" y="459" on="0"/>
        <pt x="149" y="447" on="0"/>
        <pt x="123" y="425" on="0"/>
        <pt x="107" y="393" on="0"/>
        <pt x="107" y="373" on="1"/>
        <pt x="107" y="242" on="1"/>
      </contour>
      <contour>
        <pt x="55" y="368" on="1"/>
        <pt x="55" y="398" on="0"/>
        <pt x="76" y="450" on="0"/>
        <pt x="113" y="488" on="0"/>
        <pt x="162" y="510" on="0"/>
        <pt x="191" y="510" on="1"/>
        <pt x="225" y="510" on="1"/>
        <pt x="253" y="510" on="0"/>
        <pt x="303" y="488" on="0"/>
        <pt x="341" y="450" on="0"/>
        <pt x="362" y="398" on="0"/>
        <pt x="362" y="368" on="1"/>
        <pt x="362" y="335" on="1"/>
        <pt x="362" y="293" on="0"/>
        <pt x="332" y="236" on="0"/>
        <pt x="280" y="200" on="0"/>
        <pt x="211" y="185" on="0"/>
        <pt x="172" y="185" on="1"/>
        <pt x="156" y="185" on="0"/>
        <pt x="124" y="187" on="0"/>
        <pt x="107" y="189" on="1"/>
        <pt x="107" y="129" on="1"/>
        <pt x="114" y="89" on="0"/>
        <pt x="175" y="42" on="0"/>
        <pt x="214" y="42" on="1"/>
        <pt x="218" y="42" on="0"/>
        <pt x="261" y="51" on="0"/>
        <pt x="285" y="56" on="1"/>
        <pt x="313" y="62" on="0"/>
        <pt x="347" y="70" on="1"/>
        <pt x="359" y="17" on="1"/>
        <pt x="322" y="9" on="0"/>
        <pt x="292" y="4" on="1"/>
        <pt x="266" y="-1" on="0"/>
        <pt x="219" y="-9" on="0"/>
        <pt x="214" y="-9" on="1"/>
        <pt x="182" y="-9" on="0"/>
        <pt x="124" y="14" on="0"/>
        <pt x="80" y="56" on="0"/>
        <pt x="55" y="113" on="0"/>
        <pt x="55" y="147" on="1"/>
      </contour>
    </TTGlyph>
    <TTGlyph name="eacute" xMin="55" yMin="-9" xMax="362" yMax="737">
      <component glyphName="e" x="0" y="0" flags="0x1204"/>
      <component glyphName="acute" x="-22" y="0" flags="0x1004"/>
    </TTGlyph>
    <TTGlyph name="ecircumflex" xMin="55" yMin="-9" xMax="362" yMax="751">
      <component glyphName="e" x="0" y="0" flags="0x1204"/>
      <component glyphName="circumflex" x="6" y="0" flags="0x1004"/>
    </TTGlyph>
    <TTGlyph name="edieresis" xMin="55" yMin="-9" xMax="362" yMax="677">
      <component glyphName="e" x="0" y="0" flags="0x1204"/>
      <component glyphName="dieresis" x="-20" y="0" flags="0x1004"/>
    </TTGlyph>
    <TTGlyph name="egrave" xMin="55" yMin="-9" xMax="362" yMax="736">
      <component glyphName="e" x="0" y="0" flags="0x1204"/>
      <component glyphName="grave" x="-19" y="0" flags="0x1004"/>
    </TTGlyph>
    <TTGlyph name="eight" xMin="67" yMin="-9" xMax="366" yMax="655">
      <contour>
        <pt x="201" y="39" on="1"/>
        <pt x="233" y="39" on="1"/>
        <pt x="268" y="39" on="0"/>
        <pt x="316" y="91" on="0"/>
        <pt x="316" y="128" on="1"/>
        <pt x="316" y="204" on="1"/>
        <pt x="316" y="225" on="0"/>
        <pt x="299" y="257" on="0"/>
        <pt x="271" y="278" on="0"/>
        <pt x="235" y="288" on="0"/>
        <pt x="215" y="288" on="1"/>
        <pt x="176" y="288" on="0"/>
        <pt x="118" y="248" on="0"/>
        <pt x="118" y="204" on="1"/>
        <pt x="118" y="128" on="1"/>
        <pt x="118" y="91" on="0"/>
        <pt x="166" y="39" on="0"/>
      </contour>
      <contour>
        <pt x="201" y="355" on="1"/>
        <pt x="233" y="355" on="1"/>
        <pt x="268" y="355" on="0"/>
        <pt x="316" y="407" on="0"/>
        <pt x="316" y="444" on="1"/>
        <pt x="316" y="522" on="1"/>
        <pt x="316" y="562" on="0"/>
        <pt x="260" y="606" on="0"/>
        <pt x="222" y="606" on="1"/>
        <pt x="201" y="606" on="0"/>
        <pt x="164" y="597" on="0"/>
        <pt x="135" y="578" on="0"/>
        <pt x="118" y="546" on="0"/>
        <pt x="118" y="522" on="1"/>
        <pt x="118" y="444" on="1"/>
        <pt x="118" y="407" on="0"/>
        <pt x="166" y="355" on="0"/>
      </contour>
      <contour>
        <pt x="134" y="323" on="1"/>
        <pt x="104" y="340" on="0"/>
        <pt x="67" y="403" on="0"/>
        <pt x="67" y="441" on="1"/>
        <pt x="67" y="527" on="1"/>
        <pt x="67" y="563" on="0"/>
        <pt x="93" y="612" on="0"/>
        <pt x="136" y="642" on="0"/>
        <pt x="193" y="655" on="0"/>
        <pt x="224" y="655" on="1"/>
        <pt x="252" y="655" on="0"/>
        <pt x="304" y="637" on="0"/>
        <pt x="343" y="604" on="0"/>
        <pt x="366" y="557" on="0"/>
        <pt x="366" y="527" on="1"/>
        <pt x="366" y="441" on="1"/>
        <pt x="366" y="402" on="0"/>
        <pt x="328" y="339" on="0"/>
        <pt x="297" y="322" on="1"/>
        <pt x="328" y="306" on="0"/>
        <pt x="366" y="249" on="0"/>
        <pt x="366" y="210" on="1"/>
        <pt x="366" y="125" on="1"/>
        <pt x="366" y="98" on="0"/>
        <pt x="347" y="49" on="0"/>
        <pt x="313" y="12" on="0"/>
        <pt x="267" y="-9" on="0"/>
        <pt x="241" y="-9" on="1"/>
        <pt x="193" y="-9" on="1"/>
        <pt x="167" y="-9" on="0"/>
        <pt x="121" y="12" on="0"/>
        <pt x="87" y="49" on="0"/>
        <pt x="67" y="98" on="0"/>
        <pt x="67" y="125" on="1"/>
        <pt x="67" y="210" on="1"/>
        <pt x="67" y="248" on="0"/>
        <pt x="104" y="308" on="0"/>
      </contour>
    </TTGlyph>
    <TTGlyph name="ellipsis" xMin="56" yMin="5" xMax="447" yMax="93">
      <contour>
        <pt x="56" y="5" on="1"/>
        <pt x="56" y="93" on="1"/>
        <pt x="125" y="93" on="1"/>
        <pt x="125" y="5" on="1"/>
      </contour>
      <contour>
        <pt x="217" y="5" on="1"/>
        <pt x="217" y="93" on="1"/>
        <pt x="286" y="93" on="1"/>
        <pt x="286" y="5" on="1"/>
      </contour>
      <contour>
        <pt x="378" y="5" on="1"/>
        <pt x="378" y="93" on="1"/>
        <pt x="447" y="93" on="1"/>
        <pt x="447" y="5" on="1"/>
      </contour>
    </TTGlyph>
    <TTGlyph name="emdash" xMin="59" yMin="209" xMax="673" yMax="263">
      <contour>
        <pt x="59" y="209" on="1"/>
        <pt x="59" y="263" on="1"/>
        <pt x="673" y="263" on="1"/>
        <pt x="673" y="209" on="1"/>
      </contour>
    </TTGlyph>
    <TTGlyph name="endash" xMin="59" yMin="209" xMax="402" yMax="263">
      <contour>
        <pt x="59" y="209" on="1"/>
        <pt x="59" y="263" on="1"/>
        <pt x="402" y="263" on="1"/>
        <pt x="402" y="209" on="1"/>
      </contour>
    </TTGlyph>
    <TTGlyph name="equal" xMin="69" yMin="175" xMax="412" yMax="434">
      <contour>
        <pt x="69" y="370" on="1"/>
        <pt x="69" y="434" on="1"/>
        <pt x="412" y="434" on="1"/>
        <pt x="412" y="370" on="1"/>
      </contour>
      <contour>
        <pt x="69" y="175" on="1"/>
        <pt x="69" y="239" on="1"/>
        <pt x="412" y="239" on="1"/>
        <pt x="412" y="175" on="1"/>
      </contour>
    </TTGlyph>
    <TTGlyph name="exclam" xMin="69" yMin="1" xMax="122" yMax="700">
      <contour>
        <pt x="70" y="141" on="1"/>
        <pt x="70" y="700" on="1"/>
        <pt x="122" y="700" on="1"/>
        <pt x="122" y="141" on="1"/>
      </contour>
      <contour>
        <pt x="69" y="1" on="1"/>
        <pt x="69" y="91" on="1"/>
        <pt x="122" y="91" on="1"/>
        <pt x="122" y="1" on="1"/>
      </contour>
    </TTGlyph>
    <TTGlyph name="exclamdown" xMin="68" yMin="1" xMax="121" yMax="700">
      <contour>
        <pt x="121" y="560" on="1"/>
        <pt x="121" y="1" on="1"/>
        <pt x="69" y="1" on="1"/>
        <pt x="69" y="560" on="1"/>
      </contour>
      <contour>
        <pt x="121" y="700" on="1"/>
        <pt x="121" y="610" on="1"/>
        <pt x="68" y="610" on="1"/>
        <pt x="68" y="700" on="1"/>
      </contour>
    </TTGlyph>
    <TTGlyph name="f" xMin="25" yMin="0" xMax="261" yMax="709">
      <contour>
        <pt x="166" y="0" on="1"/>
        <pt x="113" y="0" on="1"/>
        <pt x="113" y="451" on="1"/>
        <pt x="25" y="451" on="1"/>
        <pt x="25" y="500" on="1"/>
        <pt x="114" y="500" on="1"/>
        <pt x="114" y="578" on="1"/>
        <pt x="114" y="613" on="0"/>
        <pt x="132" y="663" on="0"/>
        <pt x="163" y="694" on="0"/>
        <pt x="206" y="709" on="0"/>
        <pt x="231" y="709" on="1"/>
        <pt x="249" y="709" on="1"/>
        <pt x="249" y="655" on="1"/>
        <pt x="236" y="655" on="1"/>
        <pt x="208" y="655" on="0"/>
        <pt x="165" y="625" on="0"/>
        <pt x="165" y="585" on="1"/>
        <pt x="165" y="500" on="1"/>
        <pt x="261" y="500" on="1"/>
        <pt x="261" y="451" on="1"/>
        <pt x="166" y="451" on="1"/>
      </contour>
    </TTGlyph>
    <TTGlyph name="fi" xMin="25" yMin="0" xMax="399" yMax="709">
      <contour>
        <pt x="346" y="700" on="1"/>
        <pt x="399" y="700" on="1"/>
        <pt x="399" y="622" on="1"/>
        <pt x="346" y="622" on="1"/>
      </contour>
      <contour>
        <pt x="165" y="500" on="1"/>
        <pt x="399" y="500" on="1"/>
        <pt x="399" y="0" on="1"/>
        <pt x="346" y="0" on="1"/>
        <pt x="346" y="451" on="1"/>
        <pt x="166" y="451" on="1"/>
        <pt x="166" y="0" on="1"/>
        <pt x="113" y="0" on="1"/>
        <pt x="113" y="451" on="1"/>
        <pt x="25" y="451" on="1"/>
        <pt x="25" y="500" on="1"/>
        <pt x="114" y="500" on="1"/>
        <pt x="114" y="578" on="1"/>
        <pt x="114" y="613" on="0"/>
        <pt x="132" y="663" on="0"/>
        <pt x="163" y="694" on="0"/>
        <pt x="206" y="709" on="0"/>
        <pt x="231" y="709" on="1"/>
        <pt x="249" y="709" on="1"/>
        <pt x="249" y="655" on="1"/>
        <pt x="236" y="655" on="1"/>
        <pt x="208" y="655" on="0"/>
        <pt x="165" y="625" on="0"/>
        <pt x="165" y="585" on="1"/>
      </contour>
    </TTGlyph>
    <TTGlyph name="five" xMin="61" yMin="-8" xMax="379" yMax="650">
      <contour>
        <pt x="379" y="195" on="1"/>
        <pt x="379" y="153" on="0"/>
        <pt x="359" y="80" on="0"/>
        <pt x="319" y="24" on="0"/>
        <pt x="259" y="-8" on="0"/>
        <pt x="220" y="-8" on="1"/>
        <pt x="200" y="-8" on="0"/>
        <pt x="145" y="4" on="0"/>
        <pt x="95" y="18" on="0"/>
        <pt x="61" y="31" on="0"/>
        <pt x="61" y="31" on="1"/>
        <pt x="79" y="88" on="1"/>
        <pt x="104" y="77" on="0"/>
        <pt x="129" y="69" on="1"/>
        <pt x="150" y="62" on="0"/>
        <pt x="198" y="51" on="0"/>
        <pt x="218" y="51" on="1"/>
        <pt x="246" y="51" on="0"/>
        <pt x="285" y="74" on="0"/>
        <pt x="311" y="114" on="0"/>
        <pt x="323" y="166" on="0"/>
        <pt x="323" y="195" on="1"/>
        <pt x="323" y="224" on="1"/>
        <pt x="323" y="253" on="0"/>
        <pt x="311" y="305" on="0"/>
        <pt x="285" y="344" on="0"/>
        <pt x="245" y="367" on="0"/>
        <pt x="217" y="367" on="1"/>
        <pt x="63" y="367" on="1"/>
        <pt x="63" y="650" on="1"/>
        <pt x="323" y="650" on="1"/>
        <pt x="323" y="598" on="1"/>
        <pt x="122" y="598" on="1"/>
        <pt x="122" y="421" on="1"/>
        <pt x="218" y="421" on="1"/>
        <pt x="258" y="421" on="0"/>
        <pt x="318" y="391" on="0"/>
        <pt x="358" y="338" on="0"/>
        <pt x="379" y="266" on="0"/>
        <pt x="379" y="224" on="1"/>
        <pt x="379" y="195" on="1"/>
      </contour>
    </TTGlyph>
    <TTGlyph name="fl" xMin="25" yMin="0" xMax="481" yMax="709">
      <contour>
        <pt x="346" y="132" on="1"/>
        <pt x="346" y="451" on="1"/>
        <pt x="166" y="451" on="1"/>
        <pt x="166" y="0" on="1"/>
        <pt x="113" y="0" on="1"/>
        <pt x="113" y="451" on="1"/>
        <pt x="25" y="451" on="1"/>
        <pt x="25" y="500" on="1"/>
        <pt x="114" y="500" on="1"/>
        <pt x="114" y="578" on="1"/>
        <pt x="114" y="613" on="0"/>
        <pt x="132" y="663" on="0"/>
        <pt x="163" y="694" on="0"/>
        <pt x="206" y="709" on="0"/>
        <pt x="231" y="709" on="1"/>
        <pt x="249" y="709" on="1"/>
        <pt x="249" y="655" on="1"/>
        <pt x="236" y="655" on="1"/>
        <pt x="208" y="655" on="0"/>
        <pt x="165" y="625" on="0"/>
        <pt x="165" y="585" on="1"/>
        <pt x="165" y="500" on="1"/>
        <pt x="346" y="500" on="1"/>
        <pt x="346" y="700" on="1"/>
        <pt x="398" y="700" on="1"/>
        <pt x="398" y="127" on="1"/>
        <pt x="398" y="86" on="0"/>
        <pt x="439" y="55" on="0"/>
        <pt x="468" y="55" on="1"/>
        <pt x="481" y="55" on="1"/>
        <pt x="481" y="1" on="1"/>
        <pt x="463" y="1" on="1"/>
        <pt x="438" y="1" on="0"/>
        <pt x="395" y="16" on="0"/>
        <pt x="364" y="47" on="0"/>
        <pt x="346" y="97" on="0"/>
      </contour>
    </TTGlyph>
    <TTGlyph name="four" xMin="32" yMin="0" xMax="338" yMax="650">
      <contour>
        <pt x="285" y="0" on="1"/>
        <pt x="285" y="195" on="1"/>
        <pt x="32" y="195" on="1"/>
        <pt x="32" y="254" on="1"/>
        <pt x="183" y="650" on="1"/>
        <pt x="238" y="650" on="1"/>
        <pt x="90" y="249" on="1"/>
        <pt x="285" y="249" on="1"/>
        <pt x="285" y="363" on="1"/>
        <pt x="338" y="363" on="1"/>
        <pt x="338" y="0" on="1"/>
      </contour>
    </TTGlyph>
    <TTGlyph name="fraction" xMin="29" yMin="1" xMax="190" yMax="699">
      <contour>
        <pt x="130" y="699" on="1"/>
        <pt x="190" y="699" on="1"/>
        <pt x="89" y="1" on="1"/>
        <pt x="29" y="1" on="1"/>
      </contour>
    </TTGlyph>
    <TTGlyph name="g" xMin="56" yMin="-259" xMax="376" yMax="510">
      <contour>
        <pt x="303" y="423" on="1"/>
        <pt x="300" y="432" on="0"/>
        <pt x="270" y="445" on="0"/>
        <pt x="233" y="454" on="0"/>
        <pt x="197" y="459" on="0"/>
        <pt x="188" y="459" on="1"/>
        <pt x="171" y="459" on="0"/>
        <pt x="141" y="445" on="0"/>
        <pt x="119" y="422" on="0"/>
        <pt x="106" y="391" on="0"/>
        <pt x="106" y="373" on="1"/>
        <pt x="106" y="129" on="1"/>
        <pt x="106" y="93" on="0"/>
        <pt x="154" y="42" on="0"/>
        <pt x="189" y="42" on="1"/>
        <pt x="198" y="42" on="0"/>
        <pt x="229" y="47" on="0"/>
        <pt x="264" y="56" on="0"/>
        <pt x="295" y="69" on="0"/>
        <pt x="303" y="77" on="1"/>
      </contour>
      <contour>
        <pt x="354" y="-117" on="1"/>
        <pt x="354" y="-154" on="0"/>
        <pt x="329" y="-208" on="0"/>
        <pt x="287" y="-242" on="0"/>
        <pt x="230" y="-259" on="0"/>
        <pt x="198" y="-259" on="1"/>
        <pt x="183" y="-259" on="0"/>
        <pt x="135" y="-249" on="0"/>
        <pt x="112" y="-243" on="1"/>
        <pt x="85" y="-236" on="0"/>
        <pt x="56" y="-227" on="1"/>
        <pt x="70" y="-180" on="1"/>
        <pt x="97" y="-189" on="0"/>
        <pt x="123" y="-196" on="1"/>
        <pt x="144" y="-202" on="0"/>
        <pt x="187" y="-211" on="0"/>
        <pt x="198" y="-211" on="1"/>
        <pt x="241" y="-211" on="0"/>
        <pt x="304" y="-165" on="0"/>
        <pt x="304" y="-118" on="1"/>
        <pt x="304" y="16" on="1"/>
        <pt x="269" y="-2" on="0"/>
        <pt x="217" y="-9" on="0"/>
        <pt x="200" y="-9" on="1"/>
        <pt x="189" y="-9" on="1"/>
        <pt x="161" y="-9" on="0"/>
        <pt x="113" y="13" on="0"/>
        <pt x="77" y="52" on="0"/>
        <pt x="56" y="103" on="0"/>
        <pt x="56" y="132" on="1"/>
        <pt x="56" y="369" on="1"/>
        <pt x="56" y="398" on="0"/>
        <pt x="77" y="450" on="0"/>
        <pt x="113" y="488" on="0"/>
        <pt x="161" y="510" on="0"/>
        <pt x="189" y="510" on="1"/>
        <pt x="212" y="510" on="0"/>
        <pt x="273" y="497" on="0"/>
        <pt x="310" y="480" on="1"/>
        <pt x="340" y="510" on="1"/>
        <pt x="376" y="474" on="1"/>
        <pt x="354" y="453" on="1"/>
      </contour>
    </TTGlyph>
    <TTGlyph name="germandbls" xMin="64" yMin="0" xMax="460" yMax="711">
      <contour>
        <pt x="460" y="186" on="1"/>
        <pt x="460" y="163" on="0"/>
        <pt x="446" y="99" on="0"/>
        <pt x="406" y="41" on="0"/>
        <pt x="334" y="0" on="0"/>
        <pt x="277" y="0" on="1"/>
        <pt x="225" y="0" on="1"/>
        <pt x="225" y="54" on="1"/>
        <pt x="275" y="54" on="1"/>
        <pt x="293" y="54" on="0"/>
        <pt x="338" y="63" on="0"/>
        <pt x="378" y="92" on="0"/>
        <pt x="405" y="144" on="0"/>
        <pt x="405" y="186" on="1"/>
        <pt x="405" y="229" on="1"/>
        <pt x="405" y="272" on="0"/>
        <pt x="380" y="324" on="0"/>
        <pt x="344" y="352" on="0"/>
        <pt x="302" y="361" on="0"/>
        <pt x="284" y="361" on="1"/>
        <pt x="261" y="361" on="1"/>
        <pt x="261" y="415" on="1"/>
        <pt x="283" y="415" on="1"/>
        <pt x="287" y="415" on="1"/>
        <pt x="333" y="415" on="0"/>
        <pt x="379" y="474" on="0"/>
        <pt x="379" y="525" on="1"/>
        <pt x="379" y="568" on="0"/>
        <pt x="352" y="620" on="0"/>
        <pt x="313" y="648" on="0"/>
        <pt x="268" y="657" on="0"/>
        <pt x="251" y="657" on="1"/>
        <pt x="233" y="657" on="0"/>
        <pt x="188" y="648" on="0"/>
        <pt x="147" y="620" on="0"/>
        <pt x="119" y="568" on="0"/>
        <pt x="119" y="525" on="1"/>
        <pt x="119" y="0" on="1"/>
        <pt x="64" y="0" on="1"/>
        <pt x="64" y="528" on="1"/>
        <pt x="64" y="550" on="0"/>
        <pt x="79" y="613" on="0"/>
        <pt x="119" y="670" on="0"/>
        <pt x="192" y="711" on="0"/>
        <pt x="251" y="711" on="1"/>
        <pt x="308" y="711" on="0"/>
        <pt x="380" y="670" on="0"/>
        <pt x="420" y="612" on="0"/>
        <pt x="434" y="548" on="0"/>
        <pt x="434" y="526" on="1"/>
        <pt x="434" y="484" on="0"/>
        <pt x="397" y="406" on="0"/>
        <pt x="357" y="392" on="1"/>
        <pt x="391" y="380" on="0"/>
        <pt x="431" y="339" on="0"/>
        <pt x="453" y="293" on="0"/>
        <pt x="460" y="248" on="0"/>
        <pt x="460" y="232" on="1"/>
        <pt x="460" y="186" on="1"/>
      </contour>
    </TTGlyph>
    <TTGlyph name="grave" xMin="100" yMin="589" xMax="258" yMax="736">
      <contour>
        <pt x="206" y="589" on="1"/>
        <pt x="100" y="736" on="1"/>
        <pt x="161" y="736" on="1"/>
        <pt x="258" y="589" on="1"/>
      </contour>
    </TTGlyph>
    <TTGlyph name="greater" xMin="72" yMin="176" xMax="438" yMax="435">
      <contour>
        <pt x="237" y="267" on="1"/>
        <pt x="252" y="270" on="0"/>
        <pt x="297" y="280" on="0"/>
        <pt x="339" y="288" on="0"/>
        <pt x="370" y="295" on="0"/>
        <pt x="370" y="295" on="1"/>
        <pt x="370" y="315" on="1"/>
        <pt x="344" y="321" on="0"/>
        <pt x="319" y="326" on="1"/>
        <pt x="298" y="331" on="0"/>
        <pt x="253" y="340" on="0"/>
        <pt x="238" y="344" on="1"/>
        <pt x="72" y="380" on="1"/>
        <pt x="72" y="435" on="1"/>
        <pt x="438" y="350" on="1"/>
        <pt x="438" y="265" on="1"/>
        <pt x="72" y="176" on="1"/>
        <pt x="72" y="230" on="1"/>
      </contour>
    </TTGlyph>
    <TTGlyph name="h" xMin="64" yMin="0" xMax="362" yMax="700">
      <contour>
        <pt x="312" y="0" on="1"/>
        <pt x="312" y="372" on="1"/>
        <pt x="312" y="408" on="0"/>
        <pt x="264" y="459" on="0"/>
        <pt x="229" y="459" on="1"/>
        <pt x="220" y="459" on="0"/>
        <pt x="194" y="456" on="0"/>
        <pt x="162" y="448" on="0"/>
        <pt x="130" y="434" on="0"/>
        <pt x="115" y="424" on="1"/>
        <pt x="115" y="0" on="1"/>
        <pt x="64" y="0" on="1"/>
        <pt x="64" y="700" on="1"/>
        <pt x="114" y="700" on="1"/>
        <pt x="114" y="482" on="1"/>
        <pt x="154" y="503" on="0"/>
        <pt x="212" y="510" on="0"/>
        <pt x="229" y="510" on="1"/>
        <pt x="257" y="510" on="0"/>
        <pt x="305" y="488" on="0"/>
        <pt x="341" y="449" on="0"/>
        <pt x="362" y="398" on="0"/>
        <pt x="362" y="369" on="1"/>
        <pt x="362" y="0" on="1"/>
      </contour>
    </TTGlyph>
    <TTGlyph name="hyphen" xMin="61" yMin="323" xMax="301" yMax="387">
      <contour>
        <pt x="61" y="323" on="1"/>
        <pt x="61" y="387" on="1"/>
        <pt x="301" y="387" on="1"/>
        <pt x="301" y="323" on="1"/>
      </contour>
    </TTGlyph>
    <TTGlyph name="i" xMin="64" yMin="0" xMax="117" yMax="700">
      <contour>
        <pt x="64" y="700" on="1"/>
        <pt x="117" y="700" on="1"/>
        <pt x="117" y="622" on="1"/>
        <pt x="64" y="622" on="1"/>
      </contour>
      <contour>
        <pt x="64" y="500" on="1"/>
        <pt x="117" y="500" on="1"/>
        <pt x="117" y="0" on="1"/>
        <pt x="64" y="0" on="1"/>
      </contour>
    </TTGlyph>
    <TTGlyph name="iacute" xMin="64" yMin="0" xMax="223" yMax="737">
      <contour>
        <pt x="64" y="500" on="1"/>
        <pt x="117" y="500" on="1"/>
        <pt x="117" y="0" on="1"/>
        <pt x="64" y="0" on="1"/>
      </contour>
      <contour>
        <pt x="117" y="590" on="1"/>
        <pt x="65" y="590" on="1"/>
        <pt x="162" y="737" on="1"/>
        <pt x="223" y="737" on="1"/>
      </contour>
    </TTGlyph>
    <TTGlyph name="icircumflex" xMin="-36" yMin="0" xMax="219" yMax="751">
      <component glyphName="i" x="0" y="0" flags="0x1204"/>
      <component glyphName="circumflex" x="-106" y="0" flags="0x1004"/>
    </TTGlyph>
    <TTGlyph name="idieresis" xMin="-37" yMin="0" xMax="219" yMax="677">
      <contour>
        <pt x="64" y="500" on="1"/>
        <pt x="117" y="500" on="1"/>
        <pt x="117" y="0" on="1"/>
        <pt x="64" y="0" on="1"/>
      </contour>
      <contour>
        <pt x="161" y="600" on="1"/>
        <pt x="161" y="677" on="1"/>
        <pt x="219" y="677" on="1"/>
        <pt x="219" y="600" on="1"/>
      </contour>
      <contour>
        <pt x="-37" y="600" on="1"/>
        <pt x="-37" y="677" on="1"/>
        <pt x="21" y="677" on="1"/>
        <pt x="21" y="600" on="1"/>
      </contour>
    </TTGlyph>
    <TTGlyph name="igrave" xMin="-45" yMin="0" xMax="117" yMax="736">
      <contour>
        <pt x="64" y="500" on="1"/>
        <pt x="117" y="500" on="1"/>
        <pt x="117" y="0" on="1"/>
        <pt x="64" y="0" on="1"/>
      </contour>
      <contour>
        <pt x="61" y="589" on="1"/>
        <pt x="-45" y="736" on="1"/>
        <pt x="16" y="736" on="1"/>
        <pt x="113" y="589" on="1"/>
      </contour>
    </TTGlyph>
    <TTGlyph name="j" xMin="-18" yMin="-244" xMax="118" yMax="699">
      <contour>
        <pt x="63" y="501" on="1"/>
        <pt x="118" y="501" on="1"/>
        <pt x="118" y="-113" on="1"/>
        <pt x="118" y="-148" on="0"/>
        <pt x="100" y="-198" on="0"/>
        <pt x="68" y="-229" on="0"/>
        <pt x="25" y="-244" on="0"/>
        <pt x="0" y="-244" on="1"/>
        <pt x="-18" y="-244" on="1"/>
        <pt x="-18" y="-190" on="1"/>
        <pt x="-5" y="-190" on="1"/>
        <pt x="9" y="-190" on="0"/>
        <pt x="35" y="-183" on="0"/>
        <pt x="54" y="-166" on="0"/>
        <pt x="66" y="-139" on="0"/>
        <pt x="66" y="-118" on="1"/>
      </contour>
      <contour>
        <pt x="63" y="699" on="1"/>
        <pt x="118" y="699" on="1"/>
        <pt x="118" y="625" on="1"/>
        <pt x="63" y="625" on="1"/>
      </contour>
    </TTGlyph>
    <TTGlyph name="k" xMin="64" yMin="0" xMax="312" yMax="700">
      <contour>
        <pt x="255" y="0" on="1"/>
        <pt x="148" y="239" on="1"/>
        <pt x="115" y="239" on="1"/>
        <pt x="115" y="0" on="1"/>
        <pt x="64" y="0" on="1"/>
        <pt x="64" y="700" on="1"/>
        <pt x="115" y="700" on="1"/>
        <pt x="115" y="300" on="1"/>
        <pt x="147" y="300" on="1"/>
        <pt x="254" y="499" on="1"/>
        <pt x="311" y="499" on="1"/>
        <pt x="188" y="268" on="1"/>
        <pt x="312" y="0" on="1"/>
      </contour>
    </TTGlyph>
    <TTGlyph name="l" xMin="70" yMin="1" xMax="205" yMax="700">
      <contour>
        <pt x="70" y="700" on="1"/>
        <pt x="122" y="700" on="1"/>
        <pt x="122" y="127" on="1"/>
        <pt x="122" y="86" on="0"/>
        <pt x="163" y="55" on="0"/>
        <pt x="192" y="55" on="1"/>
        <pt x="205" y="55" on="1"/>
        <pt x="205" y="1" on="1"/>
        <pt x="187" y="1" on="1"/>
        <pt x="162" y="1" on="0"/>
        <pt x="119" y="16" on="0"/>
        <pt x="88" y="47" on="0"/>
        <pt x="70" y="97" on="0"/>
        <pt x="70" y="132" on="1"/>
      </contour>
    </TTGlyph>
    <TTGlyph name="less" xMin="53" yMin="171" xMax="419" yMax="430">
      <contour>
        <pt x="419" y="225" on="1"/>
        <pt x="419" y="171" on="1"/>
        <pt x="53" y="260" on="1"/>
        <pt x="53" y="345" on="1"/>
        <pt x="419" y="430" on="1"/>
        <pt x="419" y="375" on="1"/>
        <pt x="253" y="339" on="1"/>
        <pt x="238" y="335" on="0"/>
        <pt x="193" y="326" on="0"/>
        <pt x="172" y="321" on="1"/>
        <pt x="147" y="316" on="0"/>
        <pt x="121" y="310" on="1"/>
        <pt x="121" y="290" on="1"/>
        <pt x="121" y="290" on="0"/>
        <pt x="152" y="283" on="0"/>
        <pt x="194" y="275" on="0"/>
        <pt x="239" y="265" on="0"/>
        <pt x="254" y="262" on="1"/>
      </contour>
    </TTGlyph>
    <TTGlyph name="lslash" xMin="23" yMin="1" xMax="366" yMax="700">
      <contour>
        <pt x="179" y="209" on="1"/>
        <pt x="179" y="127" on="1"/>
        <pt x="179" y="86" on="0"/>
        <pt x="220" y="55" on="0"/>
        <pt x="249" y="55" on="1"/>
        <pt x="262" y="55" on="1"/>
        <pt x="262" y="1" on="1"/>
        <pt x="244" y="1" on="1"/>
        <pt x="219" y="1" on="0"/>
        <pt x="176" y="16" on="0"/>
        <pt x="145" y="47" on="0"/>
        <pt x="127" y="97" on="0"/>
        <pt x="127" y="132" on="1"/>
        <pt x="127" y="209" on="1"/>
        <pt x="23" y="209" on="1"/>
        <pt x="23" y="263" on="1"/>
        <pt x="127" y="263" on="1"/>
        <pt x="127" y="700" on="1"/>
        <pt x="179" y="700" on="1"/>
        <pt x="179" y="263" on="1"/>
        <pt x="366" y="263" on="1"/>
        <pt x="366" y="209" on="1"/>
      </contour>
    </TTGlyph>
    <TTGlyph name="m" xMin="43" yMin="0" xMax="628" yMax="510">
      <contour>
        <pt x="320" y="376" on="1"/>
        <pt x="320" y="394" on="0"/>
        <pt x="303" y="424" on="0"/>
        <pt x="274" y="446" on="0"/>
        <pt x="238" y="459" on="0"/>
        <pt x="220" y="459" on="1"/>
        <pt x="211" y="459" on="0"/>
        <pt x="182" y="453" on="0"/>
        <pt x="152" y="443" on="0"/>
        <pt x="125" y="431" on="0"/>
        <pt x="116" y="424" on="1"/>
        <pt x="116" y="0" on="1"/>
        <pt x="65" y="0" on="1"/>
        <pt x="65" y="452" on="1"/>
        <pt x="43" y="474" on="1"/>
        <pt x="79" y="509" on="1"/>
        <pt x="109" y="478" on="1"/>
        <pt x="135" y="492" on="0"/>
        <pt x="188" y="510" on="0"/>
        <pt x="213" y="510" on="1"/>
        <pt x="258" y="510" on="0"/>
        <pt x="334" y="472" on="0"/>
        <pt x="349" y="432" on="1"/>
        <pt x="363" y="456" on="0"/>
        <pt x="399" y="486" on="0"/>
        <pt x="438" y="503" on="0"/>
        <pt x="477" y="510" on="0"/>
        <pt x="495" y="510" on="1"/>
        <pt x="531" y="510" on="0"/>
        <pt x="582" y="484" on="0"/>
        <pt x="614" y="443" on="0"/>
        <pt x="628" y="394" on="0"/>
        <pt x="628" y="370" on="1"/>
        <pt x="628" y="0" on="1"/>
        <pt x="576" y="0" on="1"/>
        <pt x="576" y="363" on="1"/>
        <pt x="576" y="382" on="0"/>
        <pt x="567" y="416" on="0"/>
        <pt x="548" y="442" on="0"/>
        <pt x="515" y="458" on="0"/>
        <pt x="491" y="458" on="1"/>
        <pt x="428" y="458" on="0"/>
        <pt x="372" y="387" on="0"/>
        <pt x="372" y="323" on="1"/>
        <pt x="372" y="0" on="1"/>
        <pt x="320" y="0" on="1"/>
      </contour>
    </TTGlyph>
    <TTGlyph name="minus" xMin="69" yMin="251" xMax="412" yMax="315">
      <contour>
        <pt x="69" y="251" on="1"/>
        <pt x="69" y="315" on="1"/>
        <pt x="412" y="315" on="1"/>
        <pt x="412" y="251" on="1"/>
      </contour>
    </TTGlyph>
    <TTGlyph name="mu" xMin="72" yMin="-208" xMax="401" yMax="502">
      <contour>
        <pt x="73" y="-208" on="1"/>
        <pt x="73" y="132" on="1"/>
        <pt x="72" y="143" on="0"/>
        <pt x="72" y="165" on="0"/>
        <pt x="72" y="177" on="1"/>
        <pt x="72" y="500" on="1"/>
        <pt x="73" y="500" on="1"/>
        <pt x="73" y="502" on="1"/>
        <pt x="123" y="502" on="1"/>
        <pt x="123" y="500" on="1"/>
        <pt x="124" y="500" on="1"/>
        <pt x="124" y="146" on="1"/>
        <pt x="124" y="120" on="0"/>
        <pt x="139" y="81" on="0"/>
        <pt x="164" y="55" on="0"/>
        <pt x="196" y="41" on="0"/>
        <pt x="213" y="41" on="1"/>
        <pt x="245" y="41" on="0"/>
        <pt x="310" y="64" on="0"/>
        <pt x="328" y="77" on="1"/>
        <pt x="328" y="500" on="1"/>
        <pt x="379" y="500" on="1"/>
        <pt x="379" y="50" on="1"/>
        <pt x="401" y="29" on="1"/>
        <pt x="365" y="-7" on="1"/>
        <pt x="335" y="23" on="1"/>
        <pt x="306" y="7" on="0"/>
        <pt x="240" y="-8" on="0"/>
        <pt x="214" y="-8" on="1"/>
        <pt x="190" y="-8" on="0"/>
        <pt x="143" y="7" on="0"/>
        <pt x="123" y="24" on="1"/>
        <pt x="123" y="-208" on="1"/>
      </contour>
    </TTGlyph>
    <TTGlyph name="multiply" xMin="55" yMin="99" xMax="397" yMax="441">
      <contour>
        <pt x="362" y="99" on="1"/>
        <pt x="226" y="235" on="1"/>
        <pt x="90" y="99" on="1"/>
        <pt x="55" y="134" on="1"/>
        <pt x="191" y="270" on="1"/>
        <pt x="55" y="406" on="1"/>
        <pt x="90" y="441" on="1"/>
        <pt x="226" y="305" on="1"/>
        <pt x="362" y="441" on="1"/>
        <pt x="397" y="406" on="1"/>
        <pt x="261" y="270" on="1"/>
        <pt x="397" y="134" on="1"/>
      </contour>
    </TTGlyph>
    <TTGlyph name="n" xMin="43" yMin="0" xMax="372" yMax="509">
      <contour>
        <pt x="356" y="427" on="1"/>
        <pt x="368" y="402" on="0"/>
        <pt x="372" y="351" on="0"/>
        <pt x="372" y="324" on="1"/>
        <pt x="372" y="0" on="1"/>
        <pt x="319" y="0" on="1"/>
        <pt x="319" y="355" on="1"/>
        <pt x="319" y="406" on="0"/>
        <pt x="265" y="460" on="0"/>
        <pt x="231" y="460" on="1"/>
        <pt x="212" y="460" on="0"/>
        <pt x="153" y="448" on="0"/>
        <pt x="116" y="424" on="1"/>
        <pt x="116" y="0" on="1"/>
        <pt x="65" y="0" on="1"/>
        <pt x="65" y="451" on="1"/>
        <pt x="43" y="472" on="1"/>
        <pt x="79" y="508" on="1"/>
        <pt x="109" y="478" on="1"/>
        <pt x="164" y="509" on="0"/>
        <pt x="213" y="509" on="1"/>
        <pt x="258" y="509" on="0"/>
        <pt x="336" y="472" on="0"/>
      </contour>
    </TTGlyph>
    <TTGlyph name="nine" xMin="59" yMin="-11" xMax="357" yMax="656">
      <contour>
        <pt x="192" y="299" on="1"/>
        <pt x="224" y="299" on="1"/>
        <pt x="258" y="299" on="0"/>
        <pt x="306" y="350" on="0"/>
        <pt x="306" y="386" on="1"/>
        <pt x="306" y="523" on="1"/>
        <pt x="306" y="563" on="0"/>
        <pt x="250" y="606" on="0"/>
        <pt x="213" y="606" on="1"/>
        <pt x="192" y="606" on="0"/>
        <pt x="155" y="598" on="0"/>
        <pt x="127" y="578" on="0"/>
        <pt x="110" y="547" on="0"/>
        <pt x="110" y="523" on="1"/>
        <pt x="110" y="386" on="1"/>
        <pt x="110" y="350" on="0"/>
        <pt x="157" y="299" on="0"/>
      </contour>
      <contour>
        <pt x="192" y="656" on="1"/>
        <pt x="225" y="656" on="1"/>
        <pt x="252" y="656" on="0"/>
        <pt x="300" y="635" on="0"/>
        <pt x="336" y="598" on="0"/>
        <pt x="357" y="548" on="0"/>
        <pt x="357" y="519" on="1"/>
        <pt x="357" y="141" on="1"/>
        <pt x="357" y="108" on="0"/>
        <pt x="332" y="52" on="0"/>
        <pt x="290" y="11" on="0"/>
        <pt x="234" y="-11" on="0"/>
        <pt x="202" y="-11" on="1"/>
        <pt x="197" y="-11" on="0"/>
        <pt x="152" y="-1" on="0"/>
        <pt x="126" y="5" on="1"/>
        <pt x="96" y="12" on="0"/>
        <pt x="60" y="21" on="1"/>
        <pt x="74" y="68" on="1"/>
        <pt x="107" y="59" on="0"/>
        <pt x="134" y="53" on="1"/>
        <pt x="157" y="47" on="0"/>
        <pt x="198" y="38" on="0"/>
        <pt x="202" y="38" on="1"/>
        <pt x="245" y="38" on="0"/>
        <pt x="308" y="94" on="0"/>
        <pt x="308" y="141" on="1"/>
        <pt x="308" y="276" on="1"/>
        <pt x="298" y="267" on="0"/>
        <pt x="266" y="256" on="0"/>
        <pt x="232" y="250" on="0"/>
        <pt x="201" y="248" on="0"/>
        <pt x="192" y="248" on="1"/>
        <pt x="164" y="248" on="0"/>
        <pt x="116" y="270" on="0"/>
        <pt x="80" y="309" on="0"/>
        <pt x="59" y="360" on="0"/>
        <pt x="59" y="389" on="1"/>
        <pt x="59" y="519" on="1"/>
        <pt x="59" y="548" on="0"/>
        <pt x="80" y="598" on="0"/>
        <pt x="116" y="635" on="0"/>
        <pt x="164" y="656" on="0"/>
      </contour>
    </TTGlyph>
    <TTGlyph name="ntilde" xMin="43" yMin="0" xMax="372" yMax="655">
      <component glyphName="n" x="0" y="0" flags="0x1204"/>
      <component glyphName="tilde" x="-37" y="0" flags="0x1004"/>
    </TTGlyph>
    <TTGlyph name="o" xMin="56" yMin="-6" xMax="362" yMax="510">
      <contour>
        <pt x="316" y="144" on="1"/>
        <pt x="316" y="361" on="1"/>
        <pt x="316" y="394" on="0"/>
        <pt x="292" y="433" on="0"/>
        <pt x="259" y="454" on="0"/>
        <pt x="222" y="461" on="0"/>
        <pt x="209" y="461" on="1"/>
        <pt x="196" y="461" on="0"/>
        <pt x="159" y="454" on="0"/>
        <pt x="125" y="433" on="0"/>
        <pt x="101" y="394" on="0"/>
        <pt x="101" y="361" on="1"/>
        <pt x="101" y="144" on="1"/>
        <pt x="101" y="111" on="0"/>
        <pt x="125" y="72" on="0"/>
        <pt x="159" y="50" on="0"/>
        <pt x="196" y="43" on="0"/>
        <pt x="209" y="43" on="1"/>
        <pt x="222" y="43" on="0"/>
        <pt x="259" y="50" on="0"/>
        <pt x="292" y="72" on="0"/>
        <pt x="316" y="111" on="0"/>
      </contour>
      <contour>
        <pt x="362" y="137" on="1"/>
        <pt x="362" y="91" on="0"/>
        <pt x="328" y="35" on="0"/>
        <pt x="280" y="4" on="0"/>
        <pt x="228" y="-6" on="0"/>
        <pt x="209" y="-6" on="1"/>
        <pt x="190" y="-6" on="0"/>
        <pt x="138" y="4" on="0"/>
        <pt x="90" y="35" on="0"/>
        <pt x="56" y="91" on="0"/>
        <pt x="56" y="137" on="1"/>
        <pt x="56" y="368" on="1"/>
        <pt x="56" y="414" on="0"/>
        <pt x="90" y="470" on="0"/>
        <pt x="138" y="500" on="0"/>
        <pt x="190" y="510" on="0"/>
        <pt x="209" y="510" on="1"/>
        <pt x="228" y="510" on="0"/>
        <pt x="280" y="500" on="0"/>
        <pt x="328" y="470" on="0"/>
        <pt x="362" y="414" on="0"/>
        <pt x="362" y="368" on="1"/>
      </contour>
    </TTGlyph>
    <TTGlyph name="oacute" xMin="56" yMin="-6" xMax="362" yMax="737">
      <component glyphName="o" x="0" y="0" flags="0x1204"/>
      <component glyphName="acute" x="-27" y="0" flags="0x1004"/>
    </TTGlyph>
    <TTGlyph name="ocircumflex" xMin="56" yMin="-6" xMax="362" yMax="751">
      <component glyphName="o" x="0" y="0" flags="0x1204"/>
      <component glyphName="circumflex" x="11" y="0" flags="0x1004"/>
    </TTGlyph>
    <TTGlyph name="odieresis" xMin="56" yMin="-6" xMax="362" yMax="677">
      <component glyphName="o" x="0" y="0" flags="0x1204"/>
      <component glyphName="dieresis" x="-23" y="0" flags="0x1004"/>
    </TTGlyph>
    <TTGlyph name="oe" xMin="56" yMin="-9" xMax="623" yMax="510">
      <contour>
        <pt x="316" y="142" on="1"/>
        <pt x="316" y="359" on="1"/>
        <pt x="316" y="392" on="0"/>
        <pt x="292" y="431" on="0"/>
        <pt x="259" y="452" on="0"/>
        <pt x="222" y="459" on="0"/>
        <pt x="209" y="459" on="1"/>
        <pt x="196" y="459" on="0"/>
        <pt x="159" y="452" on="0"/>
        <pt x="125" y="431" on="0"/>
        <pt x="101" y="392" on="0"/>
        <pt x="101" y="359" on="1"/>
        <pt x="101" y="142" on="1"/>
        <pt x="101" y="109" on="0"/>
        <pt x="125" y="70" on="0"/>
        <pt x="159" y="48" on="0"/>
        <pt x="196" y="41" on="0"/>
        <pt x="209" y="41" on="1"/>
        <pt x="222" y="41" on="0"/>
        <pt x="259" y="48" on="0"/>
        <pt x="292" y="70" on="0"/>
        <pt x="316" y="109" on="0"/>
      </contour>
      <contour>
        <pt x="362" y="135" on="1"/>
        <pt x="362" y="89" on="0"/>
        <pt x="328" y="33" on="0"/>
        <pt x="280" y="2" on="0"/>
        <pt x="228" y="-8" on="0"/>
        <pt x="209" y="-8" on="1"/>
        <pt x="190" y="-8" on="0"/>
        <pt x="138" y="2" on="0"/>
        <pt x="90" y="33" on="0"/>
        <pt x="56" y="89" on="0"/>
        <pt x="56" y="135" on="1"/>
        <pt x="56" y="366" on="1"/>
        <pt x="56" y="412" on="0"/>
        <pt x="90" y="468" on="0"/>
        <pt x="138" y="498" on="0"/>
        <pt x="190" y="508" on="0"/>
        <pt x="209" y="508" on="1"/>
        <pt x="228" y="508" on="0"/>
        <pt x="280" y="498" on="0"/>
        <pt x="328" y="468" on="0"/>
        <pt x="362" y="412" on="0"/>
        <pt x="362" y="366" on="1"/>
      </contour>
      <contour>
        <pt x="486" y="241" on="1"/>
        <pt x="488" y="241" on="1"/>
        <pt x="506" y="241" on="0"/>
        <pt x="536" y="256" on="0"/>
        <pt x="558" y="281" on="0"/>
        <pt x="571" y="313" on="0"/>
        <pt x="571" y="331" on="1"/>
        <pt x="571" y="373" on="1"/>
        <pt x="571" y="397" on="0"/>
        <pt x="553" y="430" on="0"/>
        <pt x="524" y="450" on="0"/>
        <pt x="485" y="459" on="0"/>
        <pt x="464" y="459" on="1"/>
        <pt x="445" y="459" on="0"/>
        <pt x="410" y="447" on="0"/>
        <pt x="384" y="425" on="0"/>
        <pt x="368" y="393" on="0"/>
        <pt x="368" y="373" on="1"/>
        <pt x="368" y="242" on="1"/>
      </contour>
      <contour>
        <pt x="316" y="368" on="1"/>
        <pt x="316" y="398" on="0"/>
        <pt x="337" y="450" on="0"/>
        <pt x="374" y="488" on="0"/>
        <pt x="423" y="510" on="0"/>
        <pt x="452" y="510" on="1"/>
        <pt x="486" y="510" on="1"/>
        <pt x="514" y="510" on="0"/>
        <pt x="564" y="488" on="0"/>
        <pt x="602" y="450" on="0"/>
        <pt x="623" y="398" on="0"/>
        <pt x="623" y="368" on="1"/>
        <pt x="623" y="335" on="1"/>
        <pt x="623" y="293" on="0"/>
        <pt x="593" y="236" on="0"/>
        <pt x="541" y="200" on="0"/>
        <pt x="472" y="185" on="0"/>
        <pt x="433" y="185" on="1"/>
        <pt x="417" y="185" on="0"/>
        <pt x="385" y="187" on="0"/>
        <pt x="368" y="189" on="1"/>
        <pt x="368" y="129" on="1"/>
        <pt x="375" y="89" on="0"/>
        <pt x="436" y="42" on="0"/>
        <pt x="475" y="42" on="1"/>
        <pt x="485" y="42" on="0"/>
        <pt x="529" y="50" on="0"/>
        <pt x="552" y="55" on="1"/>
        <pt x="578" y="61" on="0"/>
        <pt x="608" y="69" on="1"/>
        <pt x="620" y="17" on="1"/>
        <pt x="588" y="9" on="0"/>
        <pt x="560" y="4" on="1"/>
        <pt x="536" y="-1" on="0"/>
        <pt x="488" y="-9" on="0"/>
        <pt x="475" y="-9" on="1"/>
        <pt x="443" y="-9" on="0"/>
        <pt x="385" y="14" on="0"/>
        <pt x="341" y="56" on="0"/>
        <pt x="316" y="113" on="0"/>
        <pt x="316" y="147" on="1"/>
      </contour>
    </TTGlyph>
    <TTGlyph name="ograve" xMin="56" yMin="-6" xMax="362" yMax="736">
      <component glyphName="o" x="0" y="0" flags="0x1204"/>
      <component glyphName="grave" x="-22" y="0" flags="0x1004"/>
    </TTGlyph>
    <TTGlyph name="one" xMin="78" yMin="1" xMax="131" yMax="650">
      <contour>
        <pt x="78" y="623" on="1"/>
        <pt x="131" y="650" on="1"/>
        <pt x="131" y="1" on="1"/>
        <pt x="78" y="1" on="1"/>
      </contour>
    </TTGlyph>
    <TTGlyph name="oslash" xMin="56" yMin="-88" xMax="362" yMax="610">
      <component glyphName="o" x="0" y="0" flags="0x1004"/>
      <component glyphName="slash" x="79" y="-89" flags="0x1004"/>
    </TTGlyph>
    <TTGlyph name="otilde" xMin="56" yMin="-6" xMax="362" yMax="655">
      <component glyphName="o" x="0" y="0" flags="0x1204"/>
      <component glyphName="tilde" x="-38" y="0" flags="0x1004"/>
    </TTGlyph>
    <TTGlyph name="p" xMin="43" yMin="-250" xMax="363" yMax="510">
      <contour>
        <pt x="116" y="76" on="1"/>
        <pt x="128" y="68" on="0"/>
        <pt x="160" y="56" on="0"/>
        <pt x="192" y="46" on="0"/>
        <pt x="221" y="41" on="0"/>
        <pt x="230" y="41" on="1"/>
        <pt x="265" y="41" on="0"/>
        <pt x="313" y="92" on="0"/>
        <pt x="313" y="128" on="1"/>
        <pt x="313" y="373" on="1"/>
        <pt x="313" y="391" on="0"/>
        <pt x="300" y="422" on="0"/>
        <pt x="278" y="445" on="0"/>
        <pt x="248" y="459" on="0"/>
        <pt x="231" y="459" on="1"/>
        <pt x="222" y="459" on="0"/>
        <pt x="194" y="456" on="0"/>
        <pt x="163" y="447" on="0"/>
        <pt x="131" y="433" on="0"/>
        <pt x="116" y="423" on="1"/>
      </contour>
      <contour>
        <pt x="115" y="18" on="1"/>
        <pt x="115" y="-250" on="1"/>
        <pt x="65" y="-250" on="1"/>
        <pt x="65" y="453" on="1"/>
        <pt x="43" y="474" on="1"/>
        <pt x="78" y="510" on="1"/>
        <pt x="109" y="480" on="1"/>
        <pt x="143" y="497" on="0"/>
        <pt x="207" y="510" on="0"/>
        <pt x="230" y="510" on="1"/>
        <pt x="258" y="510" on="0"/>
        <pt x="306" y="488" on="0"/>
        <pt x="342" y="450" on="0"/>
        <pt x="363" y="398" on="0"/>
        <pt x="363" y="369" on="1"/>
        <pt x="363" y="131" on="1"/>
        <pt x="363" y="102" on="0"/>
        <pt x="342" y="51" on="0"/>
        <pt x="306" y="12" on="0"/>
        <pt x="258" y="-10" on="0"/>
        <pt x="230" y="-10" on="1"/>
        <pt x="213" y="-10" on="0"/>
        <pt x="155" y="-3" on="0"/>
      </contour>
    </TTGlyph>
    <TTGlyph name="parenleft" xMin="61" yMin="-49" xMax="197" yMax="750">
      <contour>
        <pt x="61" y="82" on="1"/>
        <pt x="61" y="619" on="1"/>
        <pt x="61" y="654" on="0"/>
        <pt x="79" y="704" on="0"/>
        <pt x="111" y="735" on="0"/>
        <pt x="154" y="750" on="0"/>
        <pt x="179" y="750" on="1"/>
        <pt x="197" y="750" on="1"/>
        <pt x="197" y="696" on="1"/>
        <pt x="184" y="696" on="1"/>
        <pt x="155" y="696" on="0"/>
        <pt x="114" y="665" on="0"/>
        <pt x="114" y="624" on="1"/>
        <pt x="114" y="77" on="1"/>
        <pt x="114" y="36" on="0"/>
        <pt x="155" y="5" on="0"/>
        <pt x="184" y="5" on="1"/>
        <pt x="197" y="5" on="1"/>
        <pt x="197" y="-49" on="1"/>
        <pt x="179" y="-49" on="1"/>
        <pt x="154" y="-49" on="0"/>
        <pt x="111" y="-34" on="0"/>
        <pt x="79" y="-3" on="0"/>
        <pt x="61" y="47" on="0"/>
      </contour>
    </TTGlyph>
    <TTGlyph name="parenright" xMin="33" yMin="-50" xMax="170" yMax="750">
      <contour>
        <pt x="169" y="81" on="1"/>
        <pt x="169" y="46" on="0"/>
        <pt x="151" y="-4" on="0"/>
        <pt x="119" y="-35" on="0"/>
        <pt x="76" y="-50" on="0"/>
        <pt x="51" y="-50" on="1"/>
        <pt x="33" y="-50" on="1"/>
        <pt x="33" y="4" on="1"/>
        <pt x="46" y="4" on="1"/>
        <pt x="74" y="4" on="0"/>
        <pt x="116" y="35" on="0"/>
        <pt x="116" y="76" on="1"/>
        <pt x="117" y="624" on="1"/>
        <pt x="117" y="665" on="0"/>
        <pt x="75" y="696" on="0"/>
        <pt x="47" y="696" on="1"/>
        <pt x="34" y="696" on="1"/>
        <pt x="34" y="750" on="1"/>
        <pt x="52" y="750" on="1"/>
        <pt x="77" y="750" on="0"/>
        <pt x="120" y="735" on="0"/>
        <pt x="152" y="704" on="0"/>
        <pt x="170" y="654" on="0"/>
        <pt x="170" y="619" on="1"/>
        <pt x="169" y="81" on="1"/>
      </contour>
    </TTGlyph>
    <TTGlyph name="period" xMin="56" yMin="5" xMax="125" yMax="93">
      <contour>
        <pt x="56" y="5" on="1"/>
        <pt x="56" y="93" on="1"/>
        <pt x="125" y="93" on="1"/>
        <pt x="125" y="5" on="1"/>
      </contour>
    </TTGlyph>
    <TTGlyph name="plus" xMin="45" yMin="98" xMax="384" yMax="437">
      <contour>
        <pt x="384" y="235" on="1"/>
        <pt x="247" y="235" on="1"/>
        <pt x="247" y="98" on="1"/>
        <pt x="182" y="98" on="1"/>
        <pt x="182" y="235" on="1"/>
        <pt x="45" y="235" on="1"/>
        <pt x="45" y="300" on="1"/>
        <pt x="182" y="300" on="1"/>
        <pt x="182" y="437" on="1"/>
        <pt x="247" y="437" on="1"/>
        <pt x="247" y="300" on="1"/>
        <pt x="384" y="300" on="1"/>
      </contour>
    </TTGlyph>
    <TTGlyph name="q" xMin="56" yMin="-250" xMax="376" yMax="509">
      <contour>
        <pt x="303" y="422" on="1"/>
        <pt x="265" y="447" on="0"/>
        <pt x="207" y="458" on="0"/>
        <pt x="188" y="458" on="1"/>
        <pt x="171" y="458" on="0"/>
        <pt x="141" y="444" on="0"/>
        <pt x="119" y="421" on="0"/>
        <pt x="106" y="390" on="0"/>
        <pt x="106" y="372" on="1"/>
        <pt x="106" y="128" on="1"/>
        <pt x="106" y="92" on="0"/>
        <pt x="154" y="42" on="0"/>
        <pt x="189" y="42" on="1"/>
        <pt x="198" y="42" on="0"/>
        <pt x="226" y="46" on="0"/>
        <pt x="258" y="54" on="0"/>
        <pt x="291" y="67" on="0"/>
        <pt x="303" y="77" on="1"/>
      </contour>
      <contour>
        <pt x="285" y="7" on="1"/>
        <pt x="256" y="-7" on="0"/>
        <pt x="209" y="-9" on="0"/>
        <pt x="192" y="-10" on="1"/>
        <pt x="164" y="-10" on="0"/>
        <pt x="115" y="12" on="0"/>
        <pt x="78" y="51" on="0"/>
        <pt x="56" y="102" on="0"/>
        <pt x="56" y="131" on="1"/>
        <pt x="56" y="368" on="1"/>
        <pt x="56" y="397" on="0"/>
        <pt x="77" y="449" on="0"/>
        <pt x="113" y="487" on="0"/>
        <pt x="161" y="509" on="0"/>
        <pt x="189" y="509" on="1"/>
        <pt x="211" y="509" on="0"/>
        <pt x="276" y="496" on="0"/>
        <pt x="310" y="479" on="1"/>
        <pt x="341" y="509" on="1"/>
        <pt x="376" y="473" on="1"/>
        <pt x="354" y="452" on="1"/>
        <pt x="354" y="-250" on="1"/>
        <pt x="304" y="-250" on="1"/>
        <pt x="304" y="16" on="1"/>
      </contour>
    </TTGlyph>
    <TTGlyph name="question" xMin="35" yMin="0" xMax="386" yMax="710">
      <contour>
        <pt x="196" y="0" on="1"/>
        <pt x="196" y="90" on="1"/>
        <pt x="127" y="90" on="1"/>
        <pt x="127" y="0" on="1"/>
      </contour>
      <contour>
        <pt x="386" y="539" on="1"/>
        <pt x="386" y="507" on="0"/>
        <pt x="367" y="461" on="0"/>
        <pt x="356" y="444" on="1"/>
        <pt x="213" y="229" on="1"/>
        <pt x="203" y="215" on="0"/>
        <pt x="189" y="184" on="0"/>
        <pt x="189" y="161" on="1"/>
        <pt x="189" y="140" on="1"/>
        <pt x="131" y="140" on="1"/>
        <pt x="131" y="160" on="1"/>
        <pt x="131" y="195" on="0"/>
        <pt x="148" y="241" on="0"/>
        <pt x="160" y="258" on="1"/>
        <pt x="296" y="462" on="1"/>
        <pt x="307" y="479" on="0"/>
        <pt x="329" y="519" on="0"/>
        <pt x="329" y="538" on="1"/>
        <pt x="329" y="564" on="0"/>
        <pt x="303" y="606" on="0"/>
        <pt x="264" y="635" on="0"/>
        <pt x="219" y="651" on="0"/>
        <pt x="201" y="651" on="1"/>
        <pt x="189" y="651" on="0"/>
        <pt x="164" y="645" on="0"/>
        <pt x="152" y="640" on="1"/>
        <pt x="54" y="603" on="1"/>
        <pt x="35" y="657" on="1"/>
        <pt x="119" y="692" on="1"/>
        <pt x="136" y="699" on="0"/>
        <pt x="184" y="710" on="0"/>
        <pt x="200" y="710" on="1"/>
        <pt x="236" y="710" on="0"/>
        <pt x="304" y="685" on="0"/>
        <pt x="355" y="640" on="0"/>
        <pt x="386" y="577" on="0"/>
      </contour>
    </TTGlyph>
    <TTGlyph name="questiondown" xMin="36" yMin="-247" xMax="387" yMax="463">
      <contour>
        <pt x="295" y="463" on="1"/>
        <pt x="295" y="373" on="1"/>
        <pt x="226" y="373" on="1"/>
        <pt x="226" y="463" on="1"/>
      </contour>
      <contour>
        <pt x="36" y="-76" on="1"/>
        <pt x="36" y="-44" on="0"/>
        <pt x="55" y="2" on="0"/>
        <pt x="66" y="19" on="1"/>
        <pt x="209" y="234" on="1"/>
        <pt x="219" y="248" on="0"/>
        <pt x="233" y="279" on="0"/>
        <pt x="233" y="302" on="1"/>
        <pt x="233" y="323" on="1"/>
        <pt x="291" y="323" on="1"/>
        <pt x="291" y="303" on="1"/>
        <pt x="291" y="268" on="0"/>
        <pt x="274" y="222" on="0"/>
        <pt x="262" y="205" on="1"/>
        <pt x="126" y="1" on="1"/>
        <pt x="115" y="-16" on="0"/>
        <pt x="93" y="-56" on="0"/>
        <pt x="93" y="-75" on="1"/>
        <pt x="93" y="-101" on="0"/>
        <pt x="119" y="-143" on="0"/>
        <pt x="158" y="-172" on="0"/>
        <pt x="203" y="-188" on="0"/>
        <pt x="221" y="-188" on="1"/>
        <pt x="233" y="-188" on="0"/>
        <pt x="258" y="-182" on="0"/>
        <pt x="270" y="-177" on="1"/>
        <pt x="368" y="-140" on="1"/>
        <pt x="387" y="-194" on="1"/>
        <pt x="303" y="-229" on="1"/>
        <pt x="286" y="-236" on="0"/>
        <pt x="238" y="-247" on="0"/>
        <pt x="222" y="-247" on="1"/>
        <pt x="186" y="-247" on="0"/>
        <pt x="118" y="-222" on="0"/>
        <pt x="67" y="-177" on="0"/>
        <pt x="36" y="-114" on="0"/>
      </contour>
    </TTGlyph>
    <TTGlyph name="quotedbl" xMin="37" yMin="508" xMax="269" yMax="700">
      <contour>
        <pt x="269" y="648" on="1"/>
        <pt x="269" y="592" on="0"/>
        <pt x="223" y="524" on="0"/>
        <pt x="185" y="508" on="1"/>
        <pt x="168" y="568" on="1"/>
        <pt x="185" y="576" on="0"/>
        <pt x="211" y="613" on="0"/>
        <pt x="211" y="649" on="1"/>
        <pt x="211" y="700" on="1"/>
        <pt x="269" y="700" on="1"/>
      </contour>
      <contour>
        <pt x="138" y="648" on="1"/>
        <pt x="138" y="592" on="0"/>
        <pt x="92" y="524" on="0"/>
        <pt x="54" y="508" on="1"/>
        <pt x="37" y="568" on="1"/>
        <pt x="54" y="576" on="0"/>
        <pt x="80" y="613" on="0"/>
        <pt x="80" y="649" on="1"/>
        <pt x="80" y="700" on="1"/>
        <pt x="138" y="700" on="1"/>
      </contour>
    </TTGlyph>
    <TTGlyph name="quotedblleft" xMin="49" yMin="510" xMax="281" yMax="702">
      <contour>
        <pt x="49" y="562" on="1"/>
        <pt x="49" y="618" on="0"/>
        <pt x="95" y="686" on="0"/>
        <pt x="133" y="702" on="1"/>
        <pt x="150" y="642" on="1"/>
        <pt x="133" y="634" on="0"/>
        <pt x="107" y="597" on="0"/>
        <pt x="107" y="561" on="1"/>
        <pt x="107" y="510" on="1"/>
        <pt x="49" y="510" on="1"/>
      </contour>
      <contour>
        <pt x="180" y="562" on="1"/>
        <pt x="180" y="618" on="0"/>
        <pt x="226" y="686" on="0"/>
        <pt x="264" y="702" on="1"/>
        <pt x="281" y="642" on="1"/>
        <pt x="264" y="634" on="0"/>
        <pt x="238" y="597" on="0"/>
        <pt x="238" y="561" on="1"/>
        <pt x="238" y="510" on="1"/>
        <pt x="180" y="510" on="1"/>
      </contour>
    </TTGlyph>
    <TTGlyph name="quotedblright" xMin="37" yMin="508" xMax="269" yMax="700">
      <contour>
        <pt x="269" y="648" on="1"/>
        <pt x="269" y="592" on="0"/>
        <pt x="223" y="524" on="0"/>
        <pt x="185" y="508" on="1"/>
        <pt x="168" y="568" on="1"/>
        <pt x="185" y="576" on="0"/>
        <pt x="211" y="613" on="0"/>
        <pt x="211" y="649" on="1"/>
        <pt x="211" y="700" on="1"/>
        <pt x="269" y="700" on="1"/>
      </contour>
      <contour>
        <pt x="138" y="648" on="1"/>
        <pt x="138" y="592" on="0"/>
        <pt x="92" y="524" on="0"/>
        <pt x="54" y="508" on="1"/>
        <pt x="37" y="568" on="1"/>
        <pt x="54" y="576" on="0"/>
        <pt x="80" y="613" on="0"/>
        <pt x="80" y="649" on="1"/>
        <pt x="80" y="700" on="1"/>
        <pt x="138" y="700" on="1"/>
      </contour>
    </TTGlyph>
    <TTGlyph name="quotesinglbase" xMin="41" yMin="309" xMax="142" yMax="501">
      <contour>
        <pt x="142" y="449" on="1"/>
        <pt x="142" y="393" on="0"/>
        <pt x="96" y="325" on="0"/>
        <pt x="58" y="309" on="1"/>
        <pt x="41" y="369" on="1"/>
        <pt x="58" y="377" on="0"/>
        <pt x="84" y="414" on="0"/>
        <pt x="84" y="450" on="1"/>
        <pt x="84" y="501" on="1"/>
        <pt x="142" y="501" on="1"/>
        <pt x="142" y="449" on="1"/>
      </contour>
    </TTGlyph>
    <TTGlyph name="quotesingle" xMin="37" yMin="508" xMax="138" yMax="700">
      <contour>
        <pt x="138" y="648" on="1"/>
        <pt x="138" y="592" on="0"/>
        <pt x="92" y="524" on="0"/>
        <pt x="54" y="508" on="1"/>
        <pt x="37" y="568" on="1"/>
        <pt x="54" y="576" on="0"/>
        <pt x="80" y="613" on="0"/>
        <pt x="80" y="649" on="1"/>
        <pt x="80" y="700" on="1"/>
        <pt x="138" y="700" on="1"/>
        <pt x="138" y="648" on="1"/>
      </contour>
    </TTGlyph>
    <TTGlyph name="r" xMin="41" yMin="1" xMax="323" yMax="510">
      <contour>
        <pt x="323" y="470" on="1"/>
        <pt x="295" y="428" on="1"/>
        <pt x="278" y="438" on="0"/>
        <pt x="256" y="449" on="0"/>
        <pt x="237" y="455" on="0"/>
        <pt x="220" y="456" on="0"/>
        <pt x="210" y="456" on="1"/>
        <pt x="195" y="456" on="0"/>
        <pt x="143" y="439" on="0"/>
        <pt x="117" y="415" on="1"/>
        <pt x="117" y="1" on="1"/>
        <pt x="67" y="1" on="1"/>
        <pt x="67" y="443" on="1"/>
        <pt x="41" y="469" on="1"/>
        <pt x="76" y="505" on="1"/>
        <pt x="111" y="471" on="1"/>
        <pt x="140" y="497" on="0"/>
        <pt x="193" y="510" on="0"/>
        <pt x="212" y="510" on="1"/>
        <pt x="232" y="510" on="0"/>
        <pt x="280" y="494" on="0"/>
      </contour>
    </TTGlyph>
    <TTGlyph name="registered" xMin="41" yMin="-6" xMax="758" yMax="712">
      <contour>
        <pt x="758" y="353" on="1"/>
        <pt x="758" y="279" on="0"/>
        <pt x="702" y="148" on="0"/>
        <pt x="605" y="50" on="0"/>
        <pt x="474" y="-6" on="0"/>
        <pt x="400" y="-6" on="1"/>
        <pt x="326" y="-6" on="0"/>
        <pt x="195" y="50" on="0"/>
        <pt x="97" y="148" on="0"/>
        <pt x="41" y="279" on="0"/>
        <pt x="41" y="353" on="1"/>
        <pt x="41" y="427" on="0"/>
        <pt x="97" y="558" on="0"/>
        <pt x="195" y="655" on="0"/>
        <pt x="326" y="712" on="0"/>
        <pt x="400" y="712" on="1"/>
        <pt x="474" y="712" on="0"/>
        <pt x="605" y="655" on="0"/>
        <pt x="702" y="558" on="0"/>
        <pt x="758" y="427" on="0"/>
      </contour>
      <contour>
        <pt x="708" y="353" on="1"/>
        <pt x="708" y="417" on="0"/>
        <pt x="660" y="530" on="0"/>
        <pt x="576" y="614" on="0"/>
        <pt x="464" y="662" on="0"/>
        <pt x="400" y="662" on="1"/>
        <pt x="336" y="662" on="0"/>
        <pt x="224" y="614" on="0"/>
        <pt x="140" y="530" on="0"/>
        <pt x="91" y="417" on="0"/>
        <pt x="91" y="353" on="1"/>
        <pt x="91" y="288" on="0"/>
        <pt x="140" y="176" on="0"/>
        <pt x="224" y="92" on="0"/>
        <pt x="336" y="44" on="0"/>
        <pt x="400" y="44" on="1"/>
        <pt x="464" y="44" on="0"/>
        <pt x="576" y="92" on="0"/>
        <pt x="660" y="176" on="0"/>
        <pt x="708" y="288" on="0"/>
      </contour>
      <contour>
        <pt x="394" y="533" on="1"/>
        <pt x="383" y="533" on="0"/>
        <pt x="360" y="528" on="0"/>
        <pt x="350" y="525" on="1"/>
        <pt x="339" y="521" on="0"/>
        <pt x="327" y="518" on="1"/>
        <pt x="327" y="352" on="1"/>
        <pt x="394" y="352" on="1"/>
        <pt x="436" y="352" on="0"/>
        <pt x="488" y="402" on="0"/>
        <pt x="488" y="449" on="1"/>
        <pt x="488" y="496" on="0"/>
        <pt x="436" y="533" on="0"/>
      </contour>
      <contour>
        <pt x="455" y="328" on="1"/>
        <pt x="528" y="147" on="1"/>
        <pt x="494" y="147" on="1"/>
        <pt x="421" y="319" on="1"/>
        <pt x="416" y="317" on="0"/>
        <pt x="404" y="317" on="0"/>
        <pt x="398" y="317" on="1"/>
        <pt x="327" y="317" on="1"/>
        <pt x="327" y="147" on="1"/>
        <pt x="296" y="147" on="1"/>
        <pt x="296" y="545" on="1"/>
        <pt x="311" y="551" on="0"/>
        <pt x="329" y="556" on="1"/>
        <pt x="344" y="561" on="0"/>
        <pt x="380" y="568" on="0"/>
        <pt x="399" y="568" on="1"/>
        <pt x="423" y="568" on="0"/>
        <pt x="468" y="552" on="0"/>
        <pt x="503" y="522" on="0"/>
        <pt x="523" y="477" on="0"/>
        <pt x="523" y="449" on="1"/>
        <pt x="523" y="409" on="0"/>
        <pt x="485" y="340" on="0"/>
      </contour>
    </TTGlyph>
    <TTGlyph name="s" xMin="45" yMin="-10" xMax="336" yMax="510">
      <contour>
        <pt x="336" y="138" on="1"/>
        <pt x="336" y="64" on="0"/>
        <pt x="262" y="-10" on="0"/>
        <pt x="204" y="-10" on="1"/>
        <pt x="186" y="-10" on="0"/>
        <pt x="148" y="-4" on="0"/>
        <pt x="129" y="4" on="1"/>
        <pt x="46" y="37" on="1"/>
        <pt x="66" y="81" on="1"/>
        <pt x="148" y="48" on="1"/>
        <pt x="163" y="42" on="0"/>
        <pt x="192" y="37" on="0"/>
        <pt x="205" y="37" on="1"/>
        <pt x="240" y="37" on="0"/>
        <pt x="288" y="91" on="0"/>
        <pt x="288" y="142" on="1"/>
        <pt x="288" y="163" on="0"/>
        <pt x="271" y="193" on="0"/>
        <pt x="246" y="212" on="0"/>
        <pt x="215" y="221" on="0"/>
        <pt x="202" y="221" on="1"/>
        <pt x="166" y="221" on="0"/>
        <pt x="108" y="234" on="0"/>
        <pt x="67" y="267" on="0"/>
        <pt x="45" y="321" on="0"/>
        <pt x="45" y="362" on="1"/>
        <pt x="45" y="435" on="0"/>
        <pt x="124" y="510" on="0"/>
        <pt x="182" y="510" on="1"/>
        <pt x="199" y="510" on="0"/>
        <pt x="236" y="501" on="0"/>
        <pt x="256" y="494" on="1"/>
        <pt x="289" y="482" on="1"/>
        <pt x="270" y="439" on="1"/>
        <pt x="246" y="448" on="0"/>
        <pt x="217" y="457" on="0"/>
        <pt x="200" y="461" on="0"/>
        <pt x="191" y="462" on="0"/>
        <pt x="186" y="462" on="1"/>
        <pt x="181" y="462" on="1"/>
        <pt x="146" y="462" on="0"/>
        <pt x="93" y="407" on="0"/>
        <pt x="93" y="357" on="1"/>
        <pt x="93" y="336" on="0"/>
        <pt x="111" y="304" on="0"/>
        <pt x="139" y="281" on="0"/>
        <pt x="170" y="270" on="0"/>
        <pt x="184" y="270" on="1"/>
        <pt x="215" y="270" on="0"/>
        <pt x="271" y="259" on="0"/>
        <pt x="312" y="230" on="0"/>
        <pt x="336" y="178" on="0"/>
      </contour>
    </TTGlyph>
    <TTGlyph name="scaron" xMin="45" yMin="-10" xMax="336" yMax="750">
      <component glyphName="s" x="0" y="0" flags="0x1204"/>
      <component glyphName="caron" x="-14" y="0" flags="0x1004"/>
    </TTGlyph>
    <TTGlyph name="semicolon" xMin="31" yMin="-94" xMax="147" yMax="411">
      <contour>
        <pt x="147" y="46" on="1"/>
        <pt x="147" y="-10" on="0"/>
        <pt x="101" y="-78" on="0"/>
        <pt x="63" y="-94" on="1"/>
        <pt x="31" y="-36" on="1"/>
        <pt x="48" y="-28" on="0"/>
        <pt x="78" y="11" on="0"/>
        <pt x="78" y="47" on="1"/>
        <pt x="78" y="98" on="1"/>
        <pt x="147" y="98" on="1"/>
      </contour>
      <contour>
        <pt x="78" y="321" on="1"/>
        <pt x="78" y="411" on="1"/>
        <pt x="147" y="411" on="1"/>
        <pt x="147" y="321" on="1"/>
      </contour>
    </TTGlyph>
    <TTGlyph name="seven" xMin="34" yMin="0" xMax="326" yMax="650">
      <contour>
        <pt x="34" y="650" on="1"/>
        <pt x="326" y="650" on="1"/>
        <pt x="326" y="585" on="1"/>
        <pt x="141" y="0" on="1"/>
        <pt x="84" y="0" on="1"/>
        <pt x="271" y="599" on="1"/>
        <pt x="34" y="599" on="1"/>
      </contour>
    </TTGlyph>
    <TTGlyph name="six" xMin="69" yMin="-7" xMax="367" yMax="656">
      <contour>
        <pt x="234" y="362" on="1"/>
        <pt x="202" y="362" on="1"/>
        <pt x="168" y="362" on="0"/>
        <pt x="120" y="311" on="0"/>
        <pt x="120" y="275" on="1"/>
        <pt x="120" y="126" on="1"/>
        <pt x="120" y="83" on="0"/>
        <pt x="179" y="42" on="0"/>
        <pt x="219" y="42" on="1"/>
        <pt x="238" y="42" on="0"/>
        <pt x="273" y="51" on="0"/>
        <pt x="300" y="72" on="0"/>
        <pt x="316" y="103" on="0"/>
        <pt x="316" y="126" on="1"/>
        <pt x="316" y="275" on="1"/>
        <pt x="316" y="311" on="0"/>
        <pt x="268" y="362" on="0"/>
      </contour>
      <contour>
        <pt x="234" y="-7" on="1"/>
        <pt x="201" y="-7" on="1"/>
        <pt x="174" y="-7" on="0"/>
        <pt x="126" y="14" on="0"/>
        <pt x="90" y="51" on="0"/>
        <pt x="69" y="101" on="0"/>
        <pt x="69" y="130" on="1"/>
        <pt x="69" y="504" on="1"/>
        <pt x="69" y="537" on="0"/>
        <pt x="93" y="593" on="0"/>
        <pt x="135" y="634" on="0"/>
        <pt x="192" y="656" on="0"/>
        <pt x="224" y="656" on="1"/>
        <pt x="229" y="656" on="0"/>
        <pt x="259" y="650" on="0"/>
        <pt x="276" y="646" on="1"/>
        <pt x="295" y="642" on="0"/>
        <pt x="318" y="636" on="1"/>
        <pt x="304" y="589" on="1"/>
        <pt x="285" y="594" on="0"/>
        <pt x="268" y="598" on="1"/>
        <pt x="254" y="601" on="0"/>
        <pt x="228" y="607" on="0"/>
        <pt x="224" y="607" on="1"/>
        <pt x="181" y="607" on="0"/>
        <pt x="118" y="551" on="0"/>
        <pt x="118" y="504" on="1"/>
        <pt x="118" y="385" on="1"/>
        <pt x="130" y="395" on="0"/>
        <pt x="164" y="406" on="0"/>
        <pt x="198" y="412" on="0"/>
        <pt x="226" y="413" on="0"/>
        <pt x="234" y="413" on="1"/>
        <pt x="262" y="413" on="0"/>
        <pt x="310" y="391" on="0"/>
        <pt x="346" y="352" on="0"/>
        <pt x="367" y="301" on="0"/>
        <pt x="367" y="272" on="1"/>
        <pt x="367" y="130" on="1"/>
        <pt x="367" y="101" on="0"/>
        <pt x="346" y="51" on="0"/>
        <pt x="310" y="14" on="0"/>
        <pt x="262" y="-7" on="0"/>
      </contour>
    </TTGlyph>
    <TTGlyph name="slash" xMin="49" yMin="1" xMax="210" yMax="699">
      <contour>
        <pt x="150" y="699" on="1"/>
        <pt x="210" y="699" on="1"/>
        <pt x="109" y="1" on="1"/>
        <pt x="49" y="1" on="1"/>
      </contour>
    </TTGlyph>
    <TTGlyph name="sterling" xMin="48" yMin="0" xMax="456" yMax="709">
      <contour>
        <pt x="401" y="526" on="1"/>
        <pt x="401" y="567" on="0"/>
        <pt x="373" y="618" on="0"/>
        <pt x="333" y="646" on="0"/>
        <pt x="286" y="655" on="0"/>
        <pt x="268" y="655" on="1"/>
        <pt x="248" y="655" on="0"/>
        <pt x="204" y="645" on="0"/>
        <pt x="166" y="616" on="0"/>
        <pt x="142" y="567" on="0"/>
        <pt x="142" y="528" on="1"/>
        <pt x="142" y="382" on="1"/>
        <pt x="363" y="382" on="1"/>
        <pt x="363" y="323" on="1"/>
        <pt x="142" y="323" on="1"/>
        <pt x="142" y="54" on="1"/>
        <pt x="455" y="54" on="1"/>
        <pt x="455" y="0" on="1"/>
        <pt x="87" y="0" on="1"/>
        <pt x="87" y="323" on="1"/>
        <pt x="48" y="323" on="1"/>
        <pt x="48" y="382" on="1"/>
        <pt x="87" y="382" on="1"/>
        <pt x="87" y="526" on="1"/>
        <pt x="87" y="566" on="0"/>
        <pt x="112" y="633" on="0"/>
        <pt x="160" y="682" on="0"/>
        <pt x="227" y="709" on="0"/>
        <pt x="269" y="709" on="1"/>
        <pt x="310" y="709" on="0"/>
        <pt x="379" y="682" on="0"/>
        <pt x="428" y="633" on="0"/>
        <pt x="456" y="566" on="0"/>
        <pt x="456" y="526" on="1"/>
      </contour>
    </TTGlyph>
    <TTGlyph name="t" xMin="19" yMin="-1" xMax="249" yMax="700">
      <contour>
        <pt x="104" y="130" on="1"/>
        <pt x="104" y="451" on="1"/>
        <pt x="19" y="451" on="1"/>
        <pt x="19" y="501" on="1"/>
        <pt x="104" y="501" on="1"/>
        <pt x="104" y="700" on="1"/>
        <pt x="157" y="700" on="1"/>
        <pt x="157" y="501" on="1"/>
        <pt x="249" y="501" on="1"/>
        <pt x="249" y="451" on="1"/>
        <pt x="157" y="451" on="1"/>
        <pt x="157" y="125" on="1"/>
        <pt x="157" y="84" on="0"/>
        <pt x="198" y="53" on="0"/>
        <pt x="227" y="53" on="1"/>
        <pt x="249" y="53" on="1"/>
        <pt x="249" y="-1" on="1"/>
        <pt x="222" y="-1" on="1"/>
        <pt x="197" y="-1" on="0"/>
        <pt x="154" y="14" on="0"/>
        <pt x="122" y="45" on="0"/>
        <pt x="104" y="95" on="0"/>
      </contour>
    </TTGlyph>
    <TTGlyph name="thorn" xMin="64" yMin="-250" xMax="363" yMax="699">
      <contour>
        <pt x="116" y="70" on="1"/>
        <pt x="145" y="55" on="0"/>
        <pt x="199" y="41" on="0"/>
        <pt x="231" y="41" on="1"/>
        <pt x="248" y="41" on="0"/>
        <pt x="278" y="55" on="0"/>
        <pt x="300" y="79" on="0"/>
        <pt x="313" y="110" on="0"/>
        <pt x="313" y="128" on="1"/>
        <pt x="313" y="371" on="1"/>
        <pt x="313" y="407" on="0"/>
        <pt x="265" y="458" on="0"/>
        <pt x="230" y="458" on="1"/>
        <pt x="206" y="458" on="0"/>
        <pt x="139" y="441" on="0"/>
        <pt x="116" y="423" on="1"/>
      </contour>
      <contour>
        <pt x="115" y="481" on="1"/>
        <pt x="155" y="502" on="0"/>
        <pt x="213" y="509" on="0"/>
        <pt x="230" y="509" on="1"/>
        <pt x="258" y="509" on="0"/>
        <pt x="306" y="487" on="0"/>
        <pt x="342" y="448" on="0"/>
        <pt x="363" y="397" on="0"/>
        <pt x="363" y="368" on="1"/>
        <pt x="363" y="132" on="1"/>
        <pt x="363" y="103" on="0"/>
        <pt x="342" y="52" on="0"/>
        <pt x="306" y="14" on="0"/>
        <pt x="258" y="-8" on="0"/>
        <pt x="230" y="-8" on="1"/>
        <pt x="209" y="-8" on="0"/>
        <pt x="146" y="2" on="0"/>
        <pt x="114" y="18" on="1"/>
        <pt x="114" y="-250" on="1"/>
        <pt x="64" y="-250" on="1"/>
        <pt x="64" y="699" on="1"/>
        <pt x="65" y="699" on="1"/>
        <pt x="114" y="699" on="1"/>
        <pt x="115" y="699" on="1"/>
      </contour>
    </TTGlyph>
    <TTGlyph name="three" xMin="46" yMin="-10" xMax="351" yMax="656">
      <contour>
        <pt x="46" y="610" on="1"/>
        <pt x="117" y="639" on="1"/>
        <pt x="132" y="646" on="0"/>
        <pt x="180" y="656" on="0"/>
        <pt x="194" y="656" on="1"/>
        <pt x="230" y="655" on="0"/>
        <pt x="288" y="627" on="0"/>
        <pt x="329" y="579" on="0"/>
        <pt x="351" y="513" on="0"/>
        <pt x="351" y="474" on="1"/>
        <pt x="351" y="433" on="0"/>
        <pt x="323" y="370" on="0"/>
        <pt x="285" y="336" on="1"/>
        <pt x="308" y="319" on="0"/>
        <pt x="334" y="280" on="0"/>
        <pt x="347" y="239" on="0"/>
        <pt x="350" y="196" on="0"/>
        <pt x="350" y="176" on="1"/>
        <pt x="350" y="137" on="0"/>
        <pt x="325" y="70" on="0"/>
        <pt x="282" y="20" on="0"/>
        <pt x="222" y="-10" on="0"/>
        <pt x="187" y="-10" on="1"/>
        <pt x="172" y="-9" on="0"/>
        <pt x="132" y="-1" on="0"/>
        <pt x="116" y="5" on="1"/>
        <pt x="47" y="32" on="1"/>
        <pt x="61" y="86" on="1"/>
        <pt x="143" y="51" on="1"/>
        <pt x="153" y="47" on="0"/>
        <pt x="175" y="41" on="0"/>
        <pt x="185" y="41" on="1"/>
        <pt x="210" y="41" on="0"/>
        <pt x="251" y="64" on="0"/>
        <pt x="281" y="103" on="0"/>
        <pt x="299" y="153" on="0"/>
        <pt x="300" y="180" on="1"/>
        <pt x="300" y="207" on="0"/>
        <pt x="287" y="255" on="0"/>
        <pt x="261" y="292" on="0"/>
        <pt x="219" y="314" on="0"/>
        <pt x="190" y="314" on="1"/>
        <pt x="133" y="314" on="1"/>
        <pt x="133" y="363" on="1"/>
        <pt x="191" y="363" on="1"/>
        <pt x="250" y="363" on="0"/>
        <pt x="299" y="430" on="0"/>
        <pt x="300" y="483" on="1"/>
        <pt x="299" y="510" on="0"/>
        <pt x="278" y="554" on="0"/>
        <pt x="247" y="585" on="0"/>
        <pt x="209" y="602" on="0"/>
        <pt x="191" y="602" on="1"/>
        <pt x="181" y="602" on="0"/>
        <pt x="151" y="597" on="0"/>
        <pt x="141" y="592" on="1"/>
        <pt x="68" y="559" on="1"/>
      </contour>
    </TTGlyph>
    <TTGlyph name="tilde" xMin="100" yMin="605" xMax="397" yMax="655">
      <contour>
        <pt x="374" y="655" on="1"/>
        <pt x="397" y="605" on="1"/>
        <pt x="125" y="605" on="1"/>
        <pt x="100" y="655" on="1"/>
      </contour>
    </TTGlyph>
    <TTGlyph name="trademark" xMin="57" yMin="387" xMax="483" yMax="700">
      <contour>
        <pt x="385" y="505" on="1"/>
        <pt x="444" y="700" on="1"/>
        <pt x="483" y="700" on="1"/>
        <pt x="483" y="387" on="1"/>
        <pt x="459" y="387" on="1"/>
        <pt x="459" y="647" on="1"/>
        <pt x="453" y="647" on="1"/>
        <pt x="401" y="479" on="1"/>
        <pt x="362" y="479" on="1"/>
        <pt x="310" y="647" on="1"/>
        <pt x="304" y="647" on="1"/>
        <pt x="304" y="387" on="1"/>
        <pt x="281" y="387" on="1"/>
        <pt x="281" y="700" on="1"/>
        <pt x="320" y="700" on="1"/>
        <pt x="378" y="505" on="1"/>
      </contour>
      <contour>
        <pt x="227" y="700" on="1"/>
        <pt x="227" y="676" on="1"/>
        <pt x="155" y="676" on="1"/>
        <pt x="155" y="387" on="1"/>
        <pt x="131" y="387" on="1"/>
        <pt x="131" y="676" on="1"/>
        <pt x="57" y="676" on="1"/>
        <pt x="57" y="700" on="1"/>
      </contour>
    </TTGlyph>
    <TTGlyph name="two" xMin="34" yMin="0" xMax="344" yMax="656">
      <contour>
        <pt x="260" y="366" on="1"/>
        <pt x="277" y="389" on="0"/>
        <pt x="289" y="437" on="0"/>
        <pt x="290" y="466" on="1"/>
        <pt x="289" y="493" on="0"/>
        <pt x="272" y="542" on="0"/>
        <pt x="244" y="579" on="0"/>
        <pt x="204" y="601" on="0"/>
        <pt x="179" y="601" on="1"/>
        <pt x="174" y="601" on="0"/>
        <pt x="161" y="598" on="0"/>
        <pt x="135" y="589" on="0"/>
        <pt x="91" y="572" on="0"/>
        <pt x="57" y="558" on="1"/>
        <pt x="34" y="610" on="1"/>
        <pt x="110" y="641" on="1"/>
        <pt x="125" y="647" on="0"/>
        <pt x="166" y="655" on="0"/>
        <pt x="181" y="656" on="1"/>
        <pt x="216" y="656" on="0"/>
        <pt x="276" y="626" on="0"/>
        <pt x="319" y="575" on="0"/>
        <pt x="344" y="508" on="0"/>
        <pt x="344" y="469" on="1"/>
        <pt x="344" y="434" on="0"/>
        <pt x="331" y="376" on="0"/>
        <pt x="307" y="344" on="1"/>
        <pt x="280" y="297" on="0"/>
        <pt x="215" y="195" on="0"/>
        <pt x="187" y="153" on="1"/>
        <pt x="154" y="103" on="0"/>
        <pt x="121" y="56" on="1"/>
        <pt x="342" y="56" on="1"/>
        <pt x="342" y="0" on="1"/>
        <pt x="64" y="0" on="1"/>
        <pt x="64" y="65" on="1"/>
      </contour>
    </TTGlyph>
    <TTGlyph name="u" xMin="61" yMin="-8" xMax="390" yMax="500">
      <contour>
        <pt x="77" y="74" on="1"/>
        <pt x="65" y="99" on="0"/>
        <pt x="61" y="150" on="0"/>
        <pt x="61" y="177" on="1"/>
        <pt x="61" y="500" on="1"/>
        <pt x="113" y="500" on="1"/>
        <pt x="113" y="146" on="1"/>
        <pt x="113" y="120" on="0"/>
        <pt x="128" y="81" on="0"/>
        <pt x="153" y="55" on="0"/>
        <pt x="185" y="41" on="0"/>
        <pt x="202" y="41" on="1"/>
        <pt x="234" y="41" on="0"/>
        <pt x="299" y="64" on="0"/>
        <pt x="317" y="77" on="1"/>
        <pt x="317" y="500" on="1"/>
        <pt x="368" y="500" on="1"/>
        <pt x="368" y="50" on="1"/>
        <pt x="390" y="29" on="1"/>
        <pt x="354" y="-7" on="1"/>
        <pt x="324" y="23" on="1"/>
        <pt x="295" y="7" on="0"/>
        <pt x="229" y="-8" on="0"/>
        <pt x="203" y="-8" on="1"/>
        <pt x="167" y="-8" on="0"/>
        <pt x="97" y="29" on="0"/>
      </contour>
    </TTGlyph>
    <TTGlyph name="uacute" xMin="61" yMin="-8" xMax="390" yMax="737">
      <component glyphName="u" x="0" y="0" flags="0x1204"/>
      <component glyphName="acute" x="-26" y="0" flags="0x1004"/>
    </TTGlyph>
    <TTGlyph name="ucircumflex" xMin="61" yMin="-8" xMax="390" yMax="751">
      <component glyphName="u" x="0" y="0" flags="0x1204"/>
      <component glyphName="circumflex" x="16" y="0" flags="0x1004"/>
    </TTGlyph>
    <TTGlyph name="udieresis" xMin="61" yMin="-8" xMax="390" yMax="677">
      <component glyphName="u" x="0" y="0" flags="0x1204"/>
      <component glyphName="dieresis" x="-15" y="0" flags="0x1004"/>
    </TTGlyph>
    <TTGlyph name="ugrave" xMin="61" yMin="-8" xMax="390" yMax="736">
      <component glyphName="u" x="0" y="0" flags="0x1204"/>
      <component glyphName="grave" x="-19" y="0" flags="0x1004"/>
    </TTGlyph>
    <TTGlyph name="v" xMin="23" yMin="0" xMax="340" yMax="500">
      <contour>
        <pt x="289" y="500" on="1"/>
        <pt x="340" y="500" on="1"/>
        <pt x="227" y="0" on="1"/>
        <pt x="142" y="0" on="1"/>
        <pt x="23" y="500" on="1"/>
        <pt x="73" y="500" on="1"/>
        <pt x="148" y="200" on="1"/>
        <pt x="152" y="185" on="0"/>
        <pt x="161" y="140" on="0"/>
        <pt x="169" y="98" on="0"/>
        <pt x="175" y="68" on="0"/>
        <pt x="175" y="68" on="1"/>
        <pt x="195" y="68" on="1"/>
        <pt x="201" y="95" on="0"/>
        <pt x="206" y="120" on="1"/>
        <pt x="211" y="141" on="0"/>
        <pt x="219" y="186" on="0"/>
        <pt x="223" y="201" on="1"/>
      </contour>
    </TTGlyph>
    <TTGlyph name="w" xMin="29" yMin="0" xMax="503" yMax="500">
      <contour>
        <pt x="309" y="499" on="1"/>
        <pt x="382" y="65" on="1"/>
        <pt x="390" y="65" on="1"/>
        <pt x="453" y="500" on="1"/>
        <pt x="503" y="500" on="1"/>
        <pt x="423" y="0" on="1"/>
        <pt x="349" y="0" on="1"/>
        <pt x="271" y="436" on="1"/>
        <pt x="260" y="436" on="1"/>
        <pt x="182" y="0" on="1"/>
        <pt x="109" y="0" on="1"/>
        <pt x="29" y="500" on="1"/>
        <pt x="79" y="500" on="1"/>
        <pt x="139" y="66" on="1"/>
        <pt x="148" y="66" on="1"/>
        <pt x="222" y="499" on="1"/>
      </contour>
    </TTGlyph>
    <TTGlyph name="x" xMin="25" yMin="0" xMax="339" yMax="500">
      <contour>
        <pt x="170" y="220" on="1"/>
        <pt x="76" y="0" on="1"/>
        <pt x="25" y="0" on="1"/>
        <pt x="131" y="249" on="1"/>
        <pt x="25" y="500" on="1"/>
        <pt x="76" y="500" on="1"/>
        <pt x="174" y="280" on="1"/>
        <pt x="190" y="280" on="1"/>
        <pt x="283" y="500" on="1"/>
        <pt x="336" y="500" on="1"/>
        <pt x="234" y="249" on="1"/>
        <pt x="339" y="1" on="1"/>
        <pt x="286" y="1" on="1"/>
        <pt x="191" y="220" on="1"/>
      </contour>
    </TTGlyph>
    <TTGlyph name="y" xMin="22" yMin="-250" xMax="353" yMax="500">
      <contour>
        <pt x="121" y="-250" on="1"/>
        <pt x="162" y="0" on="1"/>
        <pt x="155" y="0" on="1"/>
        <pt x="22" y="500" on="1"/>
        <pt x="73" y="500" on="1"/>
        <pt x="99" y="390" on="0"/>
        <pt x="140" y="237" on="0"/>
        <pt x="154" y="188" on="1"/>
        <pt x="170" y="131" on="0"/>
        <pt x="181" y="94" on="1"/>
        <pt x="193" y="94" on="1"/>
        <pt x="202" y="131" on="0"/>
        <pt x="217" y="188" on="1"/>
        <pt x="230" y="237" on="0"/>
        <pt x="271" y="390" on="0"/>
        <pt x="302" y="500" on="1"/>
        <pt x="353" y="500" on="1"/>
        <pt x="219" y="0" on="1"/>
        <pt x="213" y="0" on="1"/>
        <pt x="172" y="-250" on="1"/>
      </contour>
    </TTGlyph>
    <TTGlyph name="yacute" xMin="22" yMin="-250" xMax="353" yMax="737">
      <component glyphName="y" x="0" y="0" flags="0x1204"/>
      <component glyphName="acute" x="-51" y="0" flags="0x1004"/>
    </TTGlyph>
    <TTGlyph name="ydieresis" xMin="22" yMin="-250" xMax="353" yMax="677">
      <component glyphName="y" x="0" y="0" flags="0x1204"/>
      <component glyphName="dieresis" x="-43" y="0" flags="0x1004"/>
    </TTGlyph>
    <TTGlyph name="yen" xMin="39" yMin="1" xMax="442" yMax="701">
      <contour>
        <pt x="412" y="176" on="1"/>
        <pt x="270" y="176" on="1"/>
        <pt x="270" y="1" on="1"/>
        <pt x="210" y="1" on="1"/>
        <pt x="210" y="176" on="1"/>
        <pt x="69" y="176" on="1"/>
        <pt x="69" y="240" on="1"/>
        <pt x="210" y="240" on="1"/>
        <pt x="210" y="319" on="1"/>
        <pt x="198" y="319" on="1"/>
        <pt x="176" y="371" on="1"/>
        <pt x="69" y="371" on="1"/>
        <pt x="69" y="435" on="1"/>
        <pt x="150" y="435" on="1"/>
        <pt x="39" y="701" on="1"/>
        <pt x="95" y="701" on="1"/>
        <pt x="232" y="379" on="1"/>
        <pt x="249" y="379" on="1"/>
        <pt x="386" y="701" on="1"/>
        <pt x="442" y="701" on="1"/>
        <pt x="332" y="435" on="1"/>
        <pt x="412" y="435" on="1"/>
        <pt x="412" y="371" on="1"/>
        <pt x="305" y="371" on="1"/>
        <pt x="284" y="319" on="1"/>
        <pt x="270" y="319" on="1"/>
        <pt x="270" y="240" on="1"/>
        <pt x="412" y="240" on="1"/>
        <pt x="412" y="176" on="1"/>
      </contour>
    </TTGlyph>
    <TTGlyph name="z" xMin="35" yMin="0" xMax="376" yMax="498">
      <contour>
        <pt x="376" y="0" on="1"/>
        <pt x="35" y="0" on="1"/>
        <pt x="35" y="52" on="1"/>
        <pt x="288" y="428" on="1"/>
        <pt x="288" y="447" on="1"/>
        <pt x="44" y="447" on="1"/>
        <pt x="44" y="498" on="1"/>
        <pt x="359" y="498" on="1"/>
        <pt x="359" y="446" on="1"/>
        <pt x="106" y="69" on="1"/>
        <pt x="106" y="51" on="1"/>
        <pt x="376" y="51" on="1"/>
      </contour>
    </TTGlyph>
    <TTGlyph name="zcaron" xMin="35" yMin="0" xMax="376" yMax="750">
      <component glyphName="z" x="0" y="0" flags="0x1204"/>
      <component glyphName="caron" x="7" y="0" flags="0x1004"/>
    </TTGlyph>
    <TTGlyph name="zero" xMin="69" yMin="-9" xMax="367" yMax="655">
      <contour>
        <pt x="202" y="44" on="1"/>
        <pt x="234" y="44" on="1"/>
        <pt x="268" y="44" on="0"/>
        <pt x="316" y="95" on="0"/>
        <pt x="316" y="131" on="1"/>
        <pt x="316" y="518" on="1"/>
        <pt x="316" y="558" on="0"/>
        <pt x="260" y="601" on="0"/>
        <pt x="223" y="601" on="1"/>
        <pt x="202" y="601" on="0"/>
        <pt x="165" y="593" on="0"/>
        <pt x="137" y="573" on="0"/>
        <pt x="120" y="542" on="0"/>
        <pt x="120" y="518" on="1"/>
        <pt x="120" y="131" on="1"/>
        <pt x="120" y="95" on="0"/>
        <pt x="167" y="44" on="0"/>
      </contour>
      <contour>
        <pt x="367" y="518" on="1"/>
        <pt x="367" y="128" on="1"/>
        <pt x="367" y="99" on="0"/>
        <pt x="346" y="49" on="0"/>
        <pt x="310" y="12" on="0"/>
        <pt x="262" y="-9" on="0"/>
        <pt x="234" y="-9" on="1"/>
        <pt x="201" y="-9" on="1"/>
        <pt x="173" y="-9" on="0"/>
        <pt x="125" y="12" on="0"/>
        <pt x="89" y="49" on="0"/>
        <pt x="69" y="99" on="0"/>
        <pt x="69" y="128" on="1"/>
        <pt x="69" y="518" on="1"/>
        <pt x="69" y="547" on="0"/>
        <pt x="90" y="597" on="0"/>
        <pt x="126" y="634" on="0"/>
        <pt x="174" y="655" on="0"/>
        <pt x="202" y="655" on="1"/>
        <pt x="235" y="655" on="1"/>
        <pt x="262" y="655" on="0"/>
        <pt x="310" y="634" on="0"/>
        <pt x="346" y="597" on="0"/>
        <pt x="367" y="547" on="0"/>
      </contour>
    </TTGlyph>
</ttFont>
